  0
SECTION
  2
BLOCKS
  0
ENDSEC
  0
SECTION
  2
ENTITIES
  0
LINE
  8
0
 10
-19.4385
 20
112.691
 11
-30.7909
 21
117.944
  0
LINE
  8
0
 10
-30.7909
 20
117.944
 11
-42.12
 21
122.38
  0
LINE
  8
0
 10
-42.12
 20
122.38
 11
-53.4885
 21
126.012
  0
LINE
  8
0
 10
-53.4885
 20
126.012
 11
-64.9593
 21
128.853
  0
LINE
  8
0
 10
-64.9593
 20
128.853
 11
-76.5951
 21
130.917
  0
LINE
  8
0
 10
-76.5951
 20
130.917
 11
-88.4587
 21
132.217
  0
LINE
  8
0
 10
-88.4587
 20
132.217
 11
-100.613
 21
132.766
  0
LINE
  8
0
 10
-100.613
 20
132.766
 11
-113.12
 21
132.578
  0
LINE
  8
0
 10
-113.12
 20
132.578
 11
-126.044
 21
131.665
  0
LINE
  8
0
 10
-126.044
 20
131.665
 11
-143.98
 21
71.1158
  0
LINE
  8
0
 10
-143.98
 20
71.1158
 11
-101.696
 21
58.5907
  0
LINE
  8
0
 10
-101.696
 20
58.5907
 11
-98.2431
 21
57.5084
  0
LINE
  8
0
 10
-98.2431
 20
57.5084
 11
-95.2413
 21
56.418
  0
LINE
  8
0
 10
-95.2413
 20
56.418
 11
-92.6217
 21
55.2657
  0
LINE
  8
0
 10
-92.6217
 20
55.2657
 11
-90.3155
 21
53.9974
  0
LINE
  8
0
 10
-90.3155
 20
53.9974
 11
-88.254
 21
52.559
  0
LINE
  8
0
 10
-88.254
 20
52.559
 11
-86.3685
 21
50.8967
  0
LINE
  8
0
 10
-86.3685
 20
50.8967
 11
-84.5902
 21
48.9563
  0
LINE
  8
0
 10
-84.5902
 20
48.9563
 11
-82.8505
 21
46.684
  0
LINE
  8
0
 10
-82.8505
 20
46.684
 11
-81.0805
 21
44.0257
  0
LINE
  8
0
 10
-81.0805
 20
44.0257
 11
-79.2115
 21
40.9274
  0
LINE
  8
0
 10
-79.2115
 20
40.9274
 11
-71.8025
 21
38.5714
  0
LINE
  8
0
 10
-71.8025
 20
38.5714
 11
-65.3487
 21
36.1275
  0
LINE
  8
0
 10
-65.3487
 20
36.1275
 11
-59.7271
 21
33.4866
  0
LINE
  8
0
 10
-59.7271
 20
33.4866
 11
-54.8146
 21
30.54
  0
LINE
  8
0
 10
-54.8146
 20
30.54
 11
-50.4882
 21
27.1789
  0
LINE
  8
0
 10
-50.4882
 20
27.1789
 11
-46.6249
 21
23.2944
  0
LINE
  8
0
 10
-46.6249
 20
23.2944
 11
-43.1016
 21
18.7776
  0
LINE
  8
0
 10
-43.1016
 20
18.7776
 11
-39.7954
 21
13.5197
  0
LINE
  8
0
 10
-39.7954
 20
13.5197
 11
-36.5831
 21
7.41191
  0
LINE
  8
0
 10
-36.5831
 20
7.41191
 11
-33.3417
 21
0.345291
  0
LINE
  8
0
 10
-33.3417
 20
0.345291
 11
-29.2603
 21
2.10268
  0
LINE
  8
0
 10
-29.2603
 20
2.10268
 11
-25.5222
 21
3.6595
  0
LINE
  8
0
 10
-25.5222
 20
3.6595
 11
-22.061
 21
5.01941
  0
LINE
  8
0
 10
-22.061
 20
5.01941
 11
-18.81
 21
6.18611
  0
LINE
  8
0
 10
-18.81
 20
6.18611
 11
-15.703
 21
7.16324
  0
LINE
  8
0
 10
-15.703
 20
7.16324
 11
-12.6734
 21
7.95448
  0
LINE
  8
0
 10
-12.6734
 20
7.95448
 11
-9.65475
 21
8.56351
  0
LINE
  8
0
 10
-9.65475
 20
8.56351
 11
-6.58061
 21
8.99397
  0
LINE
  8
0
 10
-6.58061
 20
8.99397
 11
-3.38452
 21
9.24957
  0
LINE
  8
0
 10
-3.38452
 20
9.24957
 11
0
 21
9.33395
  0
LINE
  8
0
 10
0
 20
9.33395
 11
3.38452
 21
9.24957
  0
LINE
  8
0
 10
3.38452
 20
9.24957
 11
6.58061
 21
8.99397
  0
LINE
  8
0
 10
6.58061
 20
8.99397
 11
9.65475
 21
8.56351
  0
LINE
  8
0
 10
9.65475
 20
8.56351
 11
12.6734
 21
7.95448
  0
LINE
  8
0
 10
12.6734
 20
7.95448
 11
15.703
 21
7.16324
  0
LINE
  8
0
 10
15.703
 20
7.16324
 11
18.81
 21
6.18611
  0
LINE
  8
0
 10
18.81
 20
6.18611
 11
22.061
 21
5.01941
  0
LINE
  8
0
 10
22.061
 20
5.01941
 11
25.5222
 21
3.6595
  0
LINE
  8
0
 10
25.5222
 20
3.6595
 11
29.2603
 21
2.10268
  0
LINE
  8
0
 10
29.2603
 20
2.10268
 11
33.3417
 21
0.345291
  0
LINE
  8
0
 10
33.3417
 20
0.345291
 11
36.5831
 21
7.41191
  0
LINE
  8
0
 10
36.5831
 20
7.41191
 11
39.7954
 21
13.5197
  0
LINE
  8
0
 10
39.7954
 20
13.5197
 11
43.1016
 21
18.7776
  0
LINE
  8
0
 10
43.1016
 20
18.7776
 11
46.6249
 21
23.2944
  0
LINE
  8
0
 10
46.6249
 20
23.2944
 11
50.4882
 21
27.1789
  0
LINE
  8
0
 10
50.4882
 20
27.1789
 11
54.8146
 21
30.54
  0
LINE
  8
0
 10
54.8146
 20
30.54
 11
59.7271
 21
33.4866
  0
LINE
  8
0
 10
59.7271
 20
33.4866
 11
65.3487
 21
36.1275
  0
LINE
  8
0
 10
65.3487
 20
36.1275
 11
71.8025
 21
38.5714
  0
LINE
  8
0
 10
71.8025
 20
38.5714
 11
79.2115
 21
40.9274
  0
LINE
  8
0
 10
79.2115
 20
40.9274
 11
81.0805
 21
44.0257
  0
LINE
  8
0
 10
81.0805
 20
44.0257
 11
82.8505
 21
46.684
  0
LINE
  8
0
 10
82.8505
 20
46.684
 11
84.5902
 21
48.9563
  0
LINE
  8
0
 10
84.5902
 20
48.9563
 11
86.3685
 21
50.8967
  0
LINE
  8
0
 10
86.3685
 20
50.8967
 11
88.254
 21
52.559
  0
LINE
  8
0
 10
88.254
 20
52.559
 11
90.3155
 21
53.9974
  0
LINE
  8
0
 10
90.3155
 20
53.9974
 11
92.6217
 21
55.2657
  0
LINE
  8
0
 10
92.6217
 20
55.2657
 11
95.2413
 21
56.418
  0
LINE
  8
0
 10
95.2413
 20
56.418
 11
98.2431
 21
57.5084
  0
LINE
  8
0
 10
98.2431
 20
57.5084
 11
101.696
 21
58.5907
  0
LINE
  8
0
 10
101.696
 20
58.5907
 11
143.98
 21
71.1158
  0
LINE
  8
0
 10
143.98
 20
71.1158
 11
126.044
 21
131.665
  0
LINE
  8
0
 10
126.044
 20
131.665
 11
113.12
 21
132.578
  0
LINE
  8
0
 10
113.12
 20
132.578
 11
100.613
 21
132.766
  0
LINE
  8
0
 10
100.613
 20
132.766
 11
88.4587
 21
132.217
  0
LINE
  8
0
 10
88.4587
 20
132.217
 11
76.5951
 21
130.917
  0
LINE
  8
0
 10
76.5951
 20
130.917
 11
64.9593
 21
128.853
  0
LINE
  8
0
 10
64.9593
 20
128.853
 11
53.4885
 21
126.012
  0
LINE
  8
0
 10
53.4885
 20
126.012
 11
42.12
 21
122.38
  0
LINE
  8
0
 10
42.12
 20
122.38
 11
30.7909
 21
117.944
  0
LINE
  8
0
 10
30.7909
 20
117.944
 11
19.4385
 21
112.691
  0
LINE
  8
0
 10
19.4385
 20
112.691
 11
8
 21
106.607
  0
LINE
  8
0
 10
8
 20
106.607
 11
-8
 21
106.607
  0
LINE
  8
0
 10
-8
 20
106.607
 11
-19.4385
 21
112.691
  0
LINE
  8
0
 10
-105.061
 20
126.053
 11
-105.061
 21
127.053
  0
LINE
  8
0
 10
-105.061
 20
127.053
 11
-104.061
 21
127.053
  0
LINE
  8
0
 10
-104.061
 20
127.053
 11
-104.061
 21
126.053
  0
LINE
  8
0
 10
-104.061
 20
126.053
 11
-105.061
 21
126.053
  0
LINE
  8
0
 10
104.061
 20
126.053
 11
104.061
 21
127.053
  0
LINE
  8
0
 10
104.061
 20
127.053
 11
105.061
 21
127.053
  0
LINE
  8
0
 10
105.061
 20
127.053
 11
105.061
 21
126.053
  0
LINE
  8
0
 10
105.061
 20
126.053
 11
104.061
 21
126.053
  0
LINE
  8
0
 10
-118.092
 20
115.599
 11
-118.092
 21
116.599
  0
LINE
  8
0
 10
-118.092
 20
116.599
 11
-117.092
 21
116.599
  0
LINE
  8
0
 10
-117.092
 20
116.599
 11
-117.092
 21
115.599
  0
LINE
  8
0
 10
-117.092
 20
115.599
 11
-118.092
 21
115.599
  0
LINE
  8
0
 10
117.092
 20
115.599
 11
117.092
 21
116.599
  0
LINE
  8
0
 10
117.092
 20
116.599
 11
118.092
 21
116.599
  0
LINE
  8
0
 10
118.092
 20
116.599
 11
118.092
 21
115.599
  0
LINE
  8
0
 10
118.092
 20
115.599
 11
117.092
 21
115.599
  0
LINE
  8
0
 10
77.8631
 20
113.887
 11
77.8631
 21
114.887
  0
LINE
  8
0
 10
77.8631
 20
114.887
 11
78.8631
 21
114.887
  0
LINE
  8
0
 10
78.8631
 20
114.887
 11
78.8631
 21
113.887
  0
LINE
  8
0
 10
78.8631
 20
113.887
 11
77.8631
 21
113.887
  0
LINE
  8
0
 10
-78.8631
 20
113.887
 11
-78.8631
 21
114.887
  0
LINE
  8
0
 10
-78.8631
 20
114.887
 11
-77.8631
 21
114.887
  0
LINE
  8
0
 10
-77.8631
 20
114.887
 11
-77.8631
 21
113.887
  0
LINE
  8
0
 10
-77.8631
 20
113.887
 11
-78.8631
 21
113.887
  0
LINE
  8
0
 10
-59.3195
 20
112.791
 11
-59.3195
 21
113.791
  0
LINE
  8
0
 10
-59.3195
 20
113.791
 11
-58.3195
 21
113.791
  0
LINE
  8
0
 10
-58.3195
 20
113.791
 11
-58.3195
 21
112.791
  0
LINE
  8
0
 10
-58.3195
 20
112.791
 11
-59.3195
 21
112.791
  0
LINE
  8
0
 10
58.3195
 20
112.791
 11
58.3195
 21
113.791
  0
LINE
  8
0
 10
58.3195
 20
113.791
 11
59.3195
 21
113.791
  0
LINE
  8
0
 10
59.3195
 20
113.791
 11
59.3195
 21
112.791
  0
LINE
  8
0
 10
59.3195
 20
112.791
 11
58.3195
 21
112.791
  0
LINE
  8
0
 10
-99.8267
 20
110.188
 11
-99.8267
 21
111.188
  0
LINE
  8
0
 10
-99.8267
 20
111.188
 11
-98.8267
 21
111.188
  0
LINE
  8
0
 10
-98.8267
 20
111.188
 11
-98.8267
 21
110.188
  0
LINE
  8
0
 10
-98.8267
 20
110.188
 11
-99.8267
 21
110.188
  0
LINE
  8
0
 10
98.8267
 20
110.188
 11
98.8267
 21
111.188
  0
LINE
  8
0
 10
98.8267
 20
111.188
 11
99.8267
 21
111.188
  0
LINE
  8
0
 10
99.8267
 20
111.188
 11
99.8267
 21
110.188
  0
LINE
  8
0
 10
99.8267
 20
110.188
 11
98.8267
 21
110.188
  0
LINE
  8
0
 10
-26.1262
 20
109.451
 11
-26.1262
 21
110.451
  0
LINE
  8
0
 10
-26.1262
 20
110.451
 11
-25.1262
 21
110.451
  0
LINE
  8
0
 10
-25.1262
 20
110.451
 11
-25.1262
 21
109.451
  0
LINE
  8
0
 10
-25.1262
 20
109.451
 11
-26.1262
 21
109.451
  0
LINE
  8
0
 10
25.1262
 20
109.451
 11
25.1262
 21
110.451
  0
LINE
  8
0
 10
25.1262
 20
110.451
 11
26.1262
 21
110.451
  0
LINE
  8
0
 10
26.1262
 20
110.451
 11
26.1262
 21
109.451
  0
LINE
  8
0
 10
26.1262
 20
109.451
 11
25.1262
 21
109.451
  0
LINE
  8
0
 10
-42.616
 20
102.107
 11
-42.616
 21
103.107
  0
LINE
  8
0
 10
-42.616
 20
103.107
 11
-41.616
 21
103.107
  0
LINE
  8
0
 10
-41.616
 20
103.107
 11
-41.616
 21
102.107
  0
LINE
  8
0
 10
-41.616
 20
102.107
 11
-42.616
 21
102.107
  0
LINE
  8
0
 10
41.616
 20
102.107
 11
41.616
 21
103.107
  0
LINE
  8
0
 10
41.616
 20
103.107
 11
42.616
 21
103.107
  0
LINE
  8
0
 10
42.616
 20
103.107
 11
42.616
 21
102.107
  0
LINE
  8
0
 10
42.616
 20
102.107
 11
41.616
 21
102.107
  0
LINE
  8
0
 10
-123.503
 20
97.3332
 11
-123.503
 21
98.3332
  0
LINE
  8
0
 10
-123.503
 20
98.3332
 11
-122.503
 21
98.3332
  0
LINE
  8
0
 10
-122.503
 20
98.3332
 11
-122.503
 21
97.3332
  0
LINE
  8
0
 10
-122.503
 20
97.3332
 11
-123.503
 21
97.3332
  0
LINE
  8
0
 10
122.503
 20
97.3332
 11
122.503
 21
98.3332
  0
LINE
  8
0
 10
122.503
 20
98.3332
 11
123.503
 21
98.3332
  0
LINE
  8
0
 10
123.503
 20
98.3332
 11
123.503
 21
97.3332
  0
LINE
  8
0
 10
123.503
 20
97.3332
 11
122.503
 21
97.3332
  0
LINE
  8
0
 10
83.2735
 20
95.621
 11
83.2735
 21
96.621
  0
LINE
  8
0
 10
83.2735
 20
96.621
 11
84.2735
 21
96.621
  0
LINE
  8
0
 10
84.2735
 20
96.621
 11
84.2735
 21
95.621
  0
LINE
  8
0
 10
84.2735
 20
95.621
 11
83.2735
 21
95.621
  0
LINE
  8
0
 10
-84.2735
 20
95.621
 11
-84.2735
 21
96.621
  0
LINE
  8
0
 10
-84.2735
 20
96.621
 11
-83.2735
 21
96.621
  0
LINE
  8
0
 10
-83.2735
 20
96.621
 11
-83.2735
 21
95.621
  0
LINE
  8
0
 10
-83.2735
 20
95.621
 11
-84.2735
 21
95.621
  0
LINE
  8
0
 10
23.9185
 20
94.7786
 11
23.9185
 21
95.7786
  0
LINE
  8
0
 10
23.9185
 20
95.7786
 11
24.9185
 21
95.7786
  0
LINE
  8
0
 10
24.9185
 20
95.7786
 11
24.9185
 21
94.7786
  0
LINE
  8
0
 10
24.9185
 20
94.7786
 11
23.9185
 21
94.7786
  0
LINE
  8
0
 10
-24.9185
 20
94.7786
 11
-24.9185
 21
95.7786
  0
LINE
  8
0
 10
-24.9185
 20
95.7786
 11
-23.9185
 21
95.7786
  0
LINE
  8
0
 10
-23.9185
 20
95.7786
 11
-23.9185
 21
94.7786
  0
LINE
  8
0
 10
-23.9185
 20
94.7786
 11
-24.9185
 21
94.7786
  0
LINE
  8
0
 10
63.73
 20
94.5252
 11
63.73
 21
95.5252
  0
LINE
  8
0
 10
63.73
 20
95.5252
 11
64.73
 21
95.5252
  0
LINE
  8
0
 10
64.73
 20
95.5252
 11
64.73
 21
94.5252
  0
LINE
  8
0
 10
64.73
 20
94.5252
 11
63.73
 21
94.5252
  0
LINE
  8
0
 10
-64.73
 20
94.5252
 11
-64.73
 21
95.5252
  0
LINE
  8
0
 10
-64.73
 20
95.5252
 11
-63.73
 21
95.5252
  0
LINE
  8
0
 10
-63.73
 20
95.5252
 11
-63.73
 21
94.5252
  0
LINE
  8
0
 10
-63.73
 20
94.5252
 11
-64.73
 21
94.5252
  0
LINE
  8
0
 10
-105.237
 20
91.9227
 11
-105.237
 21
92.9227
  0
LINE
  8
0
 10
-105.237
 20
92.9227
 11
-104.237
 21
92.9227
  0
LINE
  8
0
 10
-104.237
 20
92.9227
 11
-104.237
 21
91.9227
  0
LINE
  8
0
 10
-104.237
 20
91.9227
 11
-105.237
 21
91.9227
  0
LINE
  8
0
 10
104.237
 20
91.9227
 11
104.237
 21
92.9227
  0
LINE
  8
0
 10
104.237
 20
92.9227
 11
105.237
 21
92.9227
  0
LINE
  8
0
 10
105.237
 20
92.9227
 11
105.237
 21
91.9227
  0
LINE
  8
0
 10
105.237
 20
91.9227
 11
104.237
 21
91.9227
  0
LINE
  8
0
 10
47.0265
 20
83.8412
 11
47.0265
 21
84.8412
  0
LINE
  8
0
 10
47.0265
 20
84.8412
 11
48.0265
 21
84.8412
  0
LINE
  8
0
 10
48.0265
 20
84.8412
 11
48.0265
 21
83.8412
  0
LINE
  8
0
 10
48.0265
 20
83.8412
 11
47.0265
 21
83.8412
  0
LINE
  8
0
 10
-48.0265
 20
83.8412
 11
-48.0265
 21
84.8412
  0
LINE
  8
0
 10
-48.0265
 20
84.8412
 11
-47.0265
 21
84.8412
  0
LINE
  8
0
 10
-47.0265
 20
84.8412
 11
-47.0265
 21
83.8412
  0
LINE
  8
0
 10
-47.0265
 20
83.8412
 11
-48.0265
 21
83.8412
  0
LINE
  8
0
 10
127.913
 20
79.0677
 11
127.913
 21
80.0677
  0
LINE
  8
0
 10
127.913
 20
80.0677
 11
128.913
 21
80.0677
  0
LINE
  8
0
 10
128.913
 20
80.0677
 11
128.913
 21
79.0677
  0
LINE
  8
0
 10
128.913
 20
79.0677
 11
127.913
 21
79.0677
  0
LINE
  8
0
 10
-128.913
 20
79.0677
 11
-128.913
 21
80.0677
  0
LINE
  8
0
 10
-128.913
 20
80.0677
 11
-127.913
 21
80.0677
  0
LINE
  8
0
 10
-127.913
 20
80.0677
 11
-127.913
 21
79.0677
  0
LINE
  8
0
 10
-127.913
 20
79.0677
 11
-128.913
 21
79.0677
  0
LINE
  8
0
 10
88.684
 20
77.3555
 11
88.684
 21
78.3555
  0
LINE
  8
0
 10
88.684
 20
78.3555
 11
89.684
 21
78.3555
  0
LINE
  8
0
 10
89.684
 20
78.3555
 11
89.684
 21
77.3555
  0
LINE
  8
0
 10
89.684
 20
77.3555
 11
88.684
 21
77.3555
  0
LINE
  8
0
 10
-89.684
 20
77.3555
 11
-89.684
 21
78.3555
  0
LINE
  8
0
 10
-89.684
 20
78.3555
 11
-88.684
 21
78.3555
  0
LINE
  8
0
 10
-88.684
 20
78.3555
 11
-88.684
 21
77.3555
  0
LINE
  8
0
 10
-88.684
 20
77.3555
 11
-89.684
 21
77.3555
  0
LINE
  8
0
 10
-30.329
 20
76.5131
 11
-30.329
 21
77.5131
  0
LINE
  8
0
 10
-30.329
 20
77.5131
 11
-29.329
 21
77.5131
  0
LINE
  8
0
 10
-29.329
 20
77.5131
 11
-29.329
 21
76.5131
  0
LINE
  8
0
 10
-29.329
 20
76.5131
 11
-30.329
 21
76.5131
  0
LINE
  8
0
 10
29.329
 20
76.5131
 11
29.329
 21
77.5131
  0
LINE
  8
0
 10
29.329
 20
77.5131
 11
30.329
 21
77.5131
  0
LINE
  8
0
 10
30.329
 20
77.5131
 11
30.329
 21
76.5131
  0
LINE
  8
0
 10
30.329
 20
76.5131
 11
29.329
 21
76.5131
  0
LINE
  8
0
 10
-70.1405
 20
76.2597
 11
-70.1405
 21
77.2597
  0
LINE
  8
0
 10
-70.1405
 20
77.2597
 11
-69.1405
 21
77.2597
  0
LINE
  8
0
 10
-69.1405
 20
77.2597
 11
-69.1405
 21
76.2597
  0
LINE
  8
0
 10
-69.1405
 20
76.2597
 11
-70.1405
 21
76.2597
  0
LINE
  8
0
 10
69.1405
 20
76.2597
 11
69.1405
 21
77.2597
  0
LINE
  8
0
 10
69.1405
 20
77.2597
 11
70.1405
 21
77.2597
  0
LINE
  8
0
 10
70.1405
 20
77.2597
 11
70.1405
 21
76.2597
  0
LINE
  8
0
 10
70.1405
 20
76.2597
 11
69.1405
 21
76.2597
  0
LINE
  8
0
 10
-110.648
 20
73.6572
 11
-110.648
 21
74.6572
  0
LINE
  8
0
 10
-110.648
 20
74.6572
 11
-109.648
 21
74.6572
  0
LINE
  8
0
 10
-109.648
 20
74.6572
 11
-109.648
 21
73.6572
  0
LINE
  8
0
 10
-109.648
 20
73.6572
 11
-110.648
 21
73.6572
  0
LINE
  8
0
 10
109.648
 20
73.6572
 11
109.648
 21
74.6572
  0
LINE
  8
0
 10
109.648
 20
74.6572
 11
110.648
 21
74.6572
  0
LINE
  8
0
 10
110.648
 20
74.6572
 11
110.648
 21
73.6572
  0
LINE
  8
0
 10
110.648
 20
73.6572
 11
109.648
 21
73.6572
  0
LINE
  8
0
 10
7
 20
68.607
 11
6.99998
 21
69.607
  0
LINE
  8
0
 10
6.99998
 20
69.607
 11
8
 21
69.607
  0
LINE
  8
0
 10
8
 20
69.607
 11
8
 21
68.607
  0
LINE
  8
0
 10
8
 20
68.607
 11
7
 21
68.607
  0
LINE
  8
0
 10
-8
 20
68.607
 11
-8
 21
69.607
  0
LINE
  8
0
 10
-8
 20
69.607
 11
-6.99998
 21
69.607
  0
LINE
  8
0
 10
-6.99998
 20
69.607
 11
-7
 21
68.607
  0
LINE
  8
0
 10
-7
 20
68.607
 11
-8
 21
68.607
  0
LINE
  8
0
 10
-98.6879
 20
65.7081
 11
-98.6879
 21
66.7081
  0
LINE
  8
0
 10
-98.6879
 20
66.7081
 11
-97.6879
 21
66.7081
  0
LINE
  8
0
 10
-97.6879
 20
66.7081
 11
-97.6879
 21
65.7081
  0
LINE
  8
0
 10
-97.6879
 20
65.7081
 11
-98.6879
 21
65.7081
  0
LINE
  8
0
 10
97.6879
 20
65.7081
 11
97.6879
 21
66.7081
  0
LINE
  8
0
 10
97.6879
 20
66.7081
 11
98.6879
 21
66.7081
  0
LINE
  8
0
 10
98.6879
 20
66.7081
 11
98.6879
 21
65.7081
  0
LINE
  8
0
 10
98.6879
 20
65.7081
 11
97.6879
 21
65.7081
  0
LINE
  8
0
 10
-53.437
 20
65.5757
 11
-53.437
 21
66.5757
  0
LINE
  8
0
 10
-53.437
 20
66.5757
 11
-52.437
 21
66.5757
  0
LINE
  8
0
 10
-52.437
 20
66.5757
 11
-52.437
 21
65.5757
  0
LINE
  8
0
 10
-52.437
 20
65.5757
 11
-53.437
 21
65.5757
  0
LINE
  8
0
 10
52.437
 20
65.5757
 11
52.437
 21
66.5757
  0
LINE
  8
0
 10
52.437
 20
66.5757
 11
53.437
 21
66.5757
  0
LINE
  8
0
 10
53.437
 20
66.5757
 11
53.437
 21
65.5757
  0
LINE
  8
0
 10
53.437
 20
65.5757
 11
52.437
 21
65.5757
  0
LINE
  8
0
 10
34.7395
 20
58.2476
 11
34.7395
 21
59.2476
  0
LINE
  8
0
 10
34.7395
 20
59.2476
 11
35.7395
 21
59.2476
  0
LINE
  8
0
 10
35.7395
 20
59.2476
 11
35.7395
 21
58.2476
  0
LINE
  8
0
 10
35.7395
 20
58.2476
 11
34.7395
 21
58.2476
  0
LINE
  8
0
 10
-35.7395
 20
58.2476
 11
-35.7395
 21
59.2476
  0
LINE
  8
0
 10
-35.7395
 20
59.2476
 11
-34.7395
 21
59.2476
  0
LINE
  8
0
 10
-34.7395
 20
59.2476
 11
-34.7395
 21
58.2476
  0
LINE
  8
0
 10
-34.7395
 20
58.2476
 11
-35.7395
 21
58.2476
  0
LINE
  8
0
 10
63.145
 20
48.8793
 11
63.145
 21
49.8793
  0
LINE
  8
0
 10
63.145
 20
49.8793
 11
64.145
 21
49.8793
  0
LINE
  8
0
 10
64.145
 20
49.8793
 11
64.145
 21
48.8793
  0
LINE
  8
0
 10
64.145
 20
48.8793
 11
63.145
 21
48.8793
  0
LINE
  8
0
 10
-64.145
 20
48.8793
 11
-64.145
 21
49.8793
  0
LINE
  8
0
 10
-64.145
 20
49.8793
 11
-63.145
 21
49.8793
  0
LINE
  8
0
 10
-63.145
 20
49.8793
 11
-63.145
 21
48.8793
  0
LINE
  8
0
 10
-63.145
 20
48.8793
 11
-64.145
 21
48.8793
  0
LINE
  8
0
 10
41.4888
 20
36.2858
 11
41.4888
 21
37.2858
  0
LINE
  8
0
 10
41.4888
 20
37.2858
 11
42.4888
 21
37.2858
  0
LINE
  8
0
 10
42.4888
 20
37.2858
 11
42.4888
 21
36.2858
  0
LINE
  8
0
 10
42.4888
 20
36.2858
 11
41.4888
 21
36.2858
  0
LINE
  8
0
 10
-42.4888
 20
36.2858
 11
-42.4888
 21
37.2858
  0
LINE
  8
0
 10
-42.4888
 20
37.2858
 11
-41.4888
 21
37.2858
  0
LINE
  8
0
 10
-41.4888
 20
37.2858
 11
-41.4888
 21
36.2858
  0
LINE
  8
0
 10
-41.4888
 20
36.2858
 11
-42.4888
 21
36.2858
  0
LINE
  8
0
 10
-24.1212
 20
32.7533
 11
-24.1212
 21
33.7533
  0
LINE
  8
0
 10
-24.1212
 20
33.7533
 11
-23.1212
 21
33.7533
  0
LINE
  8
0
 10
-23.1212
 20
33.7533
 11
-23.1212
 21
32.7533
  0
LINE
  8
0
 10
-23.1212
 20
32.7533
 11
-24.1212
 21
32.7533
  0
LINE
  8
0
 10
23.1212
 20
32.7533
 11
23.1212
 21
33.7533
  0
LINE
  8
0
 10
23.1212
 20
33.7533
 11
24.1212
 21
33.7533
  0
LINE
  8
0
 10
24.1212
 20
33.7533
 11
24.1212
 21
32.7533
  0
LINE
  8
0
 10
24.1212
 20
32.7533
 11
23.1212
 21
32.7533
  0
LINE
  8
0
 10
-27.3499
 20
16.3258
 11
-27.3499
 21
17.3258
  0
LINE
  8
0
 10
-27.3499
 20
17.3258
 11
-26.3499
 21
17.3258
  0
LINE
  8
0
 10
-26.3499
 20
17.3258
 11
-26.3499
 21
16.3258
  0
LINE
  8
0
 10
-26.3499
 20
16.3258
 11
-27.3499
 21
16.3258
  0
LINE
  8
0
 10
26.3499
 20
16.3258
 11
26.3499
 21
17.3258
  0
LINE
  8
0
 10
26.3499
 20
17.3258
 11
27.3499
 21
17.3258
  0
LINE
  8
0
 10
27.3499
 20
17.3258
 11
27.3499
 21
16.3258
  0
LINE
  8
0
 10
27.3499
 20
16.3258
 11
26.3499
 21
16.3258
  0
ENDSEC
  0
SECTION
  2
OBJECTS
  0
DICTIONARY
  0
ENDSEC
  0
EOF
