  0
SECTION
  2
HEADER
  9
$ACADVER
  1
AC1014
  9
$HANDSEED
  5
FFFF
  9
$MEASUREMENT
 70
     1
  0
ENDSEC
  0
SECTION
  2
TABLES
  0
TABLE
  2
VPORT
  5
8
330
0
100
AcDbSymbolTable
 70
     4
  0
VPORT
  5
2E
330
8
100
AcDbSymbolTableRecord
100
AcDbViewportTableRecord
  2
*ACTIVE
 70
     0
 10
0.0
 20
0.0
 11
1.0
 21
1.0
 12
210.0
 22
148.5
 13
0.0
 23
0.0
 14
10.0
 24
10.0
 15
10.0
 25
10.0
 16
0.0
 26
0.0
 36
1.0
 17
0.0
 27
0.0
 37
0.0
 40
341.0
 41
1.24
 42
50.0
 43
0.0
 44
0.0
 50
0.0
 51
0.0
 71
     0
 72
   100
 73
     1
 74
     3
 75
     0
 76
     0
 77
     0
 78
     0
  0
ENDTAB
  0
TABLE
  2
LTYPE
  5
5
330
0
100
AcDbSymbolTable
 70
     1
  0
LTYPE
  5
14
330
5
100
AcDbSymbolTableRecord
100
AcDbLinetypeTableRecord
  2
BYBLOCK
 70
     0
  3

 72
    65
 73
     0
 40
0.0
  0
LTYPE
  5
15
330
5
100
AcDbSymbolTableRecord
100
AcDbLinetypeTableRecord
  2
BYLAYER
 70
     0
  3

 72
    65
 73
     0
 40
0.0
  0
LTYPE
  5
16
330
5
100
AcDbSymbolTableRecord
100
AcDbLinetypeTableRecord
  2
CONTINUOUS
 70
     0
  3
Solid line
 72
    65
 73
     0
 40
0.0
  0
ENDTAB
  0
TABLE
  2
LAYER
  5
2
100
AcDbSymbolTable
 70
2
  0
LAYER
  5
50
100
AcDbSymbolTableRecord
100
AcDbLayerTableRecord
  2
0
 70
0
  6
CONTINUOUS
  0
LAYER
  5
51
100
AcDbSymbolTableRecord
100
AcDbLayerTableRecord
  2
LAYER1
 70
0
  6
CONTINUOUS
  0
ENDTAB
  0
TABLE
  2
STYLE
  5
3
330
0
100
AcDbSymbolTable
 70
     1
  0
STYLE
  5
11
330
3
100
AcDbSymbolTableRecord
100
AcDbTextStyleTableRecord
  2
STANDARD
 70
     0
 40
0.0
 41
1.0
 50
0.0
 71
     0
 42
2.5
  3
txt
  4

  0
ENDTAB
  0
TABLE
  2
VIEW
  5
6
330
0
100
AcDbSymbolTable
 70
     0
  0
ENDTAB
  0
TABLE
  2
UCS
  5
7
330
0
100
AcDbSymbolTable
 70
     0
  0
ENDTAB
  0
TABLE
  2
APPID
  5
9
330
0
100
AcDbSymbolTable
 70
     2
  0
APPID
  5
12
330
9
100
AcDbSymbolTableRecord
100
AcDbRegAppTableRecord
  2
ACAD
 70
     0
  0
ENDTAB
  0
TABLE
  2
DIMSTYLE
  5
A
330
0
100
AcDbSymbolTable
 70
     1
  0
DIMSTYLE
105
27
330
A
100
AcDbSymbolTableRecord
100
AcDbDimStyleTableRecord
  2
ISO-25
 70
     0
  3

  4

  5

  6

  7

 40
1.0
 41
2.5
 42
0.625
 43
3.75
 44
1.25
 45
0.0
 46
0.0
 47
0.0
 48
0.0
140
2.5
141
2.5
142
0.0
143
0.03937007874016
144
1.0
145
0.0
146
1.0
147
0.625
 71
     0
 72
     0
 73
     0
 74
     0
 75
     0
 76
     0
 77
     1
 78
     8
170
     0
171
     3
172
     1
173
     0
174
     0
175
     0
176
     0
177
     0
178
     0
270
     2
271
     2
272
     2
273
     2
274
     3
340
11
275
     0
280
     0
281
     0
282
     0
283
     0
284
     8
285
     0
286
     0
287
     3
288
     0
  0
ENDTAB
  0
TABLE
  2
BLOCK_RECORD
  5
1
330
0
100
AcDbSymbolTable
 70
     1
  0
BLOCK_RECORD
  5
1F
330
1
100
AcDbSymbolTableRecord
100
AcDbBlockTableRecord
  2
*MODEL_SPACE
  0
BLOCK_RECORD
  5
1B
330
1
100
AcDbSymbolTableRecord
100
AcDbBlockTableRecord
  2
*PAPER_SPACE
  0
ENDTAB
  0
ENDSEC
  0
SECTION
  2
BLOCKS
  0
BLOCK
  5
20
330
1F
100
AcDbEntity
  8
0
100
AcDbBlockBegin
  2
*MODEL_SPACE
 70
     0
 10
0.0
 20
0.0
 30
0.0
  3
*MODEL_SPACE
  1

  0
ENDBLK
  5
21
330
1F
100
AcDbEntity
  8
0
100
AcDbBlockEnd
  0
BLOCK
  5
1C
330
1B
100
AcDbEntity
 67
     1
  8
0
100
AcDbBlockBegin
  2
*PAPER_SPACE
  1

  0
ENDBLK
  5
1D
330
1B
100
AcDbEntity
 67
     1
  8
0
100
AcDbBlockEnd
  0
ENDSEC
  0
SECTION
  2
ENTITIES
  0
SPLINE
  5
100
100
AcDbEntity
  8
LAYER1
 62
7
100
AcDbSpline
 70
8
 71
3
 72
8
 73
4
 74
0
 40
0
 40
0
 40
0
 40
0
 40
1
 40
1
 40
1
 40
1
 10
19.243281
 20
131.731264
 30
0.0
 10
18.642423
 20
131.680932
 30
0.0
 10
18.133999
 20
131.267098
 30
0.0
 10
17.962744
 20
130.688967
 30
0.0
  0
LWPOLYLINE
  5
101
100
AcDbEntity
  8
LAYER1
 62
7
100
AcDbPolyline
 90
20
 70
0
 10
130.557203
 20
109.736723
 30
0.0
 10
124.852587
 20
112.673732
 30
0.0
 10
119.169569
 20
115.403740
 30
0.0
 10
113.500152
 20
117.926748
 30
0.0
 10
107.836535
 20
120.246755
 30
0.0
 10
102.171018
 20
122.362760
 30
0.0
 10
96.495601
 20
124.278766
 30
0.0
 10
90.802484
 20
125.994771
 30
0.0
 10
85.083768
 20
127.513776
 30
0.0
 10
79.331651
 20
128.835779
 30
0.0
 10
73.538233
 20
129.964783
 30
0.0
 10
67.695816
 20
130.899786
 30
0.0
 10
61.796398
 20
131.644788
 30
0.0
 10
55.832180
 20
132.199790
 30
0.0
 10
49.795262
 20
132.566791
 30
0.0
 10
43.677844
 20
132.748791
 30
0.0
 10
37.471826
 20
132.745791
 30
0.0
 10
31.170807
 20
132.560791
 30
0.0
 10
24.764787
 20
132.193790
 30
0.0
 10
19.243281
 20
131.731264
 30
0.0
  0
SPLINE
  5
102
100
AcDbEntity
  8
LAYER1
 62
7
100
AcDbSpline
 70
8
 71
3
 72
8
 73
4
 74
0
 40
0
 40
0
 40
0
 40
0
 40
1
 40
1
 40
1
 40
1
 10
0.594736
 20
72.057229
 30
0.0
 10
0.519408
 20
71.802934
 30
0.0
 10
0.548184
 20
71.529131
 30
0.0
 10
0.674734
 20
71.296054
 30
0.0
  0
SPLINE
  5
103
100
AcDbEntity
  8
LAYER1
 62
7
100
AcDbSpline
 70
8
 71
3
 72
8
 73
4
 74
0
 40
0
 40
0
 40
0
 40
0
 40
1
 40
1
 40
1
 40
1
 10
0.674734
 20
71.296054
 30
0.0
 10
0.801283
 20
71.062976
 30
0.0
 10
1.015240
 20
70.889717
 30
0.0
 10
1.269535
 20
70.814391
 30
0.0
  0
LWPOLYLINE
  5
104
100
AcDbEntity
  8
LAYER1
 62
7
100
AcDbPolyline
 90
2
 70
0
 10
17.962744
 20
130.688967
 30
0.0
 10
0.594736
 20
72.057229
 30
0.0
  0
SPLINE
  5
105
100
AcDbEntity
  8
LAYER1
 62
7
100
AcDbSpline
 70
8
 71
3
 72
8
 73
4
 74
0
 40
0
 40
0
 40
0
 40
0
 40
1
 40
1
 40
1
 40
1
 10
64.570195
 20
41.770561
 30
0.0
 10
64.897806
 20
41.216851
 30
0.0
 10
65.420400
 20
40.805455
 30
0.0
 10
66.035551
 20
40.617005
 30
0.0
  0
LWPOLYLINE
  5
106
100
AcDbEntity
  8
LAYER1
 62
7
100
AcDbPolyline
 90
22
 70
0
 10
1.269535
 20
70.814391
 30
0.0
 10
42.594841
 20
58.573270
 30
0.0
 10
44.382047
 20
58.029669
 30
0.0
 10
46.047751
 20
57.490967
 30
0.0
 10
47.600755
 20
56.950165
 30
0.0
 10
49.049560
 20
56.400564
 30
0.0
 10
50.402864
 20
55.835562
 30
0.0
 10
51.669167
 20
55.248260
 30
0.0
 10
52.857171
 20
54.631958
 30
0.0
 10
53.975374
 20
53.979956
 30
0.0
 10
55.032378
 20
53.285354
 30
0.0
 10
56.036881
 20
52.541552
 30
0.0
 10
56.997283
 20
51.741749
 30
0.0
 10
57.922386
 20
50.879247
 30
0.0
 10
58.820589
 20
49.947144
 30
0.0
 10
59.700692
 20
48.938841
 30
0.0
 10
60.571094
 20
47.847537
 30
0.0
 10
61.440397
 20
46.666534
 30
0.0
 10
62.317399
 20
45.389030
 30
0.0
 10
63.210402
 20
44.008226
 30
0.0
 10
64.128305
 20
42.517422
 30
0.0
 10
64.570195
 20
41.770561
 30
0.0
  0
SPLINE
  5
107
100
AcDbEntity
  8
LAYER1
 62
7
100
AcDbSpline
 70
8
 71
3
 72
8
 73
4
 74
0
 40
0
 40
0
 40
0
 40
0
 40
1
 40
1
 40
1
 40
1
 10
110.542090
 20
1.241006
 30
0.0
 10
110.767720
 20
0.735005
 30
0.0
 10
111.358602
 20
0.504899
 30
0.0
 10
111.867012
 20
0.725044
 30
0.0
  0
LWPOLYLINE
  5
108
100
AcDbEntity
  8
LAYER1
 62
7
100
AcDbPolyline
 90
21
 70
0
 10
66.035551
 20
40.617005
 30
0.0
 10
68.911019
 20
39.736114
 30
0.0
 10
72.488430
 20
38.553910
 30
0.0
 10
75.827040
 20
37.349706
 30
0.0
 10
78.942249
 20
36.110003
 30
0.0
 10
81.849358
 20
34.820899
 30
0.0
 10
84.563866
 20
33.469095
 30
0.0
 10
87.101073
 20
32.040791
 30
0.0
 10
89.476380
 20
30.522486
 30
0.0
 10
91.705187
 20
28.900581
 30
0.0
 10
93.802793
 20
27.161376
 30
0.0
 10
95.784599
 20
25.291370
 30
0.0
 10
97.666105
 20
23.276865
 30
0.0
 10
99.462510
 20
21.104258
 30
0.0
 10
101.189415
 20
18.760051
 30
0.0
 10
102.861920
 20
16.230544
 30
0.0
 10
104.495625
 20
13.502136
 30
0.0
 10
106.105830
 20
10.561327
 30
0.0
 10
107.707935
 20
7.394327
 30
0.0
 10
109.317340
 20
3.987657
 30
0.0
 10
110.542090
 20
1.241006
 30
0.0
  0
SPLINE
  5
109
100
AcDbEntity
  8
LAYER1
 62
7
100
AcDbSpline
 70
8
 71
3
 72
8
 73
4
 74
0
 40
0
 40
0
 40
0
 40
0
 40
1
 40
1
 40
1
 40
1
 10
176.715281
 20
0.725044
 30
0.0
 10
177.223690
 20
0.504904
 30
0.0
 10
177.814566
 20
0.735009
 30
0.0
 10
178.040195
 20
1.241006
 30
0.0
  0
LWPOLYLINE
  5
10a
100
AcDbEntity
  8
LAYER1
 62
7
100
AcDbPolyline
 90
41
 70
0
 10
111.867012
 20
0.725044
 30
0.0
 10
113.037051
 20
1.231680
 30
0.0
 10
115.030757
 20
2.085081
 30
0.0
 10
116.938563
 20
2.888334
 30
0.0
 10
118.768868
 20
3.641906
 30
0.0
 10
120.529974
 20
4.346258
 30
0.0
 10
122.230079
 20
5.001820
 30
0.0
 10
123.877784
 20
5.609102
 30
0.0
 10
125.481088
 20
6.168524
 30
0.0
 10
127.048392
 20
6.680555
 30
0.0
 10
128.588097
 20
7.145656
 30
0.0
 10
130.108401
 20
7.564278
 30
0.0
 10
131.617706
 20
7.936899
 30
0.0
 10
133.124210
 20
8.263960
 30
0.0
 10
134.636365
 20
8.545931
 30
0.0
 10
136.162350
 20
8.783251
 30
0.0
 10
137.710514
 20
8.976392
 30
0.0
 10
139.289159
 20
9.125822
 30
0.0
 10
140.906614
 20
9.231993
 30
0.0
 10
142.571179
 20
9.295353
 30
0.0
 10
144.291144
 20
9.316373
 30
0.0
 10
146.011109
 20
9.295353
 30
0.0
 10
147.675674
 20
9.231993
 30
0.0
 10
149.293129
 20
9.125822
 30
0.0
 10
150.871774
 20
8.976392
 30
0.0
 10
152.419938
 20
8.783251
 30
0.0
 10
153.945923
 20
8.545931
 30
0.0
 10
155.458078
 20
8.263960
 30
0.0
 10
156.964582
 20
7.936899
 30
0.0
 10
158.473887
 20
7.564278
 30
0.0
 10
159.994191
 20
7.145656
 30
0.0
 10
161.533896
 20
6.680555
 30
0.0
 10
163.101201
 20
6.168524
 30
0.0
 10
164.704505
 20
5.609102
 30
0.0
 10
166.352210
 20
5.001820
 30
0.0
 10
168.052315
 20
4.346258
 30
0.0
 10
169.813421
 20
3.641906
 30
0.0
 10
171.643726
 20
2.888334
 30
0.0
 10
173.551532
 20
2.085081
 30
0.0
 10
175.545238
 20
1.231680
 30
0.0
 10
176.715281
 20
0.725044
 30
0.0
  0
SPLINE
  5
10b
100
AcDbEntity
  8
LAYER1
 62
7
100
AcDbSpline
 70
8
 71
3
 72
8
 73
4
 74
0
 40
0
 40
0
 40
0
 40
0
 40
1
 40
1
 40
1
 40
1
 10
222.546739
 20
40.617005
 30
0.0
 10
223.161890
 20
40.805455
 30
0.0
 10
223.684483
 20
41.216851
 30
0.0
 10
224.012094
 20
41.770561
 30
0.0
  0
LWPOLYLINE
  5
10c
100
AcDbEntity
  8
LAYER1
 62
7
100
AcDbPolyline
 90
21
 70
0
 10
178.040195
 20
1.241006
 30
0.0
 10
179.264949
 20
3.987657
 30
0.0
 10
180.874354
 20
7.394327
 30
0.0
 10
182.476459
 20
10.561327
 30
0.0
 10
184.086664
 20
13.502136
 30
0.0
 10
185.720369
 20
16.230544
 30
0.0
 10
187.392874
 20
18.760051
 30
0.0
 10
189.119779
 20
21.104258
 30
0.0
 10
190.916184
 20
23.276865
 30
0.0
 10
192.797690
 20
25.291370
 30
0.0
 10
194.779496
 20
27.161376
 30
0.0
 10
196.877102
 20
28.900581
 30
0.0
 10
199.105909
 20
30.522486
 30
0.0
 10
201.481216
 20
32.040791
 30
0.0
 10
204.018424
 20
33.469095
 30
0.0
 10
206.732932
 20
34.820899
 30
0.0
 10
209.640041
 20
36.110003
 30
0.0
 10
212.755250
 20
37.349706
 30
0.0
 10
216.093860
 20
38.553910
 30
0.0
 10
219.671271
 20
39.736114
 30
0.0
 10
222.546739
 20
40.617005
 30
0.0
  0
SPLINE
  5
10d
100
AcDbEntity
  8
LAYER1
 62
7
100
AcDbSpline
 70
8
 71
3
 72
8
 73
4
 74
0
 40
0
 40
0
 40
0
 40
0
 40
1
 40
1
 40
1
 40
1
 10
287.312754
 20
70.814391
 30
0.0
 10
287.567050
 20
70.889716
 30
0.0
 10
287.781007
 20
71.062975
 30
0.0
 10
287.907557
 20
71.296053
 30
0.0
  0
SPLINE
  5
10e
100
AcDbEntity
  8
LAYER1
 62
7
100
AcDbSpline
 70
8
 71
3
 72
8
 73
4
 74
0
 40
0
 40
0
 40
0
 40
0
 40
1
 40
1
 40
1
 40
1
 10
287.907557
 20
71.296053
 30
0.0
 10
288.034107
 20
71.529130
 30
0.0
 10
288.062884
 20
71.802934
 30
0.0
 10
287.987556
 20
72.057229
 30
0.0
  0
LWPOLYLINE
  5
10f
100
AcDbEntity
  8
LAYER1
 62
7
100
AcDbPolyline
 90
22
 70
0
 10
224.012094
 20
41.770561
 30
0.0
 10
224.453985
 20
42.517422
 30
0.0
 10
225.371888
 20
44.008226
 30
0.0
 10
226.264891
 20
45.389030
 30
0.0
 10
227.141893
 20
46.666534
 30
0.0
 10
228.011196
 20
47.847537
 30
0.0
 10
228.881598
 20
48.938841
 30
0.0
 10
229.761701
 20
49.947144
 30
0.0
 10
230.659904
 20
50.879247
 30
0.0
 10
231.585007
 20
51.741749
 30
0.0
 10
232.545409
 20
52.541552
 30
0.0
 10
233.549912
 20
53.285354
 30
0.0
 10
234.606916
 20
53.979956
 30
0.0
 10
235.725119
 20
54.631958
 30
0.0
 10
236.913123
 20
55.248260
 30
0.0
 10
238.179426
 20
55.835562
 30
0.0
 10
239.532730
 20
56.400564
 30
0.0
 10
240.981535
 20
56.950165
 30
0.0
 10
242.534539
 20
57.490967
 30
0.0
 10
244.200244
 20
58.029669
 30
0.0
 10
245.987450
 20
58.573270
 30
0.0
 10
287.312754
 20
70.814391
 30
0.0
  0
SPLINE
  5
110
100
AcDbEntity
  8
LAYER1
 62
7
100
AcDbSpline
 70
8
 71
3
 72
8
 73
4
 74
0
 40
0
 40
0
 40
0
 40
0
 40
1
 40
1
 40
1
 40
1
 10
270.619544
 20
130.688967
 30
0.0
 10
270.448290
 20
131.267097
 30
0.0
 10
269.939867
 20
131.680930
 30
0.0
 10
269.339010
 20
131.731264
 30
0.0
  0
LWPOLYLINE
  5
111
100
AcDbEntity
  8
LAYER1
 62
7
100
AcDbPolyline
 90
2
 70
0
 10
287.987556
 20
72.057229
 30
0.0
 10
270.619544
 20
130.688967
 30
0.0
  0
SPLINE
  5
112
100
AcDbEntity
  8
LAYER1
 62
7
100
AcDbSpline
 70
8
 71
3
 72
8
 73
4
 74
0
 40
0
 40
0
 40
0
 40
0
 40
1
 40
1
 40
1
 40
1
 10
153.167811
 20
107.070854
 30
0.0
 10
152.592681
 20
106.755199
 30
0.0
 10
151.947223
 20
106.589714
 30
0.0
 10
151.291165
 20
106.589714
 30
0.0
  0
LWPOLYLINE
  5
113
100
AcDbEntity
  8
LAYER1
 62
7
100
AcDbPolyline
 90
21
 70
0
 10
269.339010
 20
131.731264
 30
0.0
 10
263.817503
 20
132.193790
 30
0.0
 10
257.411484
 20
132.560791
 30
0.0
 10
251.110465
 20
132.745791
 30
0.0
 10
244.904447
 20
132.748791
 30
0.0
 10
238.787028
 20
132.566791
 30
0.0
 10
232.750110
 20
132.199790
 30
0.0
 10
226.785892
 20
131.644788
 30
0.0
 10
220.886474
 20
130.899786
 30
0.0
 10
215.044057
 20
129.964783
 30
0.0
 10
209.250639
 20
128.835779
 30
0.0
 10
203.498522
 20
127.513776
 30
0.0
 10
197.779805
 20
125.994771
 30
0.0
 10
192.086688
 20
124.278766
 30
0.0
 10
186.411271
 20
122.362760
 30
0.0
 10
180.745754
 20
120.246755
 30
0.0
 10
175.082137
 20
117.926748
 30
0.0
 10
169.412720
 20
115.403740
 30
0.0
 10
163.729702
 20
112.673732
 30
0.0
 10
158.025085
 20
109.736723
 30
0.0
 10
153.167811
 20
107.070854
 30
0.0
  0
SPLINE
  5
114
100
AcDbEntity
  8
LAYER1
 62
7
100
AcDbSpline
 70
8
 71
3
 72
8
 73
4
 74
0
 40
0
 40
0
 40
0
 40
0
 40
1
 40
1
 40
1
 40
1
 10
137.291123
 20
106.589714
 30
0.0
 10
136.635063
 20
106.589714
 30
0.0
 10
135.989603
 20
106.755198
 30
0.0
 10
135.414472
 20
107.070854
 30
0.0
  0
LWPOLYLINE
  5
115
100
AcDbEntity
  8
LAYER1
 62
7
100
AcDbPolyline
 90
2
 70
0
 10
151.291165
 20
106.589714
 30
0.0
 10
137.291123
 20
106.589714
 30
0.0
  0
LWPOLYLINE
  5
116
100
AcDbEntity
  8
LAYER1
 62
7
100
AcDbPolyline
 90
2
 70
0
 10
135.414472
 20
107.070854
 30
0.0
 10
130.557203
 20
109.736723
 30
0.0
  0
LWPOLYLINE
  5
117
100
AcDbEntity
  8
LAYER1
 62
7
100
AcDbPolyline
 90
4
 70
1
 10
39.229831
 20
126.035771
 30
0.0
 10
39.229831
 20
127.035774
 30
0.0
 10
40.229834
 20
127.035774
 30
0.0
 10
40.229834
 20
126.035771
 30
0.0
  0
LWPOLYLINE
  5
118
100
AcDbEntity
  8
LAYER1
 62
7
100
AcDbPolyline
 90
4
 70
1
 10
248.352457
 20
126.035771
 30
0.0
 10
248.352457
 20
127.035774
 30
0.0
 10
249.352460
 20
127.035774
 30
0.0
 10
249.352460
 20
126.035771
 30
0.0
  0
LWPOLYLINE
  5
119
100
AcDbEntity
  8
LAYER1
 62
7
100
AcDbPolyline
 90
4
 70
1
 10
26.198792
 20
115.581741
 30
0.0
 10
26.198792
 20
116.581744
 30
0.0
 10
27.198795
 20
116.581744
 30
0.0
 10
27.198795
 20
115.581741
 30
0.0
  0
LWPOLYLINE
  5
11a
100
AcDbEntity
  8
LAYER1
 62
7
100
AcDbPolyline
 90
4
 70
1
 10
261.383496
 20
115.581741
 30
0.0
 10
261.383496
 20
116.581744
 30
0.0
 10
262.383499
 20
116.581744
 30
0.0
 10
262.383499
 20
115.581741
 30
0.0
  0
LWPOLYLINE
  5
11b
100
AcDbEntity
  8
LAYER1
 62
7
100
AcDbPolyline
 90
4
 70
1
 10
222.154478
 20
113.869735
 30
0.0
 10
222.154478
 20
114.869738
 30
0.0
 10
223.154481
 20
114.869738
 30
0.0
 10
223.154481
 20
113.869735
 30
0.0
  0
LWPOLYLINE
  5
11c
100
AcDbEntity
  8
LAYER1
 62
7
100
AcDbPolyline
 90
4
 70
1
 10
65.427809
 20
113.869735
 30
0.0
 10
65.427809
 20
114.869738
 30
0.0
 10
66.427812
 20
114.869738
 30
0.0
 10
66.427812
 20
113.869735
 30
0.0
  0
LWPOLYLINE
  5
11d
100
AcDbEntity
  8
LAYER1
 62
7
100
AcDbPolyline
 90
4
 70
1
 10
84.971468
 20
112.773732
 30
0.0
 10
84.971468
 20
113.773735
 30
0.0
 10
85.971471
 20
113.773735
 30
0.0
 10
85.971471
 20
112.773732
 30
0.0
  0
LWPOLYLINE
  5
11e
100
AcDbEntity
  8
LAYER1
 62
7
100
AcDbPolyline
 90
4
 70
1
 10
202.610819
 20
112.773732
 30
0.0
 10
202.610819
 20
113.773735
 30
0.0
 10
203.610822
 20
113.773735
 30
0.0
 10
203.610822
 20
112.773732
 30
0.0
  0
LWPOLYLINE
  5
11f
100
AcDbEntity
  8
LAYER1
 62
7
100
AcDbPolyline
 90
4
 70
1
 10
44.464147
 20
110.170724
 30
0.0
 10
44.464147
 20
111.170727
 30
0.0
 10
45.464150
 20
111.170727
 30
0.0
 10
45.464150
 20
110.170724
 30
0.0
  0
LWPOLYLINE
  5
120
100
AcDbEntity
  8
LAYER1
 62
7
100
AcDbPolyline
 90
4
 70
1
 10
243.118141
 20
110.170724
 30
0.0
 10
243.118141
 20
111.170727
 30
0.0
 10
244.118144
 20
111.170727
 30
0.0
 10
244.118144
 20
110.170724
 30
0.0
  0
LWPOLYLINE
  5
121
100
AcDbEntity
  8
LAYER1
 62
7
100
AcDbPolyline
 90
4
 70
1
 10
118.164866
 20
109.433722
 30
0.0
 10
118.164866
 20
110.433725
 30
0.0
 10
119.164869
 20
110.433725
 30
0.0
 10
119.164869
 20
109.433722
 30
0.0
  0
LWPOLYLINE
  5
122
100
AcDbEntity
  8
LAYER1
 62
7
100
AcDbPolyline
 90
4
 70
1
 10
169.417420
 20
109.433722
 30
0.0
 10
169.417420
 20
110.433725
 30
0.0
 10
170.417423
 20
110.433725
 30
0.0
 10
170.417423
 20
109.433722
 30
0.0
  0
LWPOLYLINE
  5
123
100
AcDbEntity
  8
LAYER1
 62
7
100
AcDbPolyline
 90
4
 70
1
 10
101.675017
 20
102.089700
 30
0.0
 10
101.675017
 20
103.089703
 30
0.0
 10
102.675020
 20
103.089703
 30
0.0
 10
102.675020
 20
102.089700
 30
0.0
  0
LWPOLYLINE
  5
124
100
AcDbEntity
  8
LAYER1
 62
7
100
AcDbPolyline
 90
4
 70
1
 10
185.907269
 20
102.089700
 30
0.0
 10
185.907269
 20
103.089703
 30
0.0
 10
186.907272
 20
103.089703
 30
0.0
 10
186.907272
 20
102.089700
 30
0.0
  0
LWPOLYLINE
  5
125
100
AcDbEntity
  8
LAYER1
 62
7
100
AcDbPolyline
 90
4
 70
1
 10
266.794512
 20
97.315886
 30
0.0
 10
266.794512
 20
98.315889
 30
0.0
 10
267.794515
 20
98.315889
 30
0.0
 10
267.794515
 20
97.315886
 30
0.0
  0
LWPOLYLINE
  5
126
100
AcDbEntity
  8
LAYER1
 62
7
100
AcDbPolyline
 90
4
 70
1
 10
20.787776
 20
97.315886
 30
0.0
 10
20.787776
 20
98.315889
 30
0.0
 10
21.787779
 20
98.315889
 30
0.0
 10
21.787779
 20
97.315886
 30
0.0
  0
LWPOLYLINE
  5
127
100
AcDbEntity
  8
LAYER1
 62
7
100
AcDbPolyline
 90
4
 70
1
 10
227.564894
 20
95.603681
 30
0.0
 10
227.564894
 20
96.603684
 30
0.0
 10
228.564897
 20
96.603684
 30
0.0
 10
228.564897
 20
95.603681
 30
0.0
  0
LWPOLYLINE
  5
128
100
AcDbEntity
  8
LAYER1
 62
7
100
AcDbPolyline
 90
4
 70
1
 10
60.017393
 20
95.603681
 30
0.0
 10
60.017393
 20
96.603684
 30
0.0
 10
61.017396
 20
96.603684
 30
0.0
 10
61.017396
 20
95.603681
 30
0.0
  0
LWPOLYLINE
  5
129
100
AcDbEntity
  8
LAYER1
 62
7
100
AcDbPolyline
 90
4
 70
1
 10
168.209716
 20
94.761278
 30
0.0
 10
168.209716
 20
95.761281
 30
0.0
 10
169.209719
 20
95.761281
 30
0.0
 10
169.209719
 20
94.761278
 30
0.0
  0
LWPOLYLINE
  5
12a
100
AcDbEntity
  8
LAYER1
 62
7
100
AcDbPolyline
 90
4
 70
1
 10
119.372570
 20
94.761278
 30
0.0
 10
119.372570
 20
95.761281
 30
0.0
 10
120.372573
 20
95.761281
 30
0.0
 10
120.372573
 20
94.761278
 30
0.0
  0
LWPOLYLINE
  5
12b
100
AcDbEntity
  8
LAYER1
 62
7
100
AcDbPolyline
 90
4
 70
1
 10
79.560951
 20
94.507877
 30
0.0
 10
79.560951
 20
95.507880
 30
0.0
 10
80.560954
 20
95.507880
 30
0.0
 10
80.560954
 20
94.507877
 30
0.0
  0
LWPOLYLINE
  5
12c
100
AcDbEntity
  8
LAYER1
 62
7
100
AcDbPolyline
 90
4
 70
1
 10
208.021336
 20
94.507877
 30
0.0
 10
208.021336
 20
95.507880
 30
0.0
 10
209.021339
 20
95.507880
 30
0.0
 10
209.021339
 20
94.507877
 30
0.0
  0
LWPOLYLINE
  5
12d
100
AcDbEntity
  8
LAYER1
 62
7
100
AcDbPolyline
 90
4
 70
1
 10
39.053831
 20
91.905369
 30
0.0
 10
39.053831
 20
92.905372
 30
0.0
 10
40.053834
 20
92.905372
 30
0.0
 10
40.053834
 20
91.905369
 30
0.0
  0
LWPOLYLINE
  5
12e
100
AcDbEntity
  8
LAYER1
 62
7
100
AcDbPolyline
 90
4
 70
1
 10
248.528457
 20
91.905369
 30
0.0
 10
248.528457
 20
92.905372
 30
0.0
 10
249.528460
 20
92.905372
 30
0.0
 10
249.528460
 20
91.905369
 30
0.0
  0
LWPOLYLINE
  5
12f
100
AcDbEntity
  8
LAYER1
 62
7
100
AcDbPolyline
 90
4
 70
1
 10
191.317785
 20
83.823845
 30
0.0
 10
191.317785
 20
84.823848
 30
0.0
 10
192.317788
 20
84.823848
 30
0.0
 10
192.317788
 20
83.823845
 30
0.0
  0
LWPOLYLINE
  5
130
100
AcDbEntity
  8
LAYER1
 62
7
100
AcDbPolyline
 90
4
 70
1
 10
96.264501
 20
83.823845
 30
0.0
 10
96.264501
 20
84.823848
 30
0.0
 10
97.264504
 20
84.823848
 30
0.0
 10
97.264504
 20
83.823845
 30
0.0
  0
LWPOLYLINE
  5
131
100
AcDbEntity
  8
LAYER1
 62
7
100
AcDbPolyline
 90
4
 70
1
 10
272.204529
 20
79.050332
 30
0.0
 10
272.204529
 20
80.050335
 30
0.0
 10
273.204532
 20
80.050335
 30
0.0
 10
273.204532
 20
79.050332
 30
0.0
  0
LWPOLYLINE
  5
132
100
AcDbEntity
  8
LAYER1
 62
7
100
AcDbPolyline
 90
4
 70
1
 10
15.377759
 20
79.050332
 30
0.0
 10
15.377759
 20
80.050335
 30
0.0
 10
16.377762
 20
80.050335
 30
0.0
 10
16.377762
 20
79.050332
 30
0.0
  0
LWPOLYLINE
  5
133
100
AcDbEntity
  8
LAYER1
 62
7
100
AcDbPolyline
 90
4
 70
1
 10
54.606876
 20
77.338127
 30
0.0
 10
54.606876
 20
78.338130
 30
0.0
 10
55.606879
 20
78.338130
 30
0.0
 10
55.606879
 20
77.338127
 30
0.0
  0
LWPOLYLINE
  5
134
100
AcDbEntity
  8
LAYER1
 62
7
100
AcDbPolyline
 90
4
 70
1
 10
232.975411
 20
77.338127
 30
0.0
 10
232.975411
 20
78.338130
 30
0.0
 10
233.975414
 20
78.338130
 30
0.0
 10
233.975414
 20
77.338127
 30
0.0
  0
LWPOLYLINE
  5
135
100
AcDbEntity
  8
LAYER1
 62
7
100
AcDbPolyline
 90
4
 70
1
 10
173.620232
 20
76.495724
 30
0.0
 10
173.620232
 20
77.495727
 30
0.0
 10
174.620235
 20
77.495727
 30
0.0
 10
174.620235
 20
76.495724
 30
0.0
  0
LWPOLYLINE
  5
136
100
AcDbEntity
  8
LAYER1
 62
7
100
AcDbPolyline
 90
4
 70
1
 10
113.962054
 20
76.495724
 30
0.0
 10
113.962054
 20
77.495727
 30
0.0
 10
114.962057
 20
77.495727
 30
0.0
 10
114.962057
 20
76.495724
 30
0.0
  0
LWPOLYLINE
  5
137
100
AcDbEntity
  8
LAYER1
 62
7
100
AcDbPolyline
 90
4
 70
1
 10
74.150435
 20
76.242323
 30
0.0
 10
74.150435
 20
77.242326
 30
0.0
 10
75.150438
 20
77.242326
 30
0.0
 10
75.150438
 20
76.242323
 30
0.0
  0
LWPOLYLINE
  5
138
100
AcDbEntity
  8
LAYER1
 62
7
100
AcDbPolyline
 90
4
 70
1
 10
213.431852
 20
76.242323
 30
0.0
 10
213.431852
 20
77.242326
 30
0.0
 10
214.431855
 20
77.242326
 30
0.0
 10
214.431855
 20
76.242323
 30
0.0
  0
LWPOLYLINE
  5
139
100
AcDbEntity
  8
LAYER1
 62
7
100
AcDbPolyline
 90
4
 70
1
 10
33.642814
 20
73.639815
 30
0.0
 10
33.642814
 20
74.639818
 30
0.0
 10
34.642817
 20
74.639818
 30
0.0
 10
34.642817
 20
73.639815
 30
0.0
  0
LWPOLYLINE
  5
13a
100
AcDbEntity
  8
LAYER1
 62
7
100
AcDbPolyline
 90
4
 70
1
 10
253.939474
 20
73.639815
 30
0.0
 10
253.939474
 20
74.639818
 30
0.0
 10
254.939477
 20
74.639818
 30
0.0
 10
254.939477
 20
73.639815
 30
0.0
  0
LWPOLYLINE
  5
13b
100
AcDbEntity
  8
LAYER1
 62
7
100
AcDbPolyline
 90
4
 70
1
 10
151.291165
 20
68.589600
 30
0.0
 10
151.291145
 20
69.589603
 30
0.0
 10
152.291168
 20
69.589603
 30
0.0
 10
152.291168
 20
68.589600
 30
0.0
  0
LWPOLYLINE
  5
13c
100
AcDbEntity
  8
LAYER1
 62
7
100
AcDbPolyline
 90
4
 70
1
 10
136.291120
 20
68.589600
 30
0.0
 10
136.291120
 20
69.589603
 30
0.0
 10
137.291143
 20
69.589603
 30
0.0
 10
137.291123
 20
68.589600
 30
0.0
  0
LWPOLYLINE
  5
13d
100
AcDbEntity
  8
LAYER1
 62
7
100
AcDbPolyline
 90
4
 70
1
 10
241.979338
 20
65.690692
 30
0.0
 10
241.979338
 20
66.690695
 30
0.0
 10
242.979341
 20
66.690695
 30
0.0
 10
242.979341
 20
65.690692
 30
0.0
  0
LWPOLYLINE
  5
13e
100
AcDbEntity
  8
LAYER1
 62
7
100
AcDbPolyline
 90
4
 70
1
 10
45.602950
 20
65.690692
 30
0.0
 10
45.602950
 20
66.690695
 30
0.0
 10
46.602952
 20
66.690695
 30
0.0
 10
46.602952
 20
65.690692
 30
0.0
  0
LWPOLYLINE
  5
13f
100
AcDbEntity
  8
LAYER1
 62
7
100
AcDbPolyline
 90
4
 70
1
 10
196.728302
 20
65.558291
 30
0.0
 10
196.728302
 20
66.558294
 30
0.0
 10
197.728305
 20
66.558294
 30
0.0
 10
197.728305
 20
65.558291
 30
0.0
  0
LWPOLYLINE
  5
140
100
AcDbEntity
  8
LAYER1
 62
7
100
AcDbPolyline
 90
4
 70
1
 10
90.853984
 20
65.558291
 30
0.0
 10
90.853984
 20
66.558294
 30
0.0
 10
91.853987
 20
66.558294
 30
0.0
 10
91.853987
 20
65.558291
 30
0.0
  0
LWPOLYLINE
  5
141
100
AcDbEntity
  8
LAYER1
 62
7
100
AcDbPolyline
 90
4
 70
1
 10
108.551537
 20
58.230169
 30
0.0
 10
108.551537
 20
59.230172
 30
0.0
 10
109.551540
 20
59.230172
 30
0.0
 10
109.551540
 20
58.230169
 30
0.0
  0
LWPOLYLINE
  5
142
100
AcDbEntity
  8
LAYER1
 62
7
100
AcDbPolyline
 90
4
 70
1
 10
179.030748
 20
58.230169
 30
0.0
 10
179.030748
 20
59.230172
 30
0.0
 10
180.030751
 20
59.230172
 30
0.0
 10
180.030751
 20
58.230169
 30
0.0
  0
LWPOLYLINE
  5
143
100
AcDbEntity
  8
LAYER1
 62
7
100
AcDbPolyline
 90
4
 70
1
 10
207.436334
 20
48.861840
 30
0.0
 10
207.436334
 20
49.861843
 30
0.0
 10
208.436337
 20
49.861843
 30
0.0
 10
208.436337
 20
48.861840
 30
0.0
  0
LWPOLYLINE
  5
144
100
AcDbEntity
  8
LAYER1
 62
7
100
AcDbPolyline
 90
4
 70
1
 10
80.145953
 20
48.861840
 30
0.0
 10
80.145953
 20
49.861843
 30
0.0
 10
81.145956
 20
49.861843
 30
0.0
 10
81.145956
 20
48.861840
 30
0.0
  0
LWPOLYLINE
  5
145
100
AcDbEntity
  8
LAYER1
 62
7
100
AcDbPolyline
 90
4
 70
1
 10
185.780069
 20
36.268303
 30
0.0
 10
185.780069
 20
37.268306
 30
0.0
 10
186.780072
 20
37.268306
 30
0.0
 10
186.780072
 20
36.268303
 30
0.0
  0
LWPOLYLINE
  5
146
100
AcDbEntity
  8
LAYER1
 62
7
100
AcDbPolyline
 90
4
 70
1
 10
101.802217
 20
36.268303
 30
0.0
 10
101.802217
 20
37.268306
 30
0.0
 10
102.802220
 20
37.268306
 30
0.0
 10
102.802220
 20
36.268303
 30
0.0
  0
LWPOLYLINE
  5
147
100
AcDbEntity
  8
LAYER1
 62
7
100
AcDbPolyline
 90
4
 70
1
 10
167.412414
 20
32.735793
 30
0.0
 10
167.412414
 20
33.735796
 30
0.0
 10
168.412417
 20
33.735796
 30
0.0
 10
168.412417
 20
32.735793
 30
0.0
  0
LWPOLYLINE
  5
148
100
AcDbEntity
  8
LAYER1
 62
7
100
AcDbPolyline
 90
4
 70
1
 10
120.169872
 20
32.735793
 30
0.0
 10
120.169872
 20
33.735796
 30
0.0
 10
121.169875
 20
33.735796
 30
0.0
 10
121.169875
 20
32.735793
 30
0.0
  0
LWPOLYLINE
  5
149
100
AcDbEntity
  8
LAYER1
 62
7
100
AcDbPolyline
 90
4
 70
1
 10
116.941163
 20
16.308244
 30
0.0
 10
116.941163
 20
17.308247
 30
0.0
 10
117.941166
 20
17.308247
 30
0.0
 10
117.941166
 20
16.308244
 30
0.0
  0
LWPOLYLINE
  5
14a
100
AcDbEntity
  8
LAYER1
 62
7
100
AcDbPolyline
 90
4
 70
1
 10
170.641123
 20
16.308244
 30
0.0
 10
170.641123
 20
17.308247
 30
0.0
 10
171.641126
 20
17.308247
 30
0.0
 10
171.641126
 20
16.308244
 30
0.0
  0
ENDSEC
  0
SECTION
  2
OBJECTS
  0
DICTIONARY
  5
C
330
0
100
AcDbDictionary
  3
ACAD_GROUP
350
D
  3
ACAD_MLINESTYLE
350
17
  0
DICTIONARY
  5
D
330
C
100
AcDbDictionary
  0
DICTIONARY
  5
1A
330
C
100
AcDbDictionary
  0
DICTIONARY
  5
17
330
C
100
AcDbDictionary
  3
STANDARD
350
18
  0
DICTIONARY
  5
19
330
C
100
AcDbDictionary
  0
ENDSEC
  0
EOF
