G04 #@! TF.GenerationSoftware,KiCad,Pcbnew,5.1.6-c6e7f7d~87~ubuntu16.04.1*
G04 #@! TF.CreationDate,2020-08-10T13:21:27+02:00*
G04 #@! TF.ProjectId,ack42_pcb,61636b34-325f-4706-9362-2e6b69636164,rev?*
G04 #@! TF.SameCoordinates,Original*
G04 #@! TF.FileFunction,Profile,NP*
%FSLAX46Y46*%
G04 Gerber Fmt 4.6, Leading zero omitted, Abs format (unit mm)*
G04 Created by KiCad (PCBNEW 5.1.6-c6e7f7d~87~ubuntu16.04.1) date 2020-08-10 13:21:27*
%MOMM*%
%LPD*%
G01*
G04 APERTURE LIST*
G04 #@! TA.AperFunction,Profile*
%ADD10C,0.200000*%
G04 #@! TD*
G04 APERTURE END LIST*
D10*
X167877453Y-46438894D02*
X162172836Y-49375903D01*
X249052198Y-26363835D02*
X242934779Y-26545835D01*
X255258216Y-26366835D02*
X249052198Y-26363835D01*
X261559234Y-26551835D02*
X255258216Y-26366835D01*
X267965254Y-26918836D02*
X261559234Y-26551835D01*
X273486761Y-27381362D02*
X267965254Y-26918836D01*
X157315562Y-52041772D02*
X157096708Y-52153073D01*
X157096708Y-52153073D02*
X156871961Y-52250117D01*
X156871961Y-52250117D02*
X156642020Y-52332723D01*
X156642020Y-52332723D02*
X156407587Y-52400712D01*
X156407587Y-52400712D02*
X156169359Y-52453905D01*
X156169359Y-52453905D02*
X155928038Y-52492122D01*
X155928038Y-52492122D02*
X155684324Y-52515184D01*
X155684324Y-52515184D02*
X155438916Y-52522912D01*
X292135307Y-87055397D02*
X274767295Y-28423660D01*
X274767295Y-28423660D02*
X274687747Y-28214951D01*
X274687747Y-28214951D02*
X274579459Y-28023980D01*
X274579459Y-28023980D02*
X274445297Y-27853080D01*
X274445297Y-27853080D02*
X274288129Y-27704587D01*
X274288129Y-27704587D02*
X274110823Y-27580834D01*
X274110823Y-27580834D02*
X273916248Y-27484156D01*
X273916248Y-27484156D02*
X273707271Y-27416887D01*
X273707271Y-27416887D02*
X273486761Y-27381362D01*
X250135201Y-100539356D02*
X291460505Y-88298235D01*
X248347995Y-101082957D02*
X250135201Y-100539356D01*
X246682290Y-101621659D02*
X248347995Y-101082957D01*
X245129286Y-102162461D02*
X246682290Y-101621659D01*
X243680481Y-102712062D02*
X245129286Y-102162461D01*
X242327177Y-103277064D02*
X243680481Y-102712062D01*
X241060874Y-103864366D02*
X242327177Y-103277064D01*
X239872870Y-104480668D02*
X241060874Y-103864366D01*
X238754667Y-105132670D02*
X239872870Y-104480668D01*
X237697663Y-105827272D02*
X238754667Y-105132670D01*
X236693160Y-106571074D02*
X237697663Y-105827272D01*
X235732758Y-107370877D02*
X236693160Y-106571074D01*
X234807655Y-108233379D02*
X235732758Y-107370877D01*
X233909452Y-109165482D02*
X234807655Y-108233379D01*
X233029349Y-110173785D02*
X233909452Y-109165482D01*
X232158947Y-111265089D02*
X233029349Y-110173785D01*
X231289644Y-112446092D02*
X232158947Y-111265089D01*
X230412642Y-113723596D02*
X231289644Y-112446092D01*
X229519639Y-115104400D02*
X230412642Y-113723596D01*
X62968340Y-109165482D02*
X63848443Y-110173785D01*
X62070137Y-108233379D02*
X62968340Y-109165482D01*
X61145034Y-107370877D02*
X62070137Y-108233379D01*
X60184632Y-106571074D02*
X61145034Y-107370877D01*
X59180129Y-105827272D02*
X60184632Y-106571074D01*
X58123125Y-105132670D02*
X59180129Y-105827272D01*
X57004922Y-104480668D02*
X58123125Y-105132670D01*
X55816918Y-103864366D02*
X57004922Y-104480668D01*
X54550615Y-103277064D02*
X55816918Y-103864366D01*
X68717946Y-117342065D02*
X68849739Y-117542877D01*
X68849739Y-117542877D02*
X68998613Y-117729403D01*
X68998613Y-117729403D02*
X69163365Y-117900697D01*
X69163365Y-117900697D02*
X69342796Y-118055815D01*
X69342796Y-118055815D02*
X69535705Y-118193811D01*
X69535705Y-118193811D02*
X69740893Y-118313741D01*
X69740893Y-118313741D02*
X69957159Y-118414659D01*
X69957159Y-118414659D02*
X70183302Y-118495621D01*
X22110495Y-28423660D02*
X4742487Y-87055397D01*
X4822485Y-87816572D02*
X4948955Y-87998188D01*
X4948955Y-87998188D02*
X5110627Y-88146326D01*
X5110627Y-88146326D02*
X5301218Y-88255898D01*
X5301218Y-88255898D02*
X5417286Y-88298235D01*
X106318769Y-36749866D02*
X100643352Y-34833860D01*
X111984286Y-38865871D02*
X106318769Y-36749866D01*
X117647903Y-41185878D02*
X111984286Y-38865871D01*
X123317320Y-43708886D02*
X117647903Y-41185878D01*
X129000338Y-46438894D02*
X123317320Y-43708886D01*
X134704953Y-49375903D02*
X129000338Y-46438894D01*
X228601736Y-116595204D02*
X229519639Y-115104400D01*
X228159845Y-117342065D02*
X228601736Y-116595204D01*
X292055308Y-87816573D02*
X292138741Y-87611589D01*
X292138741Y-87611589D02*
X292174926Y-87395317D01*
X292174926Y-87395317D02*
X292163016Y-87175796D01*
X292163016Y-87175796D02*
X292135307Y-87055397D01*
X291460505Y-88298235D02*
X291664447Y-88212287D01*
X291664447Y-88212287D02*
X291842961Y-88084946D01*
X291842961Y-88084946D02*
X291989765Y-87921301D01*
X291989765Y-87921301D02*
X292055308Y-87816573D01*
X223819022Y-119376512D02*
X226694490Y-118495621D01*
X220241611Y-120558716D02*
X223819022Y-119376512D01*
X216903001Y-121762920D02*
X220241611Y-120558716D01*
X213787792Y-123002623D02*
X216903001Y-121762920D01*
X210880683Y-124291727D02*
X213787792Y-123002623D01*
X208166175Y-125643531D02*
X210880683Y-124291727D01*
X205628967Y-127071835D02*
X208166175Y-125643531D01*
X203253660Y-128590140D02*
X205628967Y-127071835D01*
X201024853Y-130212045D02*
X203253660Y-128590140D01*
X198927247Y-131951250D02*
X201024853Y-130212045D01*
X196945441Y-133821256D02*
X198927247Y-131951250D01*
X195063935Y-135835761D02*
X196945441Y-133821256D01*
X193267530Y-138008368D02*
X195063935Y-135835761D01*
X165681647Y-152432071D02*
X167248952Y-152944102D01*
X164141942Y-151966970D02*
X165681647Y-152432071D01*
X162621638Y-151548348D02*
X164141942Y-151966970D01*
X161112333Y-151175727D02*
X162621638Y-151548348D01*
X159605829Y-150848666D02*
X161112333Y-151175727D01*
X158093674Y-150566695D02*
X159605829Y-150848666D01*
X156567689Y-150329375D02*
X158093674Y-150566695D01*
X155019525Y-150136234D02*
X156567689Y-150329375D01*
X153440880Y-149986804D02*
X155019525Y-150136234D01*
X151823425Y-149880633D02*
X153440880Y-149986804D01*
X150158860Y-149817273D02*
X151823425Y-149880633D01*
X148438895Y-149796253D02*
X150158860Y-149817273D01*
X146718930Y-149817273D02*
X148438895Y-149796253D01*
X145054365Y-149880633D02*
X146718930Y-149817273D01*
X143436910Y-149986804D02*
X145054365Y-149880633D01*
X141858265Y-150136234D02*
X143436910Y-149986804D01*
X140310101Y-150329375D02*
X141858265Y-150136234D01*
X23391032Y-27381362D02*
X23170521Y-27416886D01*
X23170521Y-27416886D02*
X22961543Y-27484155D01*
X22961543Y-27484155D02*
X22766968Y-27580833D01*
X22766968Y-27580833D02*
X22589662Y-27704586D01*
X22589662Y-27704586D02*
X22432494Y-27853079D01*
X22432494Y-27853079D02*
X22298331Y-28023979D01*
X22298331Y-28023979D02*
X22190042Y-28214951D01*
X22190042Y-28214951D02*
X22110495Y-28423660D01*
X53197311Y-102712062D02*
X54550615Y-103277064D01*
X51748506Y-102162461D02*
X53197311Y-102712062D01*
X50195502Y-101621659D02*
X51748506Y-102162461D01*
X48529798Y-101082957D02*
X50195502Y-101621659D01*
X46742592Y-100539356D02*
X48529798Y-101082957D01*
X5417286Y-88298235D02*
X46742592Y-100539356D01*
X114689841Y-157871620D02*
X114790698Y-158048097D01*
X114790698Y-158048097D02*
X114956931Y-158229208D01*
X114956931Y-158229208D02*
X115158222Y-158362721D01*
X115158222Y-158362721D02*
X115384323Y-158444646D01*
X115384323Y-158444646D02*
X115624987Y-158470993D01*
X115624987Y-158470993D02*
X115869967Y-158437769D01*
X115869967Y-158437769D02*
X116014763Y-158387582D01*
X68276056Y-116595204D02*
X68717946Y-117342065D01*
X67358153Y-115104400D02*
X68276056Y-116595204D01*
X66465150Y-113723596D02*
X67358153Y-115104400D01*
X65588148Y-112446092D02*
X66465150Y-113723596D01*
X64718845Y-111265089D02*
X65588148Y-112446092D01*
X63848443Y-110173785D02*
X64718845Y-111265089D01*
X95852938Y-130212045D02*
X97950544Y-131951250D01*
X93624131Y-128590140D02*
X95852938Y-130212045D01*
X91248824Y-127071835D02*
X93624131Y-128590140D01*
X88711617Y-125643531D02*
X91248824Y-127071835D01*
X85997109Y-124291727D02*
X88711617Y-125643531D01*
X83090000Y-123002623D02*
X85997109Y-124291727D01*
X79974791Y-121762920D02*
X83090000Y-123002623D01*
X76636181Y-120558716D02*
X79974791Y-121762920D01*
X73058770Y-119376512D02*
X76636181Y-120558716D01*
X70183302Y-118495621D02*
X73058770Y-119376512D01*
X113465091Y-155124969D02*
X114689841Y-157871620D01*
X111855686Y-151718299D02*
X113465091Y-155124969D01*
X110253581Y-148551299D02*
X111855686Y-151718299D01*
X108643376Y-145610490D02*
X110253581Y-148551299D01*
X107009671Y-142882083D02*
X108643376Y-145610490D01*
X105337166Y-140352575D02*
X107009671Y-142882083D01*
X103610261Y-138008368D02*
X105337166Y-140352575D01*
X101813856Y-135835761D02*
X103610261Y-138008368D01*
X99932350Y-133821256D02*
X101813856Y-135835761D01*
X97950544Y-131951250D02*
X99932350Y-133821256D01*
X139562223Y-52041772D02*
X134704953Y-49375903D01*
X155438916Y-52522912D02*
X141438874Y-52522912D01*
X141438874Y-52522912D02*
X141193465Y-52515184D01*
X141193465Y-52515184D02*
X140949749Y-52492123D01*
X140949749Y-52492123D02*
X140708428Y-52453905D01*
X140708428Y-52453905D02*
X140470200Y-52400713D01*
X140470200Y-52400713D02*
X140235765Y-52332723D01*
X140235765Y-52332723D02*
X140005824Y-52250117D01*
X140005824Y-52250117D02*
X139781077Y-52153073D01*
X139781077Y-52153073D02*
X139562223Y-52041772D01*
X162172836Y-49375903D02*
X157315562Y-52041772D01*
X173560471Y-43708886D02*
X167877453Y-46438894D01*
X179229888Y-41185878D02*
X173560471Y-43708886D01*
X184893505Y-38865871D02*
X179229888Y-41185878D01*
X190559022Y-36749866D02*
X184893505Y-38865871D01*
X196234439Y-34833860D02*
X190559022Y-36749866D01*
X201927556Y-33117855D02*
X196234439Y-34833860D01*
X207646273Y-31598850D02*
X201927556Y-33117855D01*
X213398390Y-30276847D02*
X207646273Y-31598850D01*
X219191808Y-29147843D02*
X213398390Y-30276847D01*
X225034225Y-28212840D02*
X219191808Y-29147843D01*
X230933643Y-27467838D02*
X225034225Y-28212840D01*
X236897861Y-26912836D02*
X230933643Y-27467838D01*
X242934779Y-26545835D02*
X236897861Y-26912836D01*
X138784116Y-150566695D02*
X140310101Y-150329375D01*
X137271961Y-150848666D02*
X138784116Y-150566695D01*
X135765457Y-151175727D02*
X137271961Y-150848666D01*
X134256151Y-151548348D02*
X135765457Y-151175727D01*
X132735848Y-151966970D02*
X134256151Y-151548348D01*
X131196143Y-152432071D02*
X132735848Y-151966970D01*
X129628839Y-152944102D02*
X131196143Y-152432071D01*
X128025535Y-153503524D02*
X129628839Y-152944102D01*
X126377830Y-154110806D02*
X128025535Y-153503524D01*
X124677725Y-154766368D02*
X126377830Y-154110806D01*
X122916619Y-155470720D02*
X124677725Y-154766368D01*
X121086314Y-156224292D02*
X122916619Y-155470720D01*
X119178508Y-157027545D02*
X121086314Y-156224292D01*
X117184802Y-157880946D02*
X119178508Y-157027545D01*
X116014763Y-158387582D02*
X117184802Y-157880946D01*
X180863032Y-158387582D02*
X181056676Y-158449369D01*
X181056676Y-158449369D02*
X181301611Y-158470358D01*
X181301611Y-158470358D02*
X181540181Y-158432576D01*
X181540181Y-158432576D02*
X181762138Y-158340015D01*
X181762138Y-158340015D02*
X181957235Y-158196663D01*
X181957235Y-158196663D02*
X182115226Y-158006513D01*
X182115226Y-158006513D02*
X182187946Y-157871620D01*
X4742487Y-87055397D02*
X4703492Y-87273247D01*
X4703492Y-87273247D02*
X4713061Y-87492316D01*
X4713061Y-87492316D02*
X4770350Y-87704564D01*
X4770350Y-87704564D02*
X4822485Y-87816572D01*
X28912538Y-26918836D02*
X23391032Y-27381362D01*
X35318558Y-26551835D02*
X28912538Y-26918836D01*
X41619577Y-26366835D02*
X35318558Y-26551835D01*
X47825595Y-26363835D02*
X41619577Y-26366835D01*
X53943013Y-26545835D02*
X47825595Y-26363835D01*
X59979931Y-26912836D02*
X53943013Y-26545835D01*
X191540625Y-140352575D02*
X193267530Y-138008368D01*
X189868120Y-142882083D02*
X191540625Y-140352575D01*
X188234415Y-145610490D02*
X189868120Y-142882083D01*
X186624210Y-148551299D02*
X188234415Y-145610490D01*
X185022105Y-151718299D02*
X186624210Y-148551299D01*
X183412700Y-155124969D02*
X185022105Y-151718299D01*
X182187946Y-157871620D02*
X183412700Y-155124969D01*
X226694490Y-118495621D02*
X226920632Y-118414659D01*
X226920632Y-118414659D02*
X227136898Y-118313741D01*
X227136898Y-118313741D02*
X227342085Y-118193811D01*
X227342085Y-118193811D02*
X227534995Y-118055815D01*
X227534995Y-118055815D02*
X227714425Y-117900697D01*
X227714425Y-117900697D02*
X227879178Y-117729403D01*
X227879178Y-117729403D02*
X228028051Y-117542877D01*
X228028051Y-117542877D02*
X228159845Y-117342065D01*
X179692989Y-157880946D02*
X180863032Y-158387582D01*
X177699283Y-157027545D02*
X179692989Y-157880946D01*
X175791477Y-156224292D02*
X177699283Y-157027545D01*
X173961172Y-155470720D02*
X175791477Y-156224292D01*
X172200066Y-154766368D02*
X173961172Y-155470720D01*
X170499961Y-154110806D02*
X172200066Y-154766368D01*
X168852256Y-153503524D02*
X170499961Y-154110806D01*
X167248952Y-152944102D02*
X168852256Y-153503524D01*
X65944149Y-27467838D02*
X59979931Y-26912836D01*
X71843567Y-28212840D02*
X65944149Y-27467838D01*
X77685984Y-29147843D02*
X71843567Y-28212840D01*
X83479402Y-30276847D02*
X77685984Y-29147843D01*
X89231519Y-31598850D02*
X83479402Y-30276847D01*
X94950235Y-33117855D02*
X89231519Y-31598850D01*
X100643352Y-34833860D02*
X94950235Y-33117855D01*
M02*
