G04 #@! TF.GenerationSoftware,KiCad,Pcbnew,5.1.6-c6e7f7d~87~ubuntu16.04.1*
G04 #@! TF.CreationDate,2020-08-10T13:21:27+02:00*
G04 #@! TF.ProjectId,ack42_pcb,61636b34-325f-4706-9362-2e6b69636164,rev?*
G04 #@! TF.SameCoordinates,Original*
G04 #@! TF.FileFunction,Soldermask,Bot*
G04 #@! TF.FilePolarity,Negative*
%FSLAX46Y46*%
G04 Gerber Fmt 4.6, Leading zero omitted, Abs format (unit mm)*
G04 Created by KiCad (PCBNEW 5.1.6-c6e7f7d~87~ubuntu16.04.1) date 2020-08-10 13:21:27*
%MOMM*%
%LPD*%
G01*
G04 APERTURE LIST*
%ADD10C,2.100000*%
%ADD11C,0.100000*%
%ADD12C,3.100000*%
%ADD13C,2.386000*%
%ADD14C,4.087800*%
%ADD15C,1.801800*%
%ADD16C,4.500000*%
%ADD17C,1.852600*%
%ADD18R,1.852600X1.852600*%
%ADD19C,1.700000*%
%ADD20C,6.500000*%
G04 APERTURE END LIST*
D10*
X189205331Y-128503191D03*
D11*
G36*
X191907935Y-112519870D02*
G01*
X193630747Y-114467155D01*
X191646015Y-116223098D01*
X189923203Y-114275813D01*
X191907935Y-112519870D01*
G37*
D12*
X188968391Y-116856309D03*
X185895577Y-122966294D03*
D13*
X191895915Y-127831809D03*
D14*
X190432153Y-122344059D03*
D13*
X194968729Y-121721824D03*
D15*
X186627458Y-125710169D03*
X194236848Y-118977949D03*
D11*
G36*
X183217953Y-123599505D02*
G01*
X184940765Y-125546790D01*
X182956033Y-127302733D01*
X181233221Y-125355448D01*
X183217953Y-123599505D01*
G37*
D10*
X194341611Y-126762898D03*
X176784336Y-148404606D03*
D11*
G36*
X172478883Y-132776628D02*
G01*
X174863240Y-133813375D01*
X173806555Y-136243584D01*
X171422198Y-135206837D01*
X172478883Y-132776628D01*
G37*
D12*
X171647410Y-137949081D03*
X171444686Y-144785235D03*
D13*
X178939096Y-146659037D03*
D14*
X175293253Y-142304059D03*
D13*
X179141820Y-139822883D03*
D15*
X173267608Y-146962724D03*
X177318898Y-137645394D03*
D11*
G36*
X169285541Y-146490733D02*
G01*
X171669898Y-147527480D01*
X170613213Y-149957689D01*
X168228856Y-148920942D01*
X169285541Y-146490733D01*
G37*
D10*
X180703907Y-144656679D03*
X116114878Y-139234005D03*
D11*
G36*
X130480770Y-146743453D02*
G01*
X128096413Y-147780200D01*
X127039728Y-145349991D01*
X129424085Y-144313244D01*
X130480770Y-146743453D01*
G37*
D12*
X127264940Y-142607746D03*
X122403551Y-137797237D03*
D13*
X115921964Y-142000372D03*
D14*
X121593452Y-142304059D03*
D13*
X120783353Y-146810881D03*
D15*
X119567807Y-137645394D03*
X123619097Y-146962724D03*
D11*
G36*
X122628763Y-135054993D02*
G01*
X120244406Y-136091740D01*
X119187721Y-133661531D01*
X121572078Y-132624784D01*
X122628763Y-135054993D01*
G37*
D10*
X116182798Y-144656679D03*
X100191819Y-121876989D03*
D11*
G36*
X116385367Y-122611572D02*
G01*
X114662555Y-124558857D01*
X112677823Y-122802914D01*
X114400635Y-120855629D01*
X116385367Y-122611572D01*
G37*
D12*
X111723011Y-120222418D03*
X105284088Y-117917128D03*
D13*
X101186097Y-124465698D03*
D14*
X106454554Y-122344058D03*
D13*
X107625020Y-126770988D03*
D15*
X102649859Y-118977948D03*
X110259249Y-125710168D03*
D11*
G36*
X104329276Y-115336632D02*
G01*
X102606464Y-117283917D01*
X100621732Y-115527974D01*
X102344544Y-113580689D01*
X104329276Y-115336632D01*
G37*
D10*
X102545096Y-126762897D03*
D16*
X155943352Y-90022060D03*
X140943352Y-90022060D03*
D17*
X156291952Y-57332858D03*
X141051952Y-85272858D03*
X155834752Y-59872858D03*
X156291952Y-62412858D03*
X155834752Y-64952858D03*
X156291952Y-67492858D03*
X155834752Y-70032858D03*
X156291952Y-72572858D03*
X155834752Y-75112858D03*
X156291952Y-77652858D03*
X155834752Y-80192858D03*
X156291952Y-82732858D03*
X155834752Y-85272858D03*
X140594752Y-82732858D03*
X141051952Y-80192858D03*
X140594752Y-77652858D03*
X141051952Y-75112858D03*
X140594752Y-72572858D03*
X141051952Y-70032858D03*
X140594752Y-67492858D03*
X141051952Y-64952858D03*
X140594752Y-62412858D03*
X141051952Y-59872858D03*
D18*
X140594752Y-57332858D03*
D11*
G36*
X22899204Y-45582400D02*
G01*
X21652738Y-45213180D01*
X22021958Y-43966714D01*
X23268424Y-44335934D01*
X22899204Y-45582400D01*
G37*
G36*
X22004556Y-48602682D02*
G01*
X20758090Y-48233462D01*
X21127310Y-46986996D01*
X22373776Y-47356216D01*
X22004556Y-48602682D01*
G37*
G36*
X21479181Y-51080505D02*
G01*
X19849187Y-50597679D01*
X20332013Y-48967685D01*
X21962007Y-49450511D01*
X21479181Y-51080505D01*
G37*
D19*
X23120917Y-42545301D03*
D11*
G36*
X116072705Y-66402800D02*
G01*
X114826239Y-66033580D01*
X115195459Y-64787114D01*
X116441925Y-65156334D01*
X116072705Y-66402800D01*
G37*
G36*
X115178057Y-69423082D02*
G01*
X113931591Y-69053862D01*
X114300811Y-67807396D01*
X115547277Y-68176616D01*
X115178057Y-69423082D01*
G37*
G36*
X114652682Y-71900905D02*
G01*
X113022688Y-71418079D01*
X113505514Y-69788085D01*
X115135508Y-70270911D01*
X114652682Y-71900905D01*
G37*
D19*
X116294418Y-63365701D03*
D10*
X122349161Y-69508297D03*
D11*
G36*
X119137230Y-58398558D02*
G01*
X118398790Y-60891489D01*
X115857918Y-60138848D01*
X116596358Y-57645917D01*
X119137230Y-58398558D01*
G37*
D15*
X128895656Y-65294059D03*
X119154048Y-62408463D03*
D13*
X126956556Y-67368762D03*
D14*
X124024852Y-63851261D03*
D13*
X120146652Y-68000666D03*
D12*
X121093148Y-60333760D03*
X127903052Y-59701856D03*
D11*
G36*
X133138282Y-59896768D02*
G01*
X132399842Y-62389699D01*
X129858970Y-61637058D01*
X130597410Y-59144127D01*
X133138282Y-59896768D01*
G37*
D10*
X118151495Y-66074699D03*
D20*
X124822153Y-125876560D03*
X253004352Y-32576859D03*
X246631254Y-92921759D03*
X172064552Y-125876559D03*
X174069552Y-49178859D03*
X50255452Y-92921759D03*
X122817151Y-49178859D03*
X43882354Y-32576860D03*
D10*
X23764661Y-66953694D03*
D11*
G36*
X20552730Y-55843955D02*
G01*
X19814290Y-58336886D01*
X17273418Y-57584245D01*
X18011858Y-55091314D01*
X20552730Y-55843955D01*
G37*
D15*
X30311156Y-62739456D03*
X20569548Y-59853860D03*
D13*
X28372056Y-64814159D03*
D14*
X25440352Y-61296658D03*
D13*
X21562152Y-65446063D03*
D12*
X22508648Y-57779157D03*
X29318552Y-57147253D03*
D11*
G36*
X34553782Y-57342165D02*
G01*
X33815342Y-59835096D01*
X31274470Y-59082455D01*
X32012910Y-56589524D01*
X34553782Y-57342165D01*
G37*
D10*
X19566995Y-63520096D03*
X116938663Y-87773794D03*
D11*
G36*
X113726732Y-76664055D02*
G01*
X112988292Y-79156986D01*
X110447420Y-78404345D01*
X111185860Y-75911414D01*
X113726732Y-76664055D01*
G37*
D15*
X123485158Y-83559556D03*
X113743550Y-80673960D03*
D13*
X121546058Y-85634259D03*
D14*
X118614354Y-82116758D03*
D13*
X114736154Y-86266163D03*
D12*
X115682650Y-78599257D03*
X122492554Y-77967353D03*
D11*
G36*
X127727784Y-78162265D02*
G01*
X126989344Y-80655196D01*
X124448472Y-79902555D01*
X125186912Y-77409624D01*
X127727784Y-78162265D01*
G37*
D10*
X112740997Y-84340196D03*
D11*
G36*
X41164505Y-50993402D02*
G01*
X39918039Y-50624182D01*
X40287259Y-49377716D01*
X41533725Y-49746936D01*
X41164505Y-50993402D01*
G37*
G36*
X40269857Y-54013684D02*
G01*
X39023391Y-53644464D01*
X39392611Y-52397998D01*
X40639077Y-52767218D01*
X40269857Y-54013684D01*
G37*
G36*
X39744482Y-56491507D02*
G01*
X38114488Y-56008681D01*
X38597314Y-54378687D01*
X40227308Y-54861513D01*
X39744482Y-56491507D01*
G37*
D19*
X41386218Y-47956303D03*
D11*
G36*
X62128105Y-47294400D02*
G01*
X60881639Y-46925180D01*
X61250859Y-45678714D01*
X62497325Y-46047934D01*
X62128105Y-47294400D01*
G37*
G36*
X61233457Y-50314682D02*
G01*
X59986991Y-49945462D01*
X60356211Y-48698996D01*
X61602677Y-49068216D01*
X61233457Y-50314682D01*
G37*
G36*
X60708082Y-52792505D02*
G01*
X59078088Y-52309679D01*
X59560914Y-50679685D01*
X61190908Y-51162511D01*
X60708082Y-52792505D01*
G37*
D19*
X62349818Y-44257301D03*
D11*
G36*
X81671705Y-48390403D02*
G01*
X80425239Y-48021183D01*
X80794459Y-46774717D01*
X82040925Y-47143937D01*
X81671705Y-48390403D01*
G37*
G36*
X80777057Y-51410685D02*
G01*
X79530591Y-51041465D01*
X79899811Y-49794999D01*
X81146277Y-50164219D01*
X80777057Y-51410685D01*
G37*
G36*
X80251682Y-53888508D02*
G01*
X78621688Y-53405682D01*
X79104514Y-51775688D01*
X80734508Y-52258514D01*
X80251682Y-53888508D01*
G37*
D19*
X81893418Y-45353304D03*
D11*
G36*
X98375204Y-59074401D02*
G01*
X97128738Y-58705181D01*
X97497958Y-57458715D01*
X98744424Y-57827935D01*
X98375204Y-59074401D01*
G37*
G36*
X97480556Y-62094683D02*
G01*
X96234090Y-61725463D01*
X96603310Y-60478997D01*
X97849776Y-60848217D01*
X97480556Y-62094683D01*
G37*
G36*
X96955181Y-64572506D02*
G01*
X95325187Y-64089680D01*
X95808013Y-62459686D01*
X97438007Y-62942512D01*
X96955181Y-64572506D01*
G37*
D19*
X98596917Y-56037302D03*
D11*
G36*
X167582290Y-70322213D02*
G01*
X166335824Y-70691433D01*
X165966604Y-69444967D01*
X167213070Y-69075747D01*
X167582290Y-70322213D01*
G37*
G36*
X168476938Y-73342495D02*
G01*
X167230472Y-73711715D01*
X166861252Y-72465249D01*
X168107718Y-72096029D01*
X168476938Y-73342495D01*
G37*
G36*
X169385841Y-75706712D02*
G01*
X167755847Y-76189538D01*
X167273021Y-74559544D01*
X168903015Y-74076718D01*
X169385841Y-75706712D01*
G37*
D19*
X166114111Y-67654334D03*
D11*
G36*
X185279789Y-62993812D02*
G01*
X184033323Y-63363032D01*
X183664103Y-62116566D01*
X184910569Y-61747346D01*
X185279789Y-62993812D01*
G37*
G36*
X186174437Y-66014094D02*
G01*
X184927971Y-66383314D01*
X184558751Y-65136848D01*
X185805217Y-64767628D01*
X186174437Y-66014094D01*
G37*
G36*
X187083340Y-68378311D02*
G01*
X185453346Y-68861137D01*
X184970520Y-67231143D01*
X186600514Y-66748317D01*
X187083340Y-68378311D01*
G37*
D19*
X183811610Y-60325933D03*
D11*
G36*
X201983288Y-52309812D02*
G01*
X200736822Y-52679032D01*
X200367602Y-51432566D01*
X201614068Y-51063346D01*
X201983288Y-52309812D01*
G37*
G36*
X202877936Y-55330094D02*
G01*
X201631470Y-55699314D01*
X201262250Y-54452848D01*
X202508716Y-54083628D01*
X202877936Y-55330094D01*
G37*
G36*
X203786839Y-57694311D02*
G01*
X202156845Y-58177137D01*
X201674019Y-56547143D01*
X203304013Y-56064317D01*
X203786839Y-57694311D01*
G37*
D19*
X200515109Y-49641933D03*
D11*
G36*
X221526890Y-51213813D02*
G01*
X220280424Y-51583033D01*
X219911204Y-50336567D01*
X221157670Y-49967347D01*
X221526890Y-51213813D01*
G37*
G36*
X222421538Y-54234095D02*
G01*
X221175072Y-54603315D01*
X220805852Y-53356849D01*
X222052318Y-52987629D01*
X222421538Y-54234095D01*
G37*
G36*
X223330441Y-56598312D02*
G01*
X221700447Y-57081138D01*
X221217621Y-55451144D01*
X222847615Y-54968318D01*
X223330441Y-56598312D01*
G37*
D19*
X220058711Y-48545934D03*
D11*
G36*
X242490487Y-54912813D02*
G01*
X241244021Y-55282033D01*
X240874801Y-54035567D01*
X242121267Y-53666347D01*
X242490487Y-54912813D01*
G37*
G36*
X243385135Y-57933095D02*
G01*
X242138669Y-58302315D01*
X241769449Y-57055849D01*
X243015915Y-56686629D01*
X243385135Y-57933095D01*
G37*
G36*
X244294038Y-60297312D02*
G01*
X242664044Y-60780138D01*
X242181218Y-59150144D01*
X243811212Y-58667318D01*
X244294038Y-60297312D01*
G37*
D19*
X241022308Y-52244934D03*
D11*
G36*
X260755789Y-49501812D02*
G01*
X259509323Y-49871032D01*
X259140103Y-48624566D01*
X260386569Y-48255346D01*
X260755789Y-49501812D01*
G37*
G36*
X261650437Y-52522094D02*
G01*
X260403971Y-52891314D01*
X260034751Y-51644848D01*
X261281217Y-51275628D01*
X261650437Y-52522094D01*
G37*
G36*
X262559340Y-54886311D02*
G01*
X260929346Y-55369137D01*
X260446520Y-53739143D01*
X262076514Y-53256317D01*
X262559340Y-54886311D01*
G37*
D19*
X259287610Y-46833933D03*
D11*
G36*
X17488203Y-63848200D02*
G01*
X16241737Y-63478980D01*
X16610957Y-62232514D01*
X17857423Y-62601734D01*
X17488203Y-63848200D01*
G37*
G36*
X16593555Y-66868482D02*
G01*
X15347089Y-66499262D01*
X15716309Y-65252796D01*
X16962775Y-65622016D01*
X16593555Y-66868482D01*
G37*
G36*
X16068180Y-69346305D02*
G01*
X14438186Y-68863479D01*
X14921012Y-67233485D01*
X16551006Y-67716311D01*
X16068180Y-69346305D01*
G37*
D19*
X17709916Y-60811101D03*
D11*
G36*
X35754204Y-69258700D02*
G01*
X34507738Y-68889480D01*
X34876958Y-67643014D01*
X36123424Y-68012234D01*
X35754204Y-69258700D01*
G37*
G36*
X34859556Y-72278982D02*
G01*
X33613090Y-71909762D01*
X33982310Y-70663296D01*
X35228776Y-71032516D01*
X34859556Y-72278982D01*
G37*
G36*
X34334181Y-74756805D02*
G01*
X32704187Y-74273979D01*
X33187013Y-72643985D01*
X34817007Y-73126811D01*
X34334181Y-74756805D01*
G37*
D19*
X35975917Y-66221601D03*
D11*
G36*
X56717703Y-65560400D02*
G01*
X55471237Y-65191180D01*
X55840457Y-63944714D01*
X57086923Y-64313934D01*
X56717703Y-65560400D01*
G37*
G36*
X55823055Y-68580682D02*
G01*
X54576589Y-68211462D01*
X54945809Y-66964996D01*
X56192275Y-67334216D01*
X55823055Y-68580682D01*
G37*
G36*
X55297680Y-71058505D02*
G01*
X53667686Y-70575679D01*
X54150512Y-68945685D01*
X55780506Y-69428511D01*
X55297680Y-71058505D01*
G37*
D19*
X56939416Y-62523301D03*
D11*
G36*
X76261204Y-66656199D02*
G01*
X75014738Y-66286979D01*
X75383958Y-65040513D01*
X76630424Y-65409733D01*
X76261204Y-66656199D01*
G37*
G36*
X75366556Y-69676481D02*
G01*
X74120090Y-69307261D01*
X74489310Y-68060795D01*
X75735776Y-68430015D01*
X75366556Y-69676481D01*
G37*
G36*
X74841181Y-72154304D02*
G01*
X73211187Y-71671478D01*
X73694013Y-70041484D01*
X75324007Y-70524310D01*
X74841181Y-72154304D01*
G37*
D19*
X76482917Y-63619100D03*
D11*
G36*
X92964705Y-77340201D02*
G01*
X91718239Y-76970981D01*
X92087459Y-75724515D01*
X93333925Y-76093735D01*
X92964705Y-77340201D01*
G37*
G36*
X92070057Y-80360483D02*
G01*
X90823591Y-79991263D01*
X91192811Y-78744797D01*
X92439277Y-79114017D01*
X92070057Y-80360483D01*
G37*
G36*
X91544682Y-82838306D02*
G01*
X89914688Y-82355480D01*
X90397514Y-80725486D01*
X92027508Y-81208312D01*
X91544682Y-82838306D01*
G37*
D19*
X93186418Y-74303102D03*
D11*
G36*
X110662206Y-84668298D02*
G01*
X109415740Y-84299078D01*
X109784960Y-83052612D01*
X111031426Y-83421832D01*
X110662206Y-84668298D01*
G37*
G36*
X109767558Y-87688580D02*
G01*
X108521092Y-87319360D01*
X108890312Y-86072894D01*
X110136778Y-86442114D01*
X109767558Y-87688580D01*
G37*
G36*
X109242183Y-90166403D02*
G01*
X107612189Y-89683577D01*
X108095015Y-88053583D01*
X109725009Y-88536409D01*
X109242183Y-90166403D01*
G37*
D19*
X110883919Y-81631199D03*
D11*
G36*
X172992788Y-88587714D02*
G01*
X171746322Y-88956934D01*
X171377102Y-87710468D01*
X172623568Y-87341248D01*
X172992788Y-88587714D01*
G37*
G36*
X173887436Y-91607996D02*
G01*
X172640970Y-91977216D01*
X172271750Y-90730750D01*
X173518216Y-90361530D01*
X173887436Y-91607996D01*
G37*
G36*
X174796339Y-93972213D02*
G01*
X173166345Y-94455039D01*
X172683519Y-92825045D01*
X174313513Y-92342219D01*
X174796339Y-93972213D01*
G37*
D19*
X171524609Y-85919835D03*
D11*
G36*
X190690289Y-81259613D02*
G01*
X189443823Y-81628833D01*
X189074603Y-80382367D01*
X190321069Y-80013147D01*
X190690289Y-81259613D01*
G37*
G36*
X191584937Y-84279895D02*
G01*
X190338471Y-84649115D01*
X189969251Y-83402649D01*
X191215717Y-83033429D01*
X191584937Y-84279895D01*
G37*
G36*
X192493840Y-86644112D02*
G01*
X190863846Y-87126938D01*
X190381020Y-85496944D01*
X192011014Y-85014118D01*
X192493840Y-86644112D01*
G37*
D19*
X189222110Y-78591734D03*
X205925608Y-67907734D03*
D11*
G36*
X209197338Y-75960112D02*
G01*
X207567344Y-76442938D01*
X207084518Y-74812944D01*
X208714512Y-74330118D01*
X209197338Y-75960112D01*
G37*
G36*
X208288435Y-73595895D02*
G01*
X207041969Y-73965115D01*
X206672749Y-72718649D01*
X207919215Y-72349429D01*
X208288435Y-73595895D01*
G37*
G36*
X207393787Y-70575613D02*
G01*
X206147321Y-70944833D01*
X205778101Y-69698367D01*
X207024567Y-69329147D01*
X207393787Y-70575613D01*
G37*
G36*
X226937289Y-69479813D02*
G01*
X225690823Y-69849033D01*
X225321603Y-68602567D01*
X226568069Y-68233347D01*
X226937289Y-69479813D01*
G37*
G36*
X227831937Y-72500095D02*
G01*
X226585471Y-72869315D01*
X226216251Y-71622849D01*
X227462717Y-71253629D01*
X227831937Y-72500095D01*
G37*
G36*
X228740840Y-74864312D02*
G01*
X227110846Y-75347138D01*
X226628020Y-73717144D01*
X228258014Y-73234318D01*
X228740840Y-74864312D01*
G37*
D19*
X225469110Y-66811934D03*
D11*
G36*
X247900789Y-73178114D02*
G01*
X246654323Y-73547334D01*
X246285103Y-72300868D01*
X247531569Y-71931648D01*
X247900789Y-73178114D01*
G37*
G36*
X248795437Y-76198396D02*
G01*
X247548971Y-76567616D01*
X247179751Y-75321150D01*
X248426217Y-74951930D01*
X248795437Y-76198396D01*
G37*
G36*
X249704340Y-78562613D02*
G01*
X248074346Y-79045439D01*
X247591520Y-77415445D01*
X249221514Y-76932619D01*
X249704340Y-78562613D01*
G37*
D19*
X246432610Y-70510235D03*
D11*
G36*
X266166790Y-67767611D02*
G01*
X264920324Y-68136831D01*
X264551104Y-66890365D01*
X265797570Y-66521145D01*
X266166790Y-67767611D01*
G37*
G36*
X267061438Y-70787893D02*
G01*
X265814972Y-71157113D01*
X265445752Y-69910647D01*
X266692218Y-69541427D01*
X267061438Y-70787893D01*
G37*
G36*
X267970341Y-73152110D02*
G01*
X266340347Y-73634936D01*
X265857521Y-72004942D01*
X267487515Y-71522116D01*
X267970341Y-73152110D01*
G37*
D19*
X264698611Y-65099732D03*
D11*
G36*
X17937215Y-88204189D02*
G01*
X17567995Y-89450655D01*
X16321529Y-89081435D01*
X16690749Y-87834969D01*
X17937215Y-88204189D01*
G37*
G36*
X20957497Y-89098837D02*
G01*
X20588277Y-90345303D01*
X19341811Y-89976083D01*
X19711031Y-88729617D01*
X20957497Y-89098837D01*
G37*
G36*
X23435320Y-89624212D02*
G01*
X22952494Y-91254206D01*
X21322500Y-90771380D01*
X21805326Y-89141386D01*
X23435320Y-89624212D01*
G37*
D19*
X14900116Y-87982476D03*
D11*
G36*
X30343204Y-87524202D02*
G01*
X29096738Y-87154982D01*
X29465958Y-85908516D01*
X30712424Y-86277736D01*
X30343204Y-87524202D01*
G37*
G36*
X29448556Y-90544484D02*
G01*
X28202090Y-90175264D01*
X28571310Y-88928798D01*
X29817776Y-89298018D01*
X29448556Y-90544484D01*
G37*
G36*
X28923181Y-93022307D02*
G01*
X27293187Y-92539481D01*
X27776013Y-90909487D01*
X29406007Y-91392313D01*
X28923181Y-93022307D01*
G37*
D19*
X30564917Y-84487103D03*
D11*
G36*
X51335605Y-83730017D02*
G01*
X50089139Y-83360797D01*
X50458359Y-82114331D01*
X51704825Y-82483551D01*
X51335605Y-83730017D01*
G37*
G36*
X50440957Y-86750299D02*
G01*
X49194491Y-86381079D01*
X49563711Y-85134613D01*
X50810177Y-85503833D01*
X50440957Y-86750299D01*
G37*
G36*
X49915582Y-89228122D02*
G01*
X48285588Y-88745296D01*
X48768414Y-87115302D01*
X50398408Y-87598128D01*
X49915582Y-89228122D01*
G37*
D19*
X51557318Y-80692918D03*
D11*
G36*
X70850705Y-84921700D02*
G01*
X69604239Y-84552480D01*
X69973459Y-83306014D01*
X71219925Y-83675234D01*
X70850705Y-84921700D01*
G37*
G36*
X69956057Y-87941982D02*
G01*
X68709591Y-87572762D01*
X69078811Y-86326296D01*
X70325277Y-86695516D01*
X69956057Y-87941982D01*
G37*
G36*
X69430682Y-90419805D02*
G01*
X67800688Y-89936979D01*
X68283514Y-88306985D01*
X69913508Y-88789811D01*
X69430682Y-90419805D01*
G37*
D19*
X71072418Y-81884601D03*
D11*
G36*
X87554204Y-95605700D02*
G01*
X86307738Y-95236480D01*
X86676958Y-93990014D01*
X87923424Y-94359234D01*
X87554204Y-95605700D01*
G37*
G36*
X86659556Y-98625982D02*
G01*
X85413090Y-98256762D01*
X85782310Y-97010296D01*
X87028776Y-97379516D01*
X86659556Y-98625982D01*
G37*
G36*
X86134181Y-101103805D02*
G01*
X84504187Y-100620979D01*
X84987013Y-98990985D01*
X86617007Y-99473811D01*
X86134181Y-101103805D01*
G37*
D19*
X87775917Y-92568601D03*
D11*
G36*
X105251704Y-102933802D02*
G01*
X104005238Y-102564582D01*
X104374458Y-101318116D01*
X105620924Y-101687336D01*
X105251704Y-102933802D01*
G37*
G36*
X104357056Y-105954084D02*
G01*
X103110590Y-105584864D01*
X103479810Y-104338398D01*
X104726276Y-104707618D01*
X104357056Y-105954084D01*
G37*
G36*
X103831681Y-108431907D02*
G01*
X102201687Y-107949081D01*
X102684513Y-106319087D01*
X104314507Y-106801913D01*
X103831681Y-108431907D01*
G37*
D19*
X105473417Y-99896703D03*
D11*
G36*
X178403288Y-106853213D02*
G01*
X177156822Y-107222433D01*
X176787602Y-105975967D01*
X178034068Y-105606747D01*
X178403288Y-106853213D01*
G37*
G36*
X179297936Y-109873495D02*
G01*
X178051470Y-110242715D01*
X177682250Y-108996249D01*
X178928716Y-108627029D01*
X179297936Y-109873495D01*
G37*
G36*
X180206839Y-112237712D02*
G01*
X178576845Y-112720538D01*
X178094019Y-111090544D01*
X179724013Y-110607718D01*
X180206839Y-112237712D01*
G37*
D19*
X176935109Y-104185334D03*
D11*
G36*
X196100788Y-99525112D02*
G01*
X194854322Y-99894332D01*
X194485102Y-98647866D01*
X195731568Y-98278646D01*
X196100788Y-99525112D01*
G37*
G36*
X196995436Y-102545394D02*
G01*
X195748970Y-102914614D01*
X195379750Y-101668148D01*
X196626216Y-101298928D01*
X196995436Y-102545394D01*
G37*
G36*
X197904339Y-104909611D02*
G01*
X196274345Y-105392437D01*
X195791519Y-103762443D01*
X197421513Y-103279617D01*
X197904339Y-104909611D01*
G37*
D19*
X194632609Y-96857233D03*
D11*
G36*
X212804289Y-88841111D02*
G01*
X211557823Y-89210331D01*
X211188603Y-87963865D01*
X212435069Y-87594645D01*
X212804289Y-88841111D01*
G37*
G36*
X213698937Y-91861393D02*
G01*
X212452471Y-92230613D01*
X212083251Y-90984147D01*
X213329717Y-90614927D01*
X213698937Y-91861393D01*
G37*
G36*
X214607840Y-94225610D02*
G01*
X212977846Y-94708436D01*
X212495020Y-93078442D01*
X214125014Y-92595616D01*
X214607840Y-94225610D01*
G37*
D19*
X211336110Y-86173232D03*
D11*
G36*
X232347789Y-87745312D02*
G01*
X231101323Y-88114532D01*
X230732103Y-86868066D01*
X231978569Y-86498846D01*
X232347789Y-87745312D01*
G37*
G36*
X233242437Y-90765594D02*
G01*
X231995971Y-91134814D01*
X231626751Y-89888348D01*
X232873217Y-89519128D01*
X233242437Y-90765594D01*
G37*
G36*
X234151340Y-93129811D02*
G01*
X232521346Y-93612637D01*
X232038520Y-91982643D01*
X233668514Y-91499817D01*
X234151340Y-93129811D01*
G37*
D19*
X230879610Y-85077433D03*
D11*
G36*
X253311790Y-91443613D02*
G01*
X252065324Y-91812833D01*
X251696104Y-90566367D01*
X252942570Y-90197147D01*
X253311790Y-91443613D01*
G37*
G36*
X254206438Y-94463895D02*
G01*
X252959972Y-94833115D01*
X252590752Y-93586649D01*
X253837218Y-93217429D01*
X254206438Y-94463895D01*
G37*
G36*
X255115341Y-96828112D02*
G01*
X253485347Y-97310938D01*
X253002521Y-95680944D01*
X254632515Y-95198118D01*
X255115341Y-96828112D01*
G37*
D19*
X251843611Y-88775734D03*
D11*
G36*
X271576789Y-86033112D02*
G01*
X270330323Y-86402332D01*
X269961103Y-85155866D01*
X271207569Y-84786646D01*
X271576789Y-86033112D01*
G37*
G36*
X272471437Y-89053394D02*
G01*
X271224971Y-89422614D01*
X270855751Y-88176148D01*
X272102217Y-87806928D01*
X272471437Y-89053394D01*
G37*
G36*
X273380340Y-91417611D02*
G01*
X271750346Y-91900437D01*
X271267520Y-90270443D01*
X272897514Y-89787617D01*
X273380340Y-91417611D01*
G37*
D19*
X270108610Y-83365233D03*
D11*
G36*
X76846206Y-112302101D02*
G01*
X75599740Y-111932881D01*
X75968960Y-110686415D01*
X77215426Y-111055635D01*
X76846206Y-112302101D01*
G37*
G36*
X75951558Y-115322383D02*
G01*
X74705092Y-114953163D01*
X75074312Y-113706697D01*
X76320778Y-114075917D01*
X75951558Y-115322383D01*
G37*
G36*
X75426183Y-117800206D02*
G01*
X73796189Y-117317380D01*
X74279015Y-115687386D01*
X75909009Y-116170212D01*
X75426183Y-117800206D01*
G37*
D19*
X77067919Y-109265002D03*
D11*
G36*
X98169131Y-121295816D02*
G01*
X97195489Y-120434410D01*
X98056895Y-119460768D01*
X99030537Y-120322174D01*
X98169131Y-121295816D01*
G37*
G36*
X96081877Y-123655026D02*
G01*
X95108235Y-122793620D01*
X95969641Y-121819978D01*
X96943283Y-122681384D01*
X96081877Y-123655026D01*
G37*
G36*
X94558553Y-125678663D02*
G01*
X93285329Y-124552209D01*
X94411783Y-123278985D01*
X95685007Y-124405439D01*
X94558553Y-125678663D01*
G37*
D19*
X99653604Y-118636970D03*
D11*
G36*
X114527317Y-137852459D02*
G01*
X114008943Y-136660281D01*
X115201121Y-136141907D01*
X115719495Y-137334085D01*
X114527317Y-137852459D01*
G37*
G36*
X111638577Y-139108519D02*
G01*
X111120203Y-137916341D01*
X112312381Y-137397967D01*
X112830755Y-138590145D01*
X111638577Y-139108519D01*
G37*
G36*
X109402751Y-140298772D02*
G01*
X108724877Y-138739770D01*
X110283879Y-138061896D01*
X110961753Y-139620898D01*
X109402751Y-140298772D01*
G37*
D19*
X116996383Y-136070092D03*
D11*
G36*
X176856652Y-150507888D02*
G01*
X176338278Y-151700066D01*
X175146100Y-151181692D01*
X175664474Y-149989514D01*
X176856652Y-150507888D01*
G37*
G36*
X179745392Y-151763948D02*
G01*
X179227018Y-152956126D01*
X178034840Y-152437752D01*
X178553214Y-151245574D01*
X179745392Y-151763948D01*
G37*
G36*
X182140718Y-152587377D02*
G01*
X181462844Y-154146379D01*
X179903842Y-153468505D01*
X180581716Y-151909503D01*
X182140718Y-152587377D01*
G37*
D19*
X173869212Y-149917699D03*
D11*
G36*
X188381985Y-130439974D02*
G01*
X187408343Y-131301380D01*
X186546937Y-130327738D01*
X187520579Y-129466332D01*
X188381985Y-130439974D01*
G37*
G36*
X190469239Y-132799184D02*
G01*
X189495597Y-133660590D01*
X188634191Y-132686948D01*
X189607833Y-131825542D01*
X190469239Y-132799184D01*
G37*
G36*
X192292145Y-134557773D02*
G01*
X191018921Y-135684227D01*
X189892467Y-134411003D01*
X191165691Y-133284549D01*
X192292145Y-134557773D01*
G37*
D19*
X185923870Y-128642534D03*
D11*
G36*
X206808789Y-116221514D02*
G01*
X205562323Y-116590734D01*
X205193103Y-115344268D01*
X206439569Y-114975048D01*
X206808789Y-116221514D01*
G37*
G36*
X207703437Y-119241796D02*
G01*
X206456971Y-119611016D01*
X206087751Y-118364550D01*
X207334217Y-117995330D01*
X207703437Y-119241796D01*
G37*
G36*
X208612340Y-121606013D02*
G01*
X206982346Y-122088839D01*
X206499520Y-120458845D01*
X208129514Y-119976019D01*
X208612340Y-121606013D01*
G37*
D19*
X205340610Y-113553635D03*
D10*
X29175662Y-48687896D03*
D11*
G36*
X25963731Y-37578157D02*
G01*
X25225291Y-40071088D01*
X22684419Y-39318447D01*
X23422859Y-36825516D01*
X25963731Y-37578157D01*
G37*
D15*
X35722157Y-44473658D03*
X25980549Y-41588062D03*
D13*
X33783057Y-46548361D03*
D14*
X30851353Y-43030860D03*
D13*
X26973153Y-47180265D03*
D12*
X27919649Y-39513359D03*
X34729553Y-38881455D03*
D11*
G36*
X39964783Y-39076367D02*
G01*
X39226343Y-41569298D01*
X36685471Y-40816657D01*
X37423911Y-38323726D01*
X39964783Y-39076367D01*
G37*
D10*
X24977996Y-45254298D03*
X47440961Y-54098895D03*
D11*
G36*
X44229030Y-42989156D02*
G01*
X43490590Y-45482087D01*
X40949718Y-44729446D01*
X41688158Y-42236515D01*
X44229030Y-42989156D01*
G37*
D15*
X53987456Y-49884657D03*
X44245848Y-46999061D03*
D13*
X52048356Y-51959360D03*
D14*
X49116652Y-48441859D03*
D13*
X45238452Y-52591264D03*
D12*
X46184948Y-44924358D03*
X52994852Y-44292454D03*
D11*
G36*
X58230082Y-44487366D02*
G01*
X57491642Y-46980297D01*
X54950770Y-46227656D01*
X55689210Y-43734725D01*
X58230082Y-44487366D01*
G37*
D10*
X43243295Y-50665297D03*
X68404562Y-50399896D03*
D11*
G36*
X65192631Y-39290157D02*
G01*
X64454191Y-41783088D01*
X61913319Y-41030447D01*
X62651759Y-38537516D01*
X65192631Y-39290157D01*
G37*
D15*
X74951057Y-46185658D03*
X65209449Y-43300062D03*
D13*
X73011957Y-48260361D03*
D14*
X70080253Y-44742860D03*
D13*
X66202053Y-48892265D03*
D12*
X67148549Y-41225359D03*
X73958453Y-40593455D03*
D11*
G36*
X79193683Y-40788367D02*
G01*
X78455243Y-43281298D01*
X75914371Y-42528657D01*
X76652811Y-40035726D01*
X79193683Y-40788367D01*
G37*
D10*
X64206896Y-46966298D03*
X87948163Y-51495896D03*
D11*
G36*
X84736232Y-40386157D02*
G01*
X83997792Y-42879088D01*
X81456920Y-42126447D01*
X82195360Y-39633516D01*
X84736232Y-40386157D01*
G37*
D15*
X94494658Y-47281658D03*
X84753050Y-44396062D03*
D13*
X92555558Y-49356361D03*
D14*
X89623854Y-45838860D03*
D13*
X85745654Y-49988265D03*
D12*
X86692150Y-42321359D03*
X93502054Y-41689455D03*
D11*
G36*
X98737284Y-41884367D02*
G01*
X97998844Y-44377298D01*
X95457972Y-43624657D01*
X96196412Y-41131726D01*
X98737284Y-41884367D01*
G37*
D10*
X83750497Y-48062298D03*
X104651661Y-62179895D03*
D11*
G36*
X101439730Y-51070156D02*
G01*
X100701290Y-53563087D01*
X98160418Y-52810446D01*
X98898858Y-50317515D01*
X101439730Y-51070156D01*
G37*
D15*
X111198156Y-57965657D03*
X101456548Y-55080061D03*
D13*
X109259056Y-60040360D03*
D14*
X106327352Y-56522859D03*
D13*
X102449152Y-60672264D03*
D12*
X103395648Y-53005358D03*
X110205552Y-52373454D03*
D11*
G36*
X115440782Y-52568366D02*
G01*
X114702342Y-55061297D01*
X112161470Y-54308656D01*
X112899910Y-51815725D01*
X115440782Y-52568366D01*
G37*
D10*
X100453995Y-58746297D03*
X174537544Y-69508295D03*
D11*
G36*
X165792993Y-61940227D02*
G01*
X166531433Y-64433158D01*
X163990561Y-65185799D01*
X163252121Y-62692868D01*
X165792993Y-61940227D01*
G37*
D15*
X177732657Y-62408461D03*
X167991049Y-65294057D03*
D13*
X177236355Y-65204563D03*
D14*
X172861853Y-63851259D03*
D13*
X171869249Y-69443462D03*
D12*
X168487351Y-62497955D03*
X173854457Y-58259056D03*
D11*
G36*
X178351247Y-55571212D02*
G01*
X179089687Y-58064143D01*
X176548815Y-58816784D01*
X175810375Y-56323853D01*
X178351247Y-55571212D01*
G37*
D10*
X169147013Y-68914851D03*
X192235044Y-62179895D03*
D11*
G36*
X183490493Y-54611827D02*
G01*
X184228933Y-57104758D01*
X181688061Y-57857399D01*
X180949621Y-55364468D01*
X183490493Y-54611827D01*
G37*
D15*
X195430157Y-55080061D03*
X185688549Y-57965657D03*
D13*
X194933855Y-57876163D03*
D14*
X190559353Y-56522859D03*
D13*
X189566749Y-62115062D03*
D12*
X186184851Y-55169555D03*
X191551957Y-50930656D03*
D11*
G36*
X196048747Y-48242812D02*
G01*
X196787187Y-50735743D01*
X194246315Y-51488384D01*
X193507875Y-48995453D01*
X196048747Y-48242812D01*
G37*
D10*
X186844513Y-61586451D03*
X208938544Y-51495896D03*
D11*
G36*
X200193993Y-43927828D02*
G01*
X200932433Y-46420759D01*
X198391561Y-47173400D01*
X197653121Y-44680469D01*
X200193993Y-43927828D01*
G37*
D15*
X212133657Y-44396062D03*
X202392049Y-47281658D03*
D13*
X211637355Y-47192164D03*
D14*
X207262853Y-45838860D03*
D13*
X206270249Y-51431063D03*
D12*
X202888351Y-44485556D03*
X208255457Y-40246657D03*
D11*
G36*
X212752247Y-37558813D02*
G01*
X213490687Y-40051744D01*
X210949815Y-40804385D01*
X210211375Y-38311454D01*
X212752247Y-37558813D01*
G37*
D10*
X203548013Y-50902452D03*
X228482143Y-50399895D03*
D11*
G36*
X219737592Y-42831827D02*
G01*
X220476032Y-45324758D01*
X217935160Y-46077399D01*
X217196720Y-43584468D01*
X219737592Y-42831827D01*
G37*
D15*
X231677256Y-43300061D03*
X221935648Y-46185657D03*
D13*
X231180954Y-46096163D03*
D14*
X226806452Y-44742859D03*
D13*
X225813848Y-50335062D03*
D12*
X222431950Y-43389555D03*
X227799056Y-39150656D03*
D11*
G36*
X232295846Y-36462812D02*
G01*
X233034286Y-38955743D01*
X230493414Y-39708384D01*
X229754974Y-37215453D01*
X232295846Y-36462812D01*
G37*
D10*
X223091612Y-49806451D03*
X249445742Y-54098896D03*
D11*
G36*
X240701191Y-46530828D02*
G01*
X241439631Y-49023759D01*
X238898759Y-49776400D01*
X238160319Y-47283469D01*
X240701191Y-46530828D01*
G37*
D15*
X252640855Y-46999062D03*
X242899247Y-49884658D03*
D13*
X252144553Y-49795164D03*
D14*
X247770051Y-48441860D03*
D13*
X246777447Y-54034063D03*
D12*
X243395549Y-47088556D03*
X248762655Y-42849657D03*
D11*
G36*
X253259445Y-40161813D02*
G01*
X253997885Y-42654744D01*
X251457013Y-43407385D01*
X250718573Y-40914454D01*
X253259445Y-40161813D01*
G37*
D10*
X244055211Y-53505452D03*
X267711045Y-48687896D03*
D11*
G36*
X258966494Y-41119828D02*
G01*
X259704934Y-43612759D01*
X257164062Y-44365400D01*
X256425622Y-41872469D01*
X258966494Y-41119828D01*
G37*
D15*
X270906158Y-41588062D03*
X261164550Y-44473658D03*
D13*
X270409856Y-44384164D03*
D14*
X266035354Y-43030860D03*
D13*
X265042750Y-48623063D03*
D12*
X261660852Y-41677556D03*
X267027958Y-37438657D03*
D11*
G36*
X271524748Y-34750813D02*
G01*
X272263188Y-37243744D01*
X269722316Y-37996385D01*
X268983876Y-35503454D01*
X271524748Y-34750813D01*
G37*
D10*
X262320514Y-48094452D03*
X42030662Y-72364195D03*
D11*
G36*
X38818731Y-61254456D02*
G01*
X38080291Y-63747387D01*
X35539419Y-62994746D01*
X36277859Y-60501815D01*
X38818731Y-61254456D01*
G37*
D15*
X48577157Y-68149957D03*
X38835549Y-65264361D03*
D13*
X46638057Y-70224660D03*
D14*
X43706353Y-66707159D03*
D13*
X39828153Y-70856564D03*
D12*
X40774649Y-63189658D03*
X47584553Y-62557754D03*
D11*
G36*
X52819783Y-62752666D02*
G01*
X52081343Y-65245597D01*
X49540471Y-64492956D01*
X50278911Y-62000025D01*
X52819783Y-62752666D01*
G37*
D10*
X37832996Y-68930597D03*
X62994162Y-68665897D03*
D11*
G36*
X59782231Y-57556158D02*
G01*
X59043791Y-60049089D01*
X56502919Y-59296448D01*
X57241359Y-56803517D01*
X59782231Y-57556158D01*
G37*
D15*
X69540657Y-64451659D03*
X59799049Y-61566063D03*
D13*
X67601557Y-66526362D03*
D14*
X64669853Y-63008861D03*
D13*
X60791653Y-67158266D03*
D12*
X61738149Y-59491360D03*
X68548053Y-58859456D03*
D11*
G36*
X73783283Y-59054368D02*
G01*
X73044843Y-61547299D01*
X70503971Y-60794658D01*
X71242411Y-58301727D01*
X73783283Y-59054368D01*
G37*
D10*
X58796496Y-65232299D03*
X82537660Y-69761696D03*
D11*
G36*
X79325729Y-58651957D02*
G01*
X78587289Y-61144888D01*
X76046417Y-60392247D01*
X76784857Y-57899316D01*
X79325729Y-58651957D01*
G37*
D15*
X89084155Y-65547458D03*
X79342547Y-62661862D03*
D13*
X87145055Y-67622161D03*
D14*
X84213351Y-64104660D03*
D13*
X80335151Y-68254065D03*
D12*
X81281647Y-60587159D03*
X88091551Y-59955255D03*
D11*
G36*
X93326781Y-60150167D02*
G01*
X92588341Y-62643098D01*
X90047469Y-61890457D01*
X90785909Y-59397526D01*
X93326781Y-60150167D01*
G37*
D10*
X78339994Y-66328098D03*
X99241162Y-80445697D03*
D11*
G36*
X96029231Y-69335958D02*
G01*
X95290791Y-71828889D01*
X92749919Y-71076248D01*
X93488359Y-68583317D01*
X96029231Y-69335958D01*
G37*
D15*
X105787657Y-76231459D03*
X96046049Y-73345863D03*
D13*
X103848557Y-78306162D03*
D14*
X100916853Y-74788661D03*
D13*
X97038653Y-78938066D03*
D12*
X97985149Y-71271160D03*
X104795053Y-70639256D03*
D11*
G36*
X110030283Y-70834168D02*
G01*
X109291843Y-73327099D01*
X106750971Y-72574458D01*
X107489411Y-70081527D01*
X110030283Y-70834168D01*
G37*
D10*
X95043496Y-77012099D03*
X179948043Y-87773795D03*
D11*
G36*
X171203492Y-80205727D02*
G01*
X171941932Y-82698658D01*
X169401060Y-83451299D01*
X168662620Y-80958368D01*
X171203492Y-80205727D01*
G37*
D15*
X183143156Y-80673961D03*
X173401548Y-83559557D03*
D13*
X182646854Y-83470063D03*
D14*
X178272352Y-82116759D03*
D13*
X177279748Y-87708962D03*
D12*
X173897850Y-80763455D03*
X179264956Y-76524556D03*
D11*
G36*
X183761746Y-73836712D02*
G01*
X184500186Y-76329643D01*
X181959314Y-77082284D01*
X181220874Y-74589353D01*
X183761746Y-73836712D01*
G37*
D10*
X174557512Y-87180351D03*
X197645543Y-80445697D03*
D11*
G36*
X188900992Y-72877629D02*
G01*
X189639432Y-75370560D01*
X187098560Y-76123201D01*
X186360120Y-73630270D01*
X188900992Y-72877629D01*
G37*
D15*
X200840656Y-73345863D03*
X191099048Y-76231459D03*
D13*
X200344354Y-76141965D03*
D14*
X195969852Y-74788661D03*
D13*
X194977248Y-80380864D03*
D12*
X191595350Y-73435357D03*
X196962456Y-69196458D03*
D11*
G36*
X201459246Y-66508614D02*
G01*
X202197686Y-69001545D01*
X199656814Y-69754186D01*
X198918374Y-67261255D01*
X201459246Y-66508614D01*
G37*
D10*
X192255012Y-79852253D03*
X214349043Y-69761695D03*
D11*
G36*
X205604492Y-62193627D02*
G01*
X206342932Y-64686558D01*
X203802060Y-65439199D01*
X203063620Y-62946268D01*
X205604492Y-62193627D01*
G37*
D15*
X217544156Y-62661861D03*
X207802548Y-65547457D03*
D13*
X217047854Y-65457963D03*
D14*
X212673352Y-64104659D03*
D13*
X211680748Y-69696862D03*
D12*
X208298850Y-62751355D03*
X213665956Y-58512456D03*
D11*
G36*
X218162746Y-55824612D02*
G01*
X218901186Y-58317543D01*
X216360314Y-59070184D01*
X215621874Y-56577253D01*
X218162746Y-55824612D01*
G37*
D10*
X208958512Y-69168251D03*
X233892544Y-68665897D03*
D11*
G36*
X225147993Y-61097829D02*
G01*
X225886433Y-63590760D01*
X223345561Y-64343401D01*
X222607121Y-61850470D01*
X225147993Y-61097829D01*
G37*
D15*
X237087657Y-61566063D03*
X227346049Y-64451659D03*
D13*
X236591355Y-64362165D03*
D14*
X232216853Y-63008861D03*
D13*
X231224249Y-68601064D03*
D12*
X227842351Y-61655557D03*
X233209457Y-57416658D03*
D11*
G36*
X237706247Y-54728814D02*
G01*
X238444687Y-57221745D01*
X235903815Y-57974386D01*
X235165375Y-55481455D01*
X237706247Y-54728814D01*
G37*
D10*
X228502013Y-68072453D03*
X254856043Y-72364198D03*
D11*
G36*
X246111492Y-64796130D02*
G01*
X246849932Y-67289061D01*
X244309060Y-68041702D01*
X243570620Y-65548771D01*
X246111492Y-64796130D01*
G37*
D15*
X258051156Y-65264364D03*
X248309548Y-68149960D03*
D13*
X257554854Y-68060466D03*
D14*
X253180352Y-66707162D03*
D13*
X252187748Y-72299365D03*
D12*
X248805850Y-65353858D03*
X254172956Y-61114959D03*
D11*
G36*
X258669746Y-58427115D02*
G01*
X259408186Y-60920046D01*
X256867314Y-61672687D01*
X256128874Y-59179756D01*
X258669746Y-58427115D01*
G37*
D10*
X249465512Y-71770754D03*
X273122045Y-66953695D03*
D11*
G36*
X264377494Y-59385627D02*
G01*
X265115934Y-61878558D01*
X262575062Y-62631199D01*
X261836622Y-60138268D01*
X264377494Y-59385627D01*
G37*
D15*
X276317158Y-59853861D03*
X266575550Y-62739457D03*
D13*
X275820856Y-62649963D03*
D14*
X271446354Y-61296659D03*
D13*
X270453750Y-66888862D03*
D12*
X267071852Y-59943355D03*
X272438958Y-55704456D03*
D11*
G36*
X276935748Y-53016612D02*
G01*
X277674188Y-55509543D01*
X275133316Y-56262184D01*
X274394876Y-53769253D01*
X276935748Y-53016612D01*
G37*
D10*
X267731514Y-66360251D03*
X18354660Y-85219196D03*
D11*
G36*
X15142729Y-74109457D02*
G01*
X14404289Y-76602388D01*
X11863417Y-75849747D01*
X12601857Y-73356816D01*
X15142729Y-74109457D01*
G37*
D15*
X24901155Y-81004958D03*
X15159547Y-78119362D03*
D13*
X22962055Y-83079661D03*
D14*
X20030351Y-79562160D03*
D13*
X16152151Y-83711565D03*
D12*
X17098647Y-76044659D03*
X23908551Y-75412755D03*
D11*
G36*
X29143781Y-75607667D02*
G01*
X28405341Y-78100598D01*
X25864469Y-77347957D01*
X26602909Y-74855026D01*
X29143781Y-75607667D01*
G37*
D10*
X14156994Y-81785598D03*
X36619661Y-90629695D03*
D11*
G36*
X33407730Y-79519956D02*
G01*
X32669290Y-82012887D01*
X30128418Y-81260246D01*
X30866858Y-78767315D01*
X33407730Y-79519956D01*
G37*
D15*
X43166156Y-86415457D03*
X33424548Y-83529861D03*
D13*
X41227056Y-88490160D03*
D14*
X38295352Y-84972659D03*
D13*
X34417152Y-89122064D03*
D12*
X35363648Y-81455158D03*
X42173552Y-80823254D03*
D11*
G36*
X47408782Y-81018166D02*
G01*
X46670342Y-83511097D01*
X44129470Y-82758456D01*
X44867910Y-80265525D01*
X47408782Y-81018166D01*
G37*
D10*
X32421995Y-87196097D03*
X57583664Y-86931395D03*
D11*
G36*
X54371733Y-75821656D02*
G01*
X53633293Y-78314587D01*
X51092421Y-77561946D01*
X51830861Y-75069015D01*
X54371733Y-75821656D01*
G37*
D15*
X64130159Y-82717157D03*
X54388551Y-79831561D03*
D13*
X62191059Y-84791860D03*
D14*
X59259355Y-81274359D03*
D13*
X55381155Y-85423764D03*
D12*
X56327651Y-77756858D03*
X63137555Y-77124954D03*
D11*
G36*
X68372785Y-77319866D02*
G01*
X67634345Y-79812797D01*
X65093473Y-79060156D01*
X65831913Y-76567225D01*
X68372785Y-77319866D01*
G37*
D10*
X53385998Y-83497797D03*
X77127161Y-88027196D03*
D11*
G36*
X73915230Y-76917457D02*
G01*
X73176790Y-79410388D01*
X70635918Y-78657747D01*
X71374358Y-76164816D01*
X73915230Y-76917457D01*
G37*
D15*
X83673656Y-83812958D03*
X73932048Y-80927362D03*
D13*
X81734556Y-85887661D03*
D14*
X78802852Y-82370160D03*
D13*
X74924652Y-86519565D03*
D12*
X75871148Y-78852659D03*
X82681052Y-78220755D03*
D11*
G36*
X87916282Y-78415667D02*
G01*
X87177842Y-80908598D01*
X84636970Y-80155957D01*
X85375410Y-77663026D01*
X87916282Y-78415667D01*
G37*
D10*
X72929495Y-84593598D03*
X93830663Y-98711195D03*
D11*
G36*
X90618732Y-87601456D02*
G01*
X89880292Y-90094387D01*
X87339420Y-89341746D01*
X88077860Y-86848815D01*
X90618732Y-87601456D01*
G37*
D15*
X100377158Y-94496957D03*
X90635550Y-91611361D03*
D13*
X98438058Y-96571660D03*
D14*
X95506354Y-93054159D03*
D13*
X91628154Y-97203564D03*
D12*
X92574650Y-89536658D03*
X99384554Y-88904754D03*
D11*
G36*
X104619784Y-89099666D02*
G01*
X103881344Y-91592597D01*
X101340472Y-90839956D01*
X102078912Y-88347025D01*
X104619784Y-89099666D01*
G37*
D10*
X89632997Y-95277597D03*
X111528163Y-106039296D03*
D11*
G36*
X108316232Y-94929557D02*
G01*
X107577792Y-97422488D01*
X105036920Y-96669847D01*
X105775360Y-94176916D01*
X108316232Y-94929557D01*
G37*
D15*
X118074658Y-101825058D03*
X108333050Y-98939462D03*
D13*
X116135558Y-103899761D03*
D14*
X113203854Y-100382260D03*
D13*
X109325654Y-104531665D03*
D12*
X110272150Y-96864759D03*
X117082054Y-96232855D03*
D11*
G36*
X122317284Y-96427767D02*
G01*
X121578844Y-98920698D01*
X119037972Y-98168057D01*
X119776412Y-95675126D01*
X122317284Y-96427767D01*
G37*
D10*
X107330497Y-102605698D03*
X185358544Y-106039296D03*
D11*
G36*
X176613993Y-98471228D02*
G01*
X177352433Y-100964159D01*
X174811561Y-101716800D01*
X174073121Y-99223869D01*
X176613993Y-98471228D01*
G37*
D15*
X188553657Y-98939462D03*
X178812049Y-101825058D03*
D13*
X188057355Y-101735564D03*
D14*
X183682853Y-100382260D03*
D13*
X182690249Y-105974463D03*
D12*
X179308351Y-99028956D03*
X184675457Y-94790057D03*
D11*
G36*
X189172247Y-92102213D02*
G01*
X189910687Y-94595144D01*
X187369815Y-95347785D01*
X186631375Y-92854854D01*
X189172247Y-92102213D01*
G37*
D10*
X179968013Y-105445852D03*
X203056043Y-98711194D03*
D11*
G36*
X194311492Y-91143126D02*
G01*
X195049932Y-93636057D01*
X192509060Y-94388698D01*
X191770620Y-91895767D01*
X194311492Y-91143126D01*
G37*
D15*
X206251156Y-91611360D03*
X196509548Y-94496956D03*
D13*
X205754854Y-94407462D03*
D14*
X201380352Y-93054158D03*
D13*
X200387748Y-98646361D03*
D12*
X197005850Y-91700854D03*
X202372956Y-87461955D03*
D11*
G36*
X206869746Y-84774111D02*
G01*
X207608186Y-87267042D01*
X205067314Y-88019683D01*
X204328874Y-85526752D01*
X206869746Y-84774111D01*
G37*
D10*
X197665512Y-98117750D03*
X219759543Y-88027196D03*
D11*
G36*
X211014992Y-80459128D02*
G01*
X211753432Y-82952059D01*
X209212560Y-83704700D01*
X208474120Y-81211769D01*
X211014992Y-80459128D01*
G37*
D15*
X222954656Y-80927362D03*
X213213048Y-83812958D03*
D13*
X222458354Y-83723464D03*
D14*
X218083852Y-82370160D03*
D13*
X217091248Y-87962363D03*
D12*
X213709350Y-81016856D03*
X219076456Y-76777957D03*
D11*
G36*
X223573246Y-74090113D02*
G01*
X224311686Y-76583044D01*
X221770814Y-77335685D01*
X221032374Y-74842754D01*
X223573246Y-74090113D01*
G37*
D10*
X214369012Y-87433752D03*
X239303043Y-86931396D03*
D11*
G36*
X230558492Y-79363328D02*
G01*
X231296932Y-81856259D01*
X228756060Y-82608900D01*
X228017620Y-80115969D01*
X230558492Y-79363328D01*
G37*
D15*
X242498156Y-79831562D03*
X232756548Y-82717158D03*
D13*
X242001854Y-82627664D03*
D14*
X237627352Y-81274360D03*
D13*
X236634748Y-86866563D03*
D12*
X233252850Y-79921056D03*
X238619956Y-75682157D03*
D11*
G36*
X243116746Y-72994313D02*
G01*
X243855186Y-75487244D01*
X241314314Y-76239885D01*
X240575874Y-73746954D01*
X243116746Y-72994313D01*
G37*
D10*
X233912512Y-86337952D03*
X260267045Y-90629696D03*
D11*
G36*
X251522494Y-83061628D02*
G01*
X252260934Y-85554559D01*
X249720062Y-86307200D01*
X248981622Y-83814269D01*
X251522494Y-83061628D01*
G37*
D15*
X263462158Y-83529862D03*
X253720550Y-86415458D03*
D13*
X262965856Y-86325964D03*
D14*
X258591354Y-84972660D03*
D13*
X257598750Y-90564863D03*
D12*
X254216852Y-83619356D03*
X259583958Y-79380457D03*
D11*
G36*
X264080748Y-76692613D02*
G01*
X264819188Y-79185544D01*
X262278316Y-79938185D01*
X261539876Y-77445254D01*
X264080748Y-76692613D01*
G37*
D10*
X254876514Y-90036252D03*
X278532045Y-85219196D03*
D11*
G36*
X269787494Y-77651128D02*
G01*
X270525934Y-80144059D01*
X267985062Y-80896700D01*
X267246622Y-78403769D01*
X269787494Y-77651128D01*
G37*
D15*
X281727158Y-78119362D03*
X271985550Y-81004958D03*
D13*
X281230856Y-80915464D03*
D14*
X276856354Y-79562160D03*
D13*
X275863750Y-85154363D03*
D12*
X272481852Y-78208856D03*
X277848958Y-73969957D03*
D11*
G36*
X282345748Y-71282113D02*
G01*
X283084188Y-73775044D01*
X280543316Y-74527685D01*
X279804876Y-72034754D01*
X282345748Y-71282113D01*
G37*
D10*
X273141514Y-84625752D03*
X83122663Y-115407596D03*
D11*
G36*
X79910732Y-104297857D02*
G01*
X79172292Y-106790788D01*
X76631420Y-106038147D01*
X77369860Y-103545216D01*
X79910732Y-104297857D01*
G37*
D15*
X89669158Y-111193358D03*
X79927550Y-108307762D03*
D13*
X87730058Y-113268061D03*
D14*
X84798354Y-109750560D03*
D13*
X80920154Y-113899965D03*
D12*
X81866650Y-106233059D03*
X88676554Y-105601155D03*
D11*
G36*
X93911784Y-105796067D02*
G01*
X93173344Y-108288998D01*
X90632472Y-107536357D01*
X91370912Y-105043426D01*
X93911784Y-105796067D01*
G37*
D10*
X78924997Y-111973998D03*
X213764043Y-115407596D03*
D11*
G36*
X205019492Y-107839528D02*
G01*
X205757932Y-110332459D01*
X203217060Y-111085100D01*
X202478620Y-108592169D01*
X205019492Y-107839528D01*
G37*
D15*
X216959156Y-108307762D03*
X207217548Y-111193358D03*
D13*
X216462854Y-111103864D03*
D14*
X212088352Y-109750560D03*
D13*
X211095748Y-115342763D03*
D12*
X207713850Y-108397256D03*
X213080956Y-104158357D03*
D11*
G36*
X217577746Y-101470513D02*
G01*
X218316186Y-103963444D01*
X215775314Y-104716085D01*
X215036874Y-102223154D01*
X217577746Y-101470513D01*
G37*
D10*
X208373512Y-114814152D03*
M02*
