G04 #@! TF.GenerationSoftware,KiCad,Pcbnew,5.1.6-c6e7f7d~87~ubuntu16.04.1*
G04 #@! TF.CreationDate,2020-08-10T13:21:27+02:00*
G04 #@! TF.ProjectId,ack42_pcb,61636b34-325f-4706-9362-2e6b69636164,rev?*
G04 #@! TF.SameCoordinates,Original*
G04 #@! TF.FileFunction,Copper,L1,Top*
G04 #@! TF.FilePolarity,Positive*
%FSLAX46Y46*%
G04 Gerber Fmt 4.6, Leading zero omitted, Abs format (unit mm)*
G04 Created by KiCad (PCBNEW 5.1.6-c6e7f7d~87~ubuntu16.04.1) date 2020-08-10 13:21:27*
%MOMM*%
%LPD*%
G01*
G04 APERTURE LIST*
G04 #@! TA.AperFunction,ComponentPad*
%ADD10C,2.000000*%
G04 #@! TD*
G04 #@! TA.AperFunction,ComponentPad*
%ADD11C,2.286000*%
G04 #@! TD*
G04 #@! TA.AperFunction,ComponentPad*
%ADD12C,4.400000*%
G04 #@! TD*
G04 #@! TA.AperFunction,ComponentPad*
%ADD13C,1.752600*%
G04 #@! TD*
G04 #@! TA.AperFunction,ComponentPad*
%ADD14R,1.752600X1.752600*%
G04 #@! TD*
G04 #@! TA.AperFunction,ComponentPad*
%ADD15C,0.100000*%
G04 #@! TD*
G04 #@! TA.AperFunction,ComponentPad*
%ADD16C,1.600000*%
G04 #@! TD*
G04 #@! TA.AperFunction,ComponentPad*
%ADD17C,6.400000*%
G04 #@! TD*
G04 #@! TA.AperFunction,ViaPad*
%ADD18C,0.600000*%
G04 #@! TD*
G04 #@! TA.AperFunction,Conductor*
%ADD19C,0.250000*%
G04 #@! TD*
G04 #@! TA.AperFunction,NonConductor*
%ADD20C,0.254000*%
G04 #@! TD*
G04 APERTURE END LIST*
D10*
X189205331Y-128503191D03*
D11*
X191895915Y-127831809D03*
X194968729Y-121721824D03*
D10*
X194341611Y-126762898D03*
X176784336Y-148404606D03*
D11*
X178939096Y-146659037D03*
X179141820Y-139822883D03*
D10*
X180703907Y-144656679D03*
X116114878Y-139234005D03*
D11*
X115921964Y-142000372D03*
X120783353Y-146810881D03*
D10*
X116182798Y-144656679D03*
X100191819Y-121876989D03*
D11*
X101186097Y-124465698D03*
X107625020Y-126770988D03*
D10*
X102545096Y-126762897D03*
D12*
X155943352Y-90022060D03*
X140943352Y-90022060D03*
D13*
X156291952Y-57332858D03*
X141051952Y-85272858D03*
X155834752Y-59872858D03*
X156291952Y-62412858D03*
X155834752Y-64952858D03*
X156291952Y-67492858D03*
X155834752Y-70032858D03*
X156291952Y-72572858D03*
X155834752Y-75112858D03*
X156291952Y-77652858D03*
X155834752Y-80192858D03*
X156291952Y-82732858D03*
X155834752Y-85272858D03*
X140594752Y-82732858D03*
X141051952Y-80192858D03*
X140594752Y-77652858D03*
X141051952Y-75112858D03*
X140594752Y-72572858D03*
X141051952Y-70032858D03*
X140594752Y-67492858D03*
X141051952Y-64952858D03*
X140594752Y-62412858D03*
X141051952Y-59872858D03*
D14*
X140594752Y-57332858D03*
G04 #@! TA.AperFunction,ComponentPad*
D15*
G36*
X21445441Y-51018363D02*
G01*
X19911329Y-50563939D01*
X20365753Y-49029827D01*
X21899865Y-49484251D01*
X21445441Y-51018363D01*
G37*
G04 #@! TD.AperFunction*
D16*
X23120917Y-42545301D03*
G04 #@! TA.AperFunction,ComponentPad*
D15*
G36*
X114618942Y-71838763D02*
G01*
X113084830Y-71384339D01*
X113539254Y-69850227D01*
X115073366Y-70304651D01*
X114618942Y-71838763D01*
G37*
G04 #@! TD.AperFunction*
D16*
X116294418Y-63365701D03*
D10*
X122349161Y-69508297D03*
D11*
X126956556Y-67368762D03*
X120146652Y-68000666D03*
D10*
X118151495Y-66074699D03*
D17*
X124822153Y-125876560D03*
X253004352Y-32576859D03*
X246631254Y-92921759D03*
X172064552Y-125876559D03*
X174069552Y-49178859D03*
X50255452Y-92921759D03*
X122817151Y-49178859D03*
X43882354Y-32576860D03*
D10*
X23764661Y-66953694D03*
D11*
X28372056Y-64814159D03*
X21562152Y-65446063D03*
D10*
X19566995Y-63520096D03*
X116938663Y-87773794D03*
D11*
X121546058Y-85634259D03*
X114736154Y-86266163D03*
D10*
X112740997Y-84340196D03*
G04 #@! TA.AperFunction,ComponentPad*
D15*
G36*
X39710742Y-56429365D02*
G01*
X38176630Y-55974941D01*
X38631054Y-54440829D01*
X40165166Y-54895253D01*
X39710742Y-56429365D01*
G37*
G04 #@! TD.AperFunction*
D16*
X41386218Y-47956303D03*
G04 #@! TA.AperFunction,ComponentPad*
D15*
G36*
X60674342Y-52730363D02*
G01*
X59140230Y-52275939D01*
X59594654Y-50741827D01*
X61128766Y-51196251D01*
X60674342Y-52730363D01*
G37*
G04 #@! TD.AperFunction*
D16*
X62349818Y-44257301D03*
G04 #@! TA.AperFunction,ComponentPad*
D15*
G36*
X80217942Y-53826366D02*
G01*
X78683830Y-53371942D01*
X79138254Y-51837830D01*
X80672366Y-52292254D01*
X80217942Y-53826366D01*
G37*
G04 #@! TD.AperFunction*
D16*
X81893418Y-45353304D03*
G04 #@! TA.AperFunction,ComponentPad*
D15*
G36*
X96921441Y-64510364D02*
G01*
X95387329Y-64055940D01*
X95841753Y-62521828D01*
X97375865Y-62976252D01*
X96921441Y-64510364D01*
G37*
G04 #@! TD.AperFunction*
D16*
X98596917Y-56037302D03*
G04 #@! TA.AperFunction,ComponentPad*
D15*
G36*
X169323699Y-75672972D02*
G01*
X167789587Y-76127396D01*
X167335163Y-74593284D01*
X168869275Y-74138860D01*
X169323699Y-75672972D01*
G37*
G04 #@! TD.AperFunction*
D16*
X166114111Y-67654334D03*
G04 #@! TA.AperFunction,ComponentPad*
D15*
G36*
X187021198Y-68344571D02*
G01*
X185487086Y-68798995D01*
X185032662Y-67264883D01*
X186566774Y-66810459D01*
X187021198Y-68344571D01*
G37*
G04 #@! TD.AperFunction*
D16*
X183811610Y-60325933D03*
G04 #@! TA.AperFunction,ComponentPad*
D15*
G36*
X203724697Y-57660571D02*
G01*
X202190585Y-58114995D01*
X201736161Y-56580883D01*
X203270273Y-56126459D01*
X203724697Y-57660571D01*
G37*
G04 #@! TD.AperFunction*
D16*
X200515109Y-49641933D03*
G04 #@! TA.AperFunction,ComponentPad*
D15*
G36*
X223268299Y-56564572D02*
G01*
X221734187Y-57018996D01*
X221279763Y-55484884D01*
X222813875Y-55030460D01*
X223268299Y-56564572D01*
G37*
G04 #@! TD.AperFunction*
D16*
X220058711Y-48545934D03*
G04 #@! TA.AperFunction,ComponentPad*
D15*
G36*
X244231896Y-60263572D02*
G01*
X242697784Y-60717996D01*
X242243360Y-59183884D01*
X243777472Y-58729460D01*
X244231896Y-60263572D01*
G37*
G04 #@! TD.AperFunction*
D16*
X241022308Y-52244934D03*
G04 #@! TA.AperFunction,ComponentPad*
D15*
G36*
X262497198Y-54852571D02*
G01*
X260963086Y-55306995D01*
X260508662Y-53772883D01*
X262042774Y-53318459D01*
X262497198Y-54852571D01*
G37*
G04 #@! TD.AperFunction*
D16*
X259287610Y-46833933D03*
G04 #@! TA.AperFunction,ComponentPad*
D15*
G36*
X16034440Y-69284163D02*
G01*
X14500328Y-68829739D01*
X14954752Y-67295627D01*
X16488864Y-67750051D01*
X16034440Y-69284163D01*
G37*
G04 #@! TD.AperFunction*
D16*
X17709916Y-60811101D03*
G04 #@! TA.AperFunction,ComponentPad*
D15*
G36*
X34300441Y-74694663D02*
G01*
X32766329Y-74240239D01*
X33220753Y-72706127D01*
X34754865Y-73160551D01*
X34300441Y-74694663D01*
G37*
G04 #@! TD.AperFunction*
D16*
X35975917Y-66221601D03*
G04 #@! TA.AperFunction,ComponentPad*
D15*
G36*
X55263940Y-70996363D02*
G01*
X53729828Y-70541939D01*
X54184252Y-69007827D01*
X55718364Y-69462251D01*
X55263940Y-70996363D01*
G37*
G04 #@! TD.AperFunction*
D16*
X56939416Y-62523301D03*
G04 #@! TA.AperFunction,ComponentPad*
D15*
G36*
X74807441Y-72092162D02*
G01*
X73273329Y-71637738D01*
X73727753Y-70103626D01*
X75261865Y-70558050D01*
X74807441Y-72092162D01*
G37*
G04 #@! TD.AperFunction*
D16*
X76482917Y-63619100D03*
G04 #@! TA.AperFunction,ComponentPad*
D15*
G36*
X91510942Y-82776164D02*
G01*
X89976830Y-82321740D01*
X90431254Y-80787628D01*
X91965366Y-81242052D01*
X91510942Y-82776164D01*
G37*
G04 #@! TD.AperFunction*
D16*
X93186418Y-74303102D03*
G04 #@! TA.AperFunction,ComponentPad*
D15*
G36*
X109208443Y-90104261D02*
G01*
X107674331Y-89649837D01*
X108128755Y-88115725D01*
X109662867Y-88570149D01*
X109208443Y-90104261D01*
G37*
G04 #@! TD.AperFunction*
D16*
X110883919Y-81631199D03*
G04 #@! TA.AperFunction,ComponentPad*
D15*
G36*
X174734197Y-93938473D02*
G01*
X173200085Y-94392897D01*
X172745661Y-92858785D01*
X174279773Y-92404361D01*
X174734197Y-93938473D01*
G37*
G04 #@! TD.AperFunction*
D16*
X171524609Y-85919835D03*
G04 #@! TA.AperFunction,ComponentPad*
D15*
G36*
X192431698Y-86610372D02*
G01*
X190897586Y-87064796D01*
X190443162Y-85530684D01*
X191977274Y-85076260D01*
X192431698Y-86610372D01*
G37*
G04 #@! TD.AperFunction*
D16*
X189222110Y-78591734D03*
X205925608Y-67907734D03*
G04 #@! TA.AperFunction,ComponentPad*
D15*
G36*
X209135196Y-75926372D02*
G01*
X207601084Y-76380796D01*
X207146660Y-74846684D01*
X208680772Y-74392260D01*
X209135196Y-75926372D01*
G37*
G04 #@! TD.AperFunction*
G04 #@! TA.AperFunction,ComponentPad*
G36*
X228678698Y-74830572D02*
G01*
X227144586Y-75284996D01*
X226690162Y-73750884D01*
X228224274Y-73296460D01*
X228678698Y-74830572D01*
G37*
G04 #@! TD.AperFunction*
D16*
X225469110Y-66811934D03*
G04 #@! TA.AperFunction,ComponentPad*
D15*
G36*
X249642198Y-78528873D02*
G01*
X248108086Y-78983297D01*
X247653662Y-77449185D01*
X249187774Y-76994761D01*
X249642198Y-78528873D01*
G37*
G04 #@! TD.AperFunction*
D16*
X246432610Y-70510235D03*
G04 #@! TA.AperFunction,ComponentPad*
D15*
G36*
X267908199Y-73118370D02*
G01*
X266374087Y-73572794D01*
X265919663Y-72038682D01*
X267453775Y-71584258D01*
X267908199Y-73118370D01*
G37*
G04 #@! TD.AperFunction*
D16*
X264698611Y-65099732D03*
G04 #@! TA.AperFunction,ComponentPad*
D15*
G36*
X23373178Y-89657952D02*
G01*
X22918754Y-91192064D01*
X21384642Y-90737640D01*
X21839066Y-89203528D01*
X23373178Y-89657952D01*
G37*
G04 #@! TD.AperFunction*
D16*
X14900116Y-87982476D03*
G04 #@! TA.AperFunction,ComponentPad*
D15*
G36*
X28889441Y-92960165D02*
G01*
X27355329Y-92505741D01*
X27809753Y-90971629D01*
X29343865Y-91426053D01*
X28889441Y-92960165D01*
G37*
G04 #@! TD.AperFunction*
D16*
X30564917Y-84487103D03*
G04 #@! TA.AperFunction,ComponentPad*
D15*
G36*
X49881842Y-89165980D02*
G01*
X48347730Y-88711556D01*
X48802154Y-87177444D01*
X50336266Y-87631868D01*
X49881842Y-89165980D01*
G37*
G04 #@! TD.AperFunction*
D16*
X51557318Y-80692918D03*
G04 #@! TA.AperFunction,ComponentPad*
D15*
G36*
X69396942Y-90357663D02*
G01*
X67862830Y-89903239D01*
X68317254Y-88369127D01*
X69851366Y-88823551D01*
X69396942Y-90357663D01*
G37*
G04 #@! TD.AperFunction*
D16*
X71072418Y-81884601D03*
G04 #@! TA.AperFunction,ComponentPad*
D15*
G36*
X86100441Y-101041663D02*
G01*
X84566329Y-100587239D01*
X85020753Y-99053127D01*
X86554865Y-99507551D01*
X86100441Y-101041663D01*
G37*
G04 #@! TD.AperFunction*
D16*
X87775917Y-92568601D03*
G04 #@! TA.AperFunction,ComponentPad*
D15*
G36*
X103797941Y-108369765D02*
G01*
X102263829Y-107915341D01*
X102718253Y-106381229D01*
X104252365Y-106835653D01*
X103797941Y-108369765D01*
G37*
G04 #@! TD.AperFunction*
D16*
X105473417Y-99896703D03*
G04 #@! TA.AperFunction,ComponentPad*
D15*
G36*
X180144697Y-112203972D02*
G01*
X178610585Y-112658396D01*
X178156161Y-111124284D01*
X179690273Y-110669860D01*
X180144697Y-112203972D01*
G37*
G04 #@! TD.AperFunction*
D16*
X176935109Y-104185334D03*
G04 #@! TA.AperFunction,ComponentPad*
D15*
G36*
X197842197Y-104875871D02*
G01*
X196308085Y-105330295D01*
X195853661Y-103796183D01*
X197387773Y-103341759D01*
X197842197Y-104875871D01*
G37*
G04 #@! TD.AperFunction*
D16*
X194632609Y-96857233D03*
G04 #@! TA.AperFunction,ComponentPad*
D15*
G36*
X214545698Y-94191870D02*
G01*
X213011586Y-94646294D01*
X212557162Y-93112182D01*
X214091274Y-92657758D01*
X214545698Y-94191870D01*
G37*
G04 #@! TD.AperFunction*
D16*
X211336110Y-86173232D03*
G04 #@! TA.AperFunction,ComponentPad*
D15*
G36*
X234089198Y-93096071D02*
G01*
X232555086Y-93550495D01*
X232100662Y-92016383D01*
X233634774Y-91561959D01*
X234089198Y-93096071D01*
G37*
G04 #@! TD.AperFunction*
D16*
X230879610Y-85077433D03*
G04 #@! TA.AperFunction,ComponentPad*
D15*
G36*
X255053199Y-96794372D02*
G01*
X253519087Y-97248796D01*
X253064663Y-95714684D01*
X254598775Y-95260260D01*
X255053199Y-96794372D01*
G37*
G04 #@! TD.AperFunction*
D16*
X251843611Y-88775734D03*
G04 #@! TA.AperFunction,ComponentPad*
D15*
G36*
X273318198Y-91383871D02*
G01*
X271784086Y-91838295D01*
X271329662Y-90304183D01*
X272863774Y-89849759D01*
X273318198Y-91383871D01*
G37*
G04 #@! TD.AperFunction*
D16*
X270108610Y-83365233D03*
G04 #@! TA.AperFunction,ComponentPad*
D15*
G36*
X75392443Y-117738064D02*
G01*
X73858331Y-117283640D01*
X74312755Y-115749528D01*
X75846867Y-116203952D01*
X75392443Y-117738064D01*
G37*
G04 #@! TD.AperFunction*
D16*
X77067919Y-109265002D03*
G04 #@! TA.AperFunction,ComponentPad*
D15*
G36*
X94554237Y-125608085D02*
G01*
X93355907Y-124547893D01*
X94416099Y-123349563D01*
X95614429Y-124409755D01*
X94554237Y-125608085D01*
G37*
G04 #@! TD.AperFunction*
D16*
X99653604Y-118636970D03*
G04 #@! TA.AperFunction,ComponentPad*
D15*
G36*
X109428666Y-140232981D02*
G01*
X108790668Y-138765685D01*
X110257964Y-138127687D01*
X110895962Y-139594983D01*
X109428666Y-140232981D01*
G37*
G04 #@! TD.AperFunction*
D16*
X116996383Y-136070092D03*
G04 #@! TA.AperFunction,ComponentPad*
D15*
G36*
X182074927Y-152613292D02*
G01*
X181436929Y-154080588D01*
X179969633Y-153442590D01*
X180607631Y-151975294D01*
X182074927Y-152613292D01*
G37*
G04 #@! TD.AperFunction*
D16*
X173869212Y-149917699D03*
G04 #@! TA.AperFunction,ComponentPad*
D15*
G36*
X192221567Y-134553457D02*
G01*
X191023237Y-135613649D01*
X189963045Y-134415319D01*
X191161375Y-133355127D01*
X192221567Y-134553457D01*
G37*
G04 #@! TD.AperFunction*
D16*
X185923870Y-128642534D03*
G04 #@! TA.AperFunction,ComponentPad*
D15*
G36*
X208550198Y-121572273D02*
G01*
X207016086Y-122026697D01*
X206561662Y-120492585D01*
X208095774Y-120038161D01*
X208550198Y-121572273D01*
G37*
G04 #@! TD.AperFunction*
D16*
X205340610Y-113553635D03*
D10*
X29175662Y-48687896D03*
D11*
X33783057Y-46548361D03*
X26973153Y-47180265D03*
D10*
X24977996Y-45254298D03*
X47440961Y-54098895D03*
D11*
X52048356Y-51959360D03*
X45238452Y-52591264D03*
D10*
X43243295Y-50665297D03*
X68404562Y-50399896D03*
D11*
X73011957Y-48260361D03*
X66202053Y-48892265D03*
D10*
X64206896Y-46966298D03*
X87948163Y-51495896D03*
D11*
X92555558Y-49356361D03*
X85745654Y-49988265D03*
D10*
X83750497Y-48062298D03*
X104651661Y-62179895D03*
D11*
X109259056Y-60040360D03*
X102449152Y-60672264D03*
D10*
X100453995Y-58746297D03*
X174537544Y-69508295D03*
D11*
X177236355Y-65204563D03*
X171869249Y-69443462D03*
D10*
X169147013Y-68914851D03*
X192235044Y-62179895D03*
D11*
X194933855Y-57876163D03*
X189566749Y-62115062D03*
D10*
X186844513Y-61586451D03*
X208938544Y-51495896D03*
D11*
X211637355Y-47192164D03*
X206270249Y-51431063D03*
D10*
X203548013Y-50902452D03*
X228482143Y-50399895D03*
D11*
X231180954Y-46096163D03*
X225813848Y-50335062D03*
D10*
X223091612Y-49806451D03*
X249445742Y-54098896D03*
D11*
X252144553Y-49795164D03*
X246777447Y-54034063D03*
D10*
X244055211Y-53505452D03*
X267711045Y-48687896D03*
D11*
X270409856Y-44384164D03*
X265042750Y-48623063D03*
D10*
X262320514Y-48094452D03*
X42030662Y-72364195D03*
D11*
X46638057Y-70224660D03*
X39828153Y-70856564D03*
D10*
X37832996Y-68930597D03*
X62994162Y-68665897D03*
D11*
X67601557Y-66526362D03*
X60791653Y-67158266D03*
D10*
X58796496Y-65232299D03*
X82537660Y-69761696D03*
D11*
X87145055Y-67622161D03*
X80335151Y-68254065D03*
D10*
X78339994Y-66328098D03*
X99241162Y-80445697D03*
D11*
X103848557Y-78306162D03*
X97038653Y-78938066D03*
D10*
X95043496Y-77012099D03*
X179948043Y-87773795D03*
D11*
X182646854Y-83470063D03*
X177279748Y-87708962D03*
D10*
X174557512Y-87180351D03*
X197645543Y-80445697D03*
D11*
X200344354Y-76141965D03*
X194977248Y-80380864D03*
D10*
X192255012Y-79852253D03*
X214349043Y-69761695D03*
D11*
X217047854Y-65457963D03*
X211680748Y-69696862D03*
D10*
X208958512Y-69168251D03*
X233892544Y-68665897D03*
D11*
X236591355Y-64362165D03*
X231224249Y-68601064D03*
D10*
X228502013Y-68072453D03*
X254856043Y-72364198D03*
D11*
X257554854Y-68060466D03*
X252187748Y-72299365D03*
D10*
X249465512Y-71770754D03*
X273122045Y-66953695D03*
D11*
X275820856Y-62649963D03*
X270453750Y-66888862D03*
D10*
X267731514Y-66360251D03*
X18354660Y-85219196D03*
D11*
X22962055Y-83079661D03*
X16152151Y-83711565D03*
D10*
X14156994Y-81785598D03*
X36619661Y-90629695D03*
D11*
X41227056Y-88490160D03*
X34417152Y-89122064D03*
D10*
X32421995Y-87196097D03*
X57583664Y-86931395D03*
D11*
X62191059Y-84791860D03*
X55381155Y-85423764D03*
D10*
X53385998Y-83497797D03*
X77127161Y-88027196D03*
D11*
X81734556Y-85887661D03*
X74924652Y-86519565D03*
D10*
X72929495Y-84593598D03*
X93830663Y-98711195D03*
D11*
X98438058Y-96571660D03*
X91628154Y-97203564D03*
D10*
X89632997Y-95277597D03*
X111528163Y-106039296D03*
D11*
X116135558Y-103899761D03*
X109325654Y-104531665D03*
D10*
X107330497Y-102605698D03*
X185358544Y-106039296D03*
D11*
X188057355Y-101735564D03*
X182690249Y-105974463D03*
D10*
X179968013Y-105445852D03*
X203056043Y-98711194D03*
D11*
X205754854Y-94407462D03*
X200387748Y-98646361D03*
D10*
X197665512Y-98117750D03*
X219759543Y-88027196D03*
D11*
X222458354Y-83723464D03*
X217091248Y-87962363D03*
D10*
X214369012Y-87433752D03*
X239303043Y-86931396D03*
D11*
X242001854Y-82627664D03*
X236634748Y-86866563D03*
D10*
X233912512Y-86337952D03*
X260267045Y-90629696D03*
D11*
X262965856Y-86325964D03*
X257598750Y-90564863D03*
D10*
X254876514Y-90036252D03*
X278532045Y-85219196D03*
D11*
X281230856Y-80915464D03*
X275863750Y-85154363D03*
D10*
X273141514Y-84625752D03*
X83122663Y-115407596D03*
D11*
X87730058Y-113268061D03*
X80920154Y-113899965D03*
D10*
X78924997Y-111973998D03*
X213764043Y-115407596D03*
D11*
X216462854Y-111103864D03*
X211095748Y-115342763D03*
D10*
X208373512Y-114814152D03*
D18*
X130447367Y-75692999D03*
X124988951Y-93944305D03*
X119564279Y-112205721D03*
X172988474Y-121024774D03*
X126682430Y-120902481D03*
D19*
X137487228Y-82732858D02*
X130447367Y-75692999D01*
X140594753Y-82732859D02*
X137487228Y-82732858D01*
X144386053Y-78941558D02*
X140594753Y-82732859D01*
X164521001Y-78941558D02*
X144386053Y-78941558D01*
X168329430Y-75133127D02*
X164521001Y-78941558D01*
X144843253Y-81481558D02*
X141051952Y-85272858D01*
X161822859Y-81481557D02*
X144843253Y-81481558D01*
X173739930Y-93398628D02*
X161822859Y-81481557D01*
X141051952Y-85272858D02*
X135834354Y-85272858D01*
X127162907Y-93944305D02*
X124988951Y-93944305D01*
X135834354Y-85272858D02*
X127162907Y-93944305D01*
X174200000Y-97900000D02*
X174200000Y-106713699D01*
X156291952Y-82732858D02*
X159032858Y-82732858D01*
X174200000Y-106713699D02*
X179150429Y-111664128D01*
X159032858Y-82732858D02*
X174200000Y-97900000D01*
X145574354Y-82732858D02*
X145474354Y-82732858D01*
X156291952Y-82732859D02*
X145574354Y-82732858D01*
X123700000Y-99400000D02*
X123700000Y-108070000D01*
X136436140Y-86663860D02*
X123700000Y-99400000D01*
X123700000Y-108070000D02*
X119564279Y-112205721D01*
X145574354Y-82732858D02*
X141643352Y-86663860D01*
X141643352Y-86663860D02*
X136436140Y-86663860D01*
X126550693Y-120770745D02*
X126682430Y-120902481D01*
X155834752Y-85272858D02*
X157272858Y-85272858D01*
X157272858Y-85272858D02*
X171200000Y-99200000D01*
X171200000Y-119236300D02*
X172988474Y-121024774D01*
X171200000Y-99200000D02*
X171200000Y-119236300D01*
X137943342Y-87163870D02*
X126682430Y-98424782D01*
X141850462Y-87163870D02*
X137943342Y-87163870D01*
X126682430Y-98424782D02*
X126682430Y-120902481D01*
X155834752Y-85272858D02*
X143741474Y-85272858D01*
X143741474Y-85272858D02*
X141850462Y-87163870D01*
X29248054Y-61856839D02*
X28372056Y-64814160D01*
X30669117Y-61085267D02*
X29248054Y-61856839D01*
X34554358Y-47968919D02*
X30669117Y-61085267D01*
X33783057Y-46548360D02*
X34554358Y-47968919D01*
X25258033Y-79351353D02*
X23838053Y-80122340D01*
X29143357Y-66234719D02*
X25258033Y-79351353D01*
X23838053Y-80122340D02*
X22962056Y-83079659D01*
X28372056Y-64814160D02*
X29143357Y-66234719D01*
X18786131Y-85347003D02*
X18354663Y-85219194D01*
X22962056Y-83079659D02*
X18786131Y-85347003D01*
X24196131Y-67081504D02*
X23764662Y-66953696D01*
X28372056Y-64814160D02*
X24196131Y-67081504D01*
X29607131Y-48815704D02*
X29175663Y-48687897D01*
X33783057Y-46548360D02*
X29607131Y-48815704D01*
X48934461Y-66496121D02*
X47514055Y-67267339D01*
X47514055Y-67267339D02*
X46638056Y-70224662D01*
X52819657Y-53379919D02*
X48934461Y-66496121D01*
X52048356Y-51959361D02*
X52819657Y-53379919D01*
X43524224Y-84761208D02*
X42103055Y-85532839D01*
X47409356Y-71645219D02*
X43524224Y-84761208D01*
X42103055Y-85532839D02*
X41227056Y-88490159D01*
X46638056Y-70224662D02*
X47409356Y-71645219D01*
X37051131Y-90757503D02*
X36619661Y-90629695D01*
X41227056Y-88490159D02*
X37051131Y-90757503D01*
X42462130Y-72492003D02*
X42030663Y-72364197D01*
X46638056Y-70224662D02*
X42462130Y-72492003D01*
X47872429Y-54226701D02*
X47440962Y-54098896D01*
X52048356Y-51959361D02*
X47872429Y-54226701D01*
X68477554Y-63569041D02*
X67601556Y-66526361D01*
X69897834Y-62797892D02*
X68477554Y-63569041D01*
X73783257Y-49680918D02*
X69897834Y-62797892D01*
X73011957Y-48260361D02*
X73783257Y-49680918D01*
X63067054Y-81834538D02*
X62191057Y-84791860D01*
X64487630Y-81063230D02*
X63067054Y-81834538D01*
X68372857Y-67946921D02*
X64487630Y-81063230D01*
X67601556Y-66526361D02*
X68372857Y-67946921D01*
X68836032Y-50527702D02*
X68404563Y-50399897D01*
X73011957Y-48260361D02*
X68836032Y-50527702D01*
X63425632Y-68793703D02*
X62994162Y-68665896D01*
X67601556Y-66526361D02*
X63425632Y-68793703D01*
X58015131Y-87059202D02*
X57583662Y-86931394D01*
X62191057Y-84791860D02*
X58015131Y-87059202D01*
X89441524Y-63893588D02*
X88021055Y-64664840D01*
X93326857Y-50776921D02*
X89441524Y-63893588D01*
X88021055Y-64664840D02*
X87145056Y-67622161D01*
X92555557Y-49356361D02*
X93326857Y-50776921D01*
X82610554Y-82930341D02*
X81734556Y-85887660D01*
X84031129Y-82159032D02*
X82610554Y-82930341D01*
X87916357Y-69042719D02*
X84031129Y-82159032D01*
X87145056Y-67622161D02*
X87916357Y-69042719D01*
X88365110Y-111124164D02*
X87730059Y-113268059D01*
X79238339Y-94314747D02*
X88365110Y-111124164D01*
X81734556Y-85887660D02*
X79238339Y-94314747D01*
X77558631Y-88155002D02*
X77127162Y-88027196D01*
X81734556Y-85887660D02*
X77558631Y-88155002D01*
X82969132Y-69889503D02*
X82537663Y-69761696D01*
X87145056Y-67622161D02*
X82969132Y-69889503D01*
X88379632Y-51623703D02*
X87948161Y-51495896D01*
X92555557Y-49356361D02*
X88379632Y-51623703D01*
X83554132Y-115535403D02*
X83122662Y-115407596D01*
X87730059Y-113268059D02*
X83554132Y-115535403D01*
X104724555Y-75348840D02*
X103848556Y-78306160D01*
X110030357Y-61460918D02*
X106145023Y-74577590D01*
X106145023Y-74577590D02*
X104724555Y-75348840D01*
X109259057Y-60040361D02*
X110030357Y-61460918D01*
X105083131Y-62307704D02*
X104651662Y-62179896D01*
X109259057Y-60040361D02*
X105083131Y-62307704D01*
X99672632Y-80573505D02*
X99241161Y-80445697D01*
X103848556Y-78306160D02*
X99672632Y-80573505D01*
X94262131Y-98839003D02*
X93830663Y-98711197D01*
X98438059Y-96571661D02*
X94262131Y-98839003D01*
X102882126Y-127061078D02*
X102545095Y-126762898D01*
X107625020Y-126770989D02*
X102882126Y-127061078D01*
X100734629Y-92843030D02*
X104619858Y-79726720D01*
X98438059Y-96571661D02*
X99314056Y-93614339D01*
X104619858Y-79726720D02*
X103848556Y-78306160D01*
X99314056Y-93614339D02*
X100734629Y-92843030D01*
X107665599Y-126748955D02*
X107625020Y-126770988D01*
X110651141Y-116669933D02*
X107665599Y-126748955D01*
X98438057Y-96571659D02*
X99987938Y-97030755D01*
X99987938Y-97030755D02*
X110651141Y-116669933D01*
X126849944Y-66447575D02*
X127621244Y-67868133D01*
X121439445Y-84713072D02*
X122210747Y-86133634D01*
X122422053Y-82676940D02*
X121546056Y-85634260D01*
X123842628Y-81905631D02*
X122422053Y-82676940D01*
X127727856Y-68789320D02*
X123842628Y-81905631D01*
X126956558Y-67368761D02*
X127727856Y-68789320D01*
X118432130Y-100171131D02*
X117011555Y-100942438D01*
X122317360Y-87054819D02*
X118432130Y-100171131D01*
X117011555Y-100942438D02*
X116135557Y-103899760D01*
X121546056Y-85634260D02*
X122317360Y-87054819D01*
X126019395Y-135703077D02*
X123102028Y-145551943D01*
X123102028Y-145551943D02*
X120783354Y-146810881D01*
X113529138Y-112698884D02*
X126019395Y-135703077D01*
X116135557Y-103899760D02*
X113529138Y-112698884D01*
X122780632Y-69636103D02*
X122349161Y-69508297D01*
X126956558Y-67368761D02*
X122780632Y-69636103D01*
X117370132Y-87901602D02*
X116938664Y-87773795D01*
X121546056Y-85634260D02*
X117370132Y-87901602D01*
X111959632Y-106167104D02*
X111528161Y-106039295D01*
X116135557Y-103899760D02*
X111959632Y-106167104D01*
X116362236Y-145069356D02*
X116182798Y-144656679D01*
X120783354Y-146810881D02*
X116362236Y-145069356D01*
X181770857Y-80512744D02*
X182646855Y-83470063D01*
X182542150Y-79092198D02*
X181770857Y-80512744D01*
X178656915Y-65975864D02*
X182542150Y-79092198D01*
X177236355Y-65204564D02*
X178656915Y-65975864D01*
X187181357Y-98778243D02*
X188057356Y-101735563D01*
X184067415Y-84241364D02*
X187952649Y-97357699D01*
X187952649Y-97357699D02*
X187181357Y-98778243D01*
X182646855Y-83470063D02*
X184067415Y-84241364D01*
X179206930Y-139702966D02*
X179141819Y-139822884D01*
X185790011Y-105911489D02*
X185358543Y-106039294D01*
X188057356Y-101735563D02*
X185790011Y-105911489D01*
X185358543Y-106039294D02*
X186320613Y-109287187D01*
X176594808Y-127199892D02*
X179913120Y-138402324D01*
X179913120Y-138402324D02*
X179141819Y-139822884D01*
X186320613Y-109287187D02*
X176594808Y-127199892D01*
X180379513Y-87645990D02*
X179948042Y-87773796D01*
X182646855Y-83470063D02*
X180379513Y-87645990D01*
X174969014Y-69380488D02*
X174537544Y-69508297D01*
X177236355Y-65204564D02*
X174969014Y-69380488D01*
X180883345Y-144244003D02*
X180703906Y-144656679D01*
X179141819Y-139822884D02*
X180883345Y-144244003D01*
X200239708Y-71763994D02*
X199468357Y-73184644D01*
X196354413Y-58647464D02*
X200239708Y-71763994D01*
X199468357Y-73184644D02*
X200344355Y-76141964D01*
X194933854Y-57876162D02*
X196354413Y-58647464D01*
X205650149Y-90029598D02*
X204878855Y-91450142D01*
X204878855Y-91450142D02*
X205754855Y-94407462D01*
X201764914Y-76913265D02*
X205650149Y-90029598D01*
X200344355Y-76141964D02*
X201764914Y-76913265D01*
X204611446Y-103962148D02*
X194968729Y-121721823D01*
X203056042Y-98711195D02*
X204611446Y-103962148D01*
X203487512Y-98583389D02*
X203056042Y-98711195D01*
X205754855Y-94407462D02*
X203487512Y-98583389D01*
X192666511Y-62052090D02*
X192235043Y-62179897D01*
X194933854Y-57876162D02*
X192666511Y-62052090D01*
X198077012Y-80317890D02*
X197645544Y-80445697D01*
X200344355Y-76141964D02*
X198077012Y-80317890D01*
X194678641Y-126464719D02*
X194341611Y-126762898D01*
X194968729Y-121721824D02*
X194678641Y-126464719D01*
X216171855Y-62500643D02*
X217047854Y-65457963D01*
X213057914Y-47963464D02*
X216943208Y-61079992D01*
X216943208Y-61079992D02*
X216171855Y-62500643D01*
X211637354Y-47192163D02*
X213057914Y-47963464D01*
X221582357Y-80766142D02*
X222458356Y-83723463D01*
X222353648Y-79345601D02*
X221582357Y-80766142D01*
X218468415Y-66229265D02*
X222353648Y-79345601D01*
X217047854Y-65457963D02*
X218468415Y-66229265D01*
X216984773Y-110949264D02*
X216462855Y-111103863D01*
X223173219Y-99551567D02*
X216984773Y-110949264D01*
X219759543Y-88027194D02*
X223173219Y-99551567D01*
X220191014Y-87899390D02*
X219759543Y-88027194D01*
X222458356Y-83723463D02*
X220191014Y-87899390D01*
X214195512Y-115279789D02*
X213764043Y-115407596D01*
X216462855Y-111103863D02*
X214195512Y-115279789D01*
X214780511Y-69633888D02*
X214349043Y-69761695D01*
X217047854Y-65457963D02*
X214780511Y-69633888D01*
X209370013Y-51368088D02*
X208938544Y-51495895D01*
X211637354Y-47192163D02*
X209370013Y-51368088D01*
X236486809Y-59984004D02*
X235715356Y-61404844D01*
X232601514Y-46867465D02*
X236486809Y-59984004D01*
X235715356Y-61404844D02*
X236591355Y-64362163D01*
X231180954Y-46096163D02*
X232601514Y-46867465D01*
X241125857Y-79670342D02*
X242001855Y-82627663D01*
X241897150Y-78249798D02*
X241125857Y-79670342D01*
X238011913Y-65133465D02*
X241897150Y-78249798D01*
X236591355Y-64362163D02*
X238011913Y-65133465D01*
X239734513Y-86803588D02*
X239303043Y-86931395D01*
X242001855Y-82627663D02*
X239734513Y-86803588D01*
X228913612Y-50272090D02*
X228482143Y-50399897D01*
X231180954Y-46096163D02*
X228913612Y-50272090D01*
X234324012Y-68538090D02*
X233892543Y-68665896D01*
X236591355Y-64362163D02*
X234324012Y-68538090D01*
X257450240Y-63682431D02*
X256678855Y-65103144D01*
X256678855Y-65103144D02*
X257554854Y-68060463D01*
X253565113Y-50566464D02*
X257450240Y-63682431D01*
X252144554Y-49795162D02*
X253565113Y-50566464D01*
X262860824Y-81948696D02*
X262089858Y-83368643D01*
X258975413Y-68831764D02*
X262860824Y-81948696D01*
X262089858Y-83368643D02*
X262965855Y-86325963D01*
X257554854Y-68060463D02*
X258975413Y-68831764D01*
X260698513Y-90501889D02*
X260267043Y-90629697D01*
X262965855Y-86325963D02*
X260698513Y-90501889D01*
X255287510Y-72236390D02*
X254856041Y-72364196D01*
X257554854Y-68060463D02*
X255287510Y-72236390D01*
X249877211Y-53971089D02*
X249445743Y-54098895D01*
X252144554Y-49795162D02*
X249877211Y-53971089D01*
X274944856Y-59692642D02*
X275820854Y-62649962D01*
X275715884Y-58272587D02*
X274944856Y-59692642D01*
X271830416Y-45155463D02*
X275715884Y-58272587D01*
X270409856Y-44384162D02*
X271830416Y-45155463D01*
X277241414Y-63421264D02*
X281126473Y-76537002D01*
X280354857Y-77958142D02*
X281230855Y-80915462D01*
X281126473Y-76537002D02*
X280354857Y-77958142D01*
X275820854Y-62649962D02*
X277241414Y-63421264D01*
X278963512Y-85091389D02*
X278532042Y-85219195D01*
X281230855Y-80915462D02*
X278963512Y-85091389D01*
X268142513Y-48560090D02*
X267711044Y-48687895D01*
X270409856Y-44384162D02*
X268142513Y-48560090D01*
X273553512Y-66825889D02*
X273122042Y-66953696D01*
X275820854Y-62649962D02*
X273553512Y-66825889D01*
D20*
G36*
X153921170Y-93290149D02*
G01*
X160073719Y-95274842D01*
X164238839Y-99638301D01*
X165923078Y-102907706D01*
X166916655Y-107279444D01*
X167016208Y-111958423D01*
X166418997Y-117532391D01*
X163933085Y-123598016D01*
X161645216Y-126383248D01*
X161631375Y-126403942D01*
X161622466Y-126424931D01*
X159722466Y-132324931D01*
X159717129Y-132349835D01*
X158821193Y-140413260D01*
X152880699Y-147838877D01*
X144003770Y-148134775D01*
X138064142Y-140512252D01*
X136969008Y-133045430D01*
X136963399Y-133022415D01*
X134063399Y-124622415D01*
X134053007Y-124599791D01*
X134044681Y-124587300D01*
X130664209Y-120113146D01*
X129571145Y-112759806D01*
X130267923Y-104498015D01*
X133345371Y-98144572D01*
X137604339Y-94677971D01*
X142762449Y-93090860D01*
X148341087Y-93090860D01*
X153921170Y-93290149D01*
G37*
X153921170Y-93290149D02*
X160073719Y-95274842D01*
X164238839Y-99638301D01*
X165923078Y-102907706D01*
X166916655Y-107279444D01*
X167016208Y-111958423D01*
X166418997Y-117532391D01*
X163933085Y-123598016D01*
X161645216Y-126383248D01*
X161631375Y-126403942D01*
X161622466Y-126424931D01*
X159722466Y-132324931D01*
X159717129Y-132349835D01*
X158821193Y-140413260D01*
X152880699Y-147838877D01*
X144003770Y-148134775D01*
X138064142Y-140512252D01*
X136969008Y-133045430D01*
X136963399Y-133022415D01*
X134063399Y-124622415D01*
X134053007Y-124599791D01*
X134044681Y-124587300D01*
X130664209Y-120113146D01*
X129571145Y-112759806D01*
X130267923Y-104498015D01*
X133345371Y-98144572D01*
X137604339Y-94677971D01*
X142762449Y-93090860D01*
X148341087Y-93090860D01*
X153921170Y-93290149D01*
M02*
