M48
; DRILL file {KiCad 5.1.6-c6e7f7d~87~ubuntu16.04.1} date Mon Aug 10 13:21:31 2020
; FORMAT={-:-/ absolute / inch / decimal}
; #@! TF.CreationDate,2020-08-10T13:21:31+02:00
; #@! TF.GenerationSoftware,Kicad,Pcbnew,5.1.6-c6e7f7d~87~ubuntu16.04.1
; #@! TF.FileFunction,NonPlated,1,2,NPTH
FMAT,2
INCH
T1C0.0670
T2C0.1181
T3C0.1570
%
G90
G05
T1
X7.3475Y-4.9492
X7.6471Y-4.6842
X3.3367Y-1.7479
X3.7203Y-1.8615
X8.7376Y-1.8183
X9.1212Y-1.7047
X10.7081Y-3.1892
X11.0916Y-3.0756
X3.1468Y-4.2641
X3.5303Y-4.3777
X6.8268Y-3.2897
X7.2104Y-3.1761
X3.5683Y-3.6067
X3.9519Y-3.7204
X6.6138Y-2.5706
X6.9973Y-2.457
X1.742Y-1.8504
X2.1255Y-1.964
X4.4781Y-3.1761
X4.8616Y-3.2897
X3.9944Y-2.1685
X4.3779Y-2.2821
X8.9506Y-2.5375
X9.3342Y-2.4239
X2.3543Y-2.4239
X2.7378Y-2.5375
X9.776Y-2.6831
X10.1595Y-2.5695
X0.5968Y-3.0756
X0.9804Y-3.1892
X7.5236Y-3.0012
X7.9071Y-2.8876
X0.8098Y-2.3565
X1.1934Y-2.4701
X1.529Y-2.5695
X1.9125Y-2.6831
X8.3942Y-3.2997
X8.7777Y-3.1861
X2.1413Y-3.143
X2.5248Y-3.2566
X8.1582Y-4.3777
X8.5417Y-4.2641
X9.989Y-3.4022
X10.3725Y-3.2886
X4.7074Y-5.4191
X4.8669Y-5.7859
X4.0413Y-4.6842
X4.3409Y-4.9492
X8.1812Y-2.5806
X8.5647Y-2.467
X2.5673Y-1.7047
X2.9508Y-1.8183
X7.0398Y-4.0089
X7.4234Y-3.8953
X3.1237Y-2.467
X3.5073Y-2.5806
X9.563Y-1.964
X9.9465Y-1.8504
X6.8216Y-5.7859
X6.9811Y-5.4191
X4.2651Y-3.8953
X4.6486Y-4.0089
X1.0229Y-1.6373
X1.4064Y-1.7509
X7.9682Y-1.8615
X8.3517Y-1.7479
X7.7366Y-3.7204
X8.1201Y-3.6067
X9.1636Y-3.2566
X9.5472Y-3.143
X3.7813Y-2.8876
X4.1649Y-3.0012
X1.3159Y-3.2886
X1.6995Y-3.4022
X7.3106Y-2.2821
X7.6941Y-2.1685
X10.2821Y-1.7509
X10.6656Y-1.6373
X2.9107Y-3.1861
X3.2942Y-3.2997
X4.6911Y-2.457
X5.0746Y-2.5706
X10.4951Y-2.4701
X10.8786Y-2.3565
T2
X10.0085Y-3.2921
X10.2198Y-3.1252
X4.819Y-5.4251
X5.0104Y-5.6145
X4.145Y-4.6424
X4.3985Y-4.7332
X8.2007Y-2.4705
X8.412Y-2.3036
X2.6436Y-1.623
X2.9118Y-1.5982
X7.0594Y-3.8988
X7.2707Y-3.7319
X3.2001Y-2.3853
X3.4682Y-2.3604
X9.5825Y-1.8539
X9.7938Y-1.687
X6.7498Y-5.7002
X6.7578Y-5.4311
X4.3414Y-3.8136
X4.6095Y-3.7887
X1.0992Y-1.5556
X1.3673Y-1.5308
X7.9877Y-1.7514
X8.199Y-1.5845
X7.7561Y-3.6103
X7.9674Y-3.4434
X9.1832Y-3.1465
X9.3945Y-2.9796
X3.8577Y-2.806
X4.1258Y-2.7811
X1.3923Y-3.2069
X1.6604Y-3.182
X7.3301Y-2.172
X7.5414Y-2.0051
X10.3016Y-1.6408
X10.5129Y-1.474
X2.9871Y-3.1044
X3.2552Y-3.0796
X4.7674Y-2.3753
X5.0356Y-2.3505
X10.5146Y-2.36
X10.7259Y-2.1931
X7.3187Y-4.8412
X7.4397Y-4.6006
X3.4131Y-1.6662
X3.6812Y-1.6413
X8.7572Y-1.7083
X8.9685Y-1.5414
X10.7276Y-3.0791
X10.9389Y-2.9122
X3.2231Y-4.1824
X3.4912Y-4.1575
X6.8464Y-3.1797
X7.0577Y-3.0128
X3.6447Y-3.5251
X3.9128Y-3.5002
X6.6334Y-2.4605
X6.8447Y-2.2937
X1.8183Y-1.7687
X2.0864Y-1.7438
X4.5544Y-3.0945
X4.8225Y-3.0696
X4.0707Y-2.0868
X4.3388Y-2.0619
X8.9702Y-2.4274
X9.1815Y-2.2605
X2.4306Y-2.3422
X2.6987Y-2.3173
X9.7955Y-2.573
X10.0068Y-2.4061
X0.6732Y-2.9939
X0.9413Y-2.969
X7.5431Y-2.8912
X7.7544Y-2.7243
X0.8862Y-2.2748
X1.1543Y-2.2499
X1.6053Y-2.4878
X1.8734Y-2.4629
X8.4138Y-3.1896
X8.6251Y-3.0228
X2.2176Y-3.0613
X2.4857Y-3.0364
X8.1777Y-4.2676
X8.389Y-4.1007
T3
X1.7207Y-2.6263
X8.586Y-3.2429
X2.333Y-3.1998
X8.3499Y-4.3209
X10.1808Y-3.3454
X4.7871Y-5.6025
X4.1911Y-4.8167
X8.373Y-2.5238
X2.7591Y-1.7615
X7.2316Y-3.9521
X3.3155Y-2.5238
X9.7547Y-1.9072
X6.9013Y-5.6025
X4.4568Y-3.9521
X1.2146Y-1.6941
X8.16Y-1.8047
X7.9284Y-3.6635
X9.3554Y-3.1998
X3.9731Y-2.9444
X1.5077Y-3.3454
X7.5023Y-2.2253
X10.4738Y-1.6941
X3.1025Y-3.2429
X4.8829Y-2.5138
X10.6869Y-2.4133
X7.4973Y-4.8167
X3.5285Y-1.8047
X8.9294Y-1.7615
X10.8999Y-3.1324
X3.3385Y-4.3209
X7.0186Y-3.2329
X3.7601Y-3.6635
X6.8056Y-2.5138
X1.9337Y-1.9072
X4.6699Y-3.2329
X4.1861Y-2.2253
X9.1424Y-2.4807
X2.5461Y-2.4807
X9.9677Y-2.6263
X0.7886Y-3.1324
X7.7153Y-2.9444
X1.0016Y-2.4133
T0
M30
