M48
; DRILL file {KiCad 5.1.6-c6e7f7d~87~ubuntu16.04.1} date Mon Aug 10 13:21:31 2020
; FORMAT={-:-/ absolute / inch / decimal}
; #@! TF.CreationDate,2020-08-10T13:21:31+02:00
; #@! TF.GenerationSoftware,Kicad,Pcbnew,5.1.6-c6e7f7d~87~ubuntu16.04.1
; #@! TF.FileFunction,Plated,1,2,PTH
FMAT,2
INCH
T1C0.0118
T2C0.0276
T3C0.0430
T4C0.0472
T5C0.0590
T6C0.0866
T7C0.1260
%
G90
G05
T1
X4.7073Y-4.4175
X4.9208Y-3.6986
X4.9875Y-4.7599
X5.1357Y-2.98
X6.8106Y-4.7648
T2
X1.5422Y-2.1825
X1.6294Y-1.888
X2.947Y-4.5962
X3.0342Y-4.3018
X9.0897Y-3.3495
X9.177Y-3.6439
X3.5815Y-3.2198
X3.6688Y-2.9253
X3.7199Y-4.9007
X3.9234Y-4.6707
X4.4913Y-2.7892
X4.5785Y-2.4947
X7.4497Y-3.0942
X7.5369Y-3.3886
X6.5399Y-2.6636
X6.6271Y-2.958
X3.7946Y-2.5006
X3.8818Y-2.2062
X8.3203Y-3.3926
X8.4075Y-3.6871
X1.3292Y-2.9016
X1.4164Y-2.6071
X7.8943Y-1.9544
X7.9815Y-2.2488
X10.6342Y-3.2821
X10.7214Y-3.5765
X2.3675Y-2.0369
X2.4547Y-1.7424
X10.2082Y-1.8439
X10.2954Y-2.1383
X7.3198Y-5.0647
X7.5233Y-5.2947
X10.4212Y-2.563
X10.5084Y-2.8574
X0.8231Y-1.9695
X0.9103Y-1.675
X2.7109Y-3.5182
X2.7981Y-3.2238
X9.9151Y-3.4951
X10.0023Y-3.7895
X3.3685Y-3.9389
X3.4557Y-3.6444
X8.8767Y-2.6304
X8.964Y-2.9248
X6.8452Y-5.9023
X7.1269Y-6.0247
X0.61Y-2.6886
X0.6972Y-2.3941
X8.0843Y-4.4706
X8.1715Y-4.7651
X2.9239Y-2.7991
X3.0111Y-2.5047
X3.1369Y-2.08
X3.2242Y-1.7856
X1.9426Y-3.4713
X2.0298Y-3.1769
X0.5866Y-3.4639
X0.8811Y-3.5511
X1.1161Y-3.6207
X1.2033Y-3.3263
X4.0653Y-4.2274
X4.1525Y-3.9329
X4.2783Y-3.5083
X4.3655Y-3.2138
X7.2367Y-2.375
X7.3239Y-2.6695
X8.6637Y-1.9113
X8.7509Y-2.2057
X6.9659Y-4.1018
X7.0532Y-4.3962
X2.1545Y-2.756
X2.2417Y-2.4615
X9.4891Y-2.0569
X9.5763Y-2.3513
X6.7529Y-3.3827
X6.8402Y-3.6771
X8.1073Y-2.6735
X8.1945Y-2.968
X9.7021Y-2.776
X9.7893Y-3.0704
X4.3245Y-5.4795
X4.6062Y-5.3571
X7.6627Y-3.8133
X7.7499Y-4.1077
T3
X5.5352Y-2.2572
X5.5352Y-2.4572
X5.5352Y-2.6572
X5.5352Y-2.8572
X5.5352Y-3.0572
X5.5352Y-3.2572
X5.5532Y-2.3572
X5.5532Y-2.5572
X5.5532Y-2.7572
X5.5532Y-2.9572
X5.5532Y-3.1572
X5.5532Y-3.3572
X6.1352Y-2.3572
X6.1352Y-2.5572
X6.1352Y-2.7572
X6.1352Y-2.9572
X6.1352Y-3.1572
X6.1352Y-3.3572
X6.1532Y-2.2572
X6.1532Y-2.4572
X6.1532Y-2.6572
X6.1532Y-2.8572
X6.1532Y-3.0572
X6.1532Y-3.2572
T4
X7.449Y-5.0592
X7.6512Y-4.9907
X3.2973Y-1.8922
X3.4625Y-2.0274
X8.7831Y-1.9609
X8.9954Y-1.9842
X10.7536Y-3.3317
X10.9658Y-3.3551
X3.1073Y-4.4084
X3.2725Y-4.5436
X6.8723Y-3.4323
X7.0846Y-3.4557
X3.5289Y-3.7511
X3.6941Y-3.8863
X6.6593Y-2.7132
X6.8716Y-2.7365
X1.7025Y-1.9947
X1.8678Y-2.1299
X4.4386Y-3.3205
X4.6039Y-3.4557
X3.9549Y-2.3128
X4.1201Y-2.448
X8.9961Y-2.68
X9.2084Y-2.7034
X2.3148Y-2.5682
X2.4801Y-2.7034
X9.8215Y-2.8256
X10.0337Y-2.849
X0.5574Y-3.2199
X0.7226Y-3.3551
X7.5691Y-3.1438
X7.7813Y-3.1672
X0.7704Y-2.5008
X0.9356Y-2.636
X1.4895Y-2.7138
X1.6548Y-2.849
X8.4397Y-3.4423
X8.652Y-3.4656
X2.1018Y-3.2873
X2.2671Y-3.4225
X8.2037Y-4.5202
X8.4159Y-4.5436
X10.0345Y-3.5447
X10.2467Y-3.5681
X4.5715Y-5.4817
X4.5741Y-5.6951
X3.9446Y-4.7983
X4.0372Y-4.9907
X8.2267Y-2.7232
X8.4389Y-2.7465
X2.5278Y-1.8491
X2.6931Y-1.9842
X7.0854Y-4.1514
X7.2976Y-4.1748
X3.0843Y-2.6113
X3.2495Y-2.7465
X9.6085Y-2.1065
X9.8207Y-2.1299
X6.96Y-5.8427
X7.1143Y-5.6951
X4.2256Y-4.0396
X4.3909Y-4.1748
X0.9834Y-1.7817
X1.1486Y-1.9168
X8.0137Y-2.004
X8.2259Y-2.0274
X7.7821Y-3.8629
X7.9943Y-3.8863
X9.2092Y-3.3991
X9.4214Y-3.4225
X3.7419Y-3.032
X3.9071Y-3.1672
X1.2765Y-3.4329
X1.4417Y-3.5681
X7.3561Y-2.4247
X7.5683Y-2.448
X10.3276Y-1.8935
X10.5398Y-1.9168
X2.8712Y-3.3305
X3.0365Y-3.4656
X4.6516Y-2.6014
X4.8169Y-2.7365
X10.5406Y-2.6126
X10.7528Y-2.636
T5
X4.5172Y-3.3963
X4.7853Y-3.3714
X4.0334Y-2.3887
X4.3015Y-2.3638
X9.1033Y-2.7008
X9.3146Y-2.5339
X2.3934Y-2.644
X2.6615Y-2.6191
X9.9287Y-2.8464
X10.14Y-2.6795
X0.6359Y-3.2957
X0.904Y-3.2709
X7.6763Y-3.1646
X7.8876Y-2.9977
X0.8489Y-2.5766
X1.117Y-2.5517
X1.568Y-2.7896
X1.8361Y-2.7648
X8.5469Y-3.4631
X8.7582Y-3.2962
X2.1804Y-3.3631
X2.4485Y-3.3383
X8.3109Y-4.5411
X8.5222Y-4.3742
X10.1417Y-3.5655
X10.353Y-3.3987
X4.5639Y-5.5906
X4.7553Y-5.78
X3.9837Y-4.9002
X4.2372Y-4.991
X8.3339Y-2.744
X8.5452Y-2.5771
X2.6064Y-1.9249
X2.8745Y-1.9
X7.1925Y-4.1722
X7.4038Y-4.0053
X3.1628Y-2.6872
X3.4309Y-2.6623
X9.7156Y-2.1273
X9.927Y-1.9604
X7.0448Y-5.774
X7.0528Y-5.5048
X4.3042Y-4.1154
X4.5723Y-4.0905
X1.0619Y-1.8575
X1.33Y-1.8326
X8.1209Y-2.0248
X8.3322Y-1.858
X7.8893Y-3.8837
X8.1006Y-3.7168
X9.3163Y-3.4199
X9.5276Y-3.2531
X3.8204Y-3.1078
X4.0885Y-3.0829
X1.355Y-3.5087
X1.6231Y-3.4839
X7.4633Y-2.4455
X7.6746Y-2.2786
X10.4348Y-1.9143
X10.6461Y-1.7474
X2.9498Y-3.4063
X3.2179Y-3.3814
X4.7302Y-2.6772
X4.9983Y-2.6523
X10.6478Y-2.6334
X10.8591Y-2.4665
X7.555Y-5.0327
X7.6759Y-4.7922
X3.3758Y-1.968
X3.6439Y-1.9432
X8.8903Y-1.9817
X9.1016Y-1.8148
X10.8608Y-3.3525
X11.0721Y-3.1856
X3.1858Y-4.4843
X3.4539Y-4.4594
X6.9795Y-3.4531
X7.1908Y-3.2862
X3.6074Y-3.8269
X3.8755Y-3.802
X6.7665Y-2.734
X6.9778Y-2.5671
X1.781Y-2.0705
X2.0491Y-2.0456
T6
X5.549Y-3.5442
X6.1395Y-3.5442
T7
X6.7742Y-4.9558
X9.9608Y-1.2826
X1.7277Y-1.2826
X4.8353Y-1.9362
X6.8531Y-1.9362
X9.7099Y-3.6583
X4.9143Y-4.9558
X1.9786Y-3.6583
T0
M30
