G04 #@! TF.GenerationSoftware,KiCad,Pcbnew,5.1.6-c6e7f7d~87~ubuntu16.04.1*
G04 #@! TF.CreationDate,2020-08-10T13:21:27+02:00*
G04 #@! TF.ProjectId,ack42_pcb,61636b34-325f-4706-9362-2e6b69636164,rev?*
G04 #@! TF.SameCoordinates,Original*
G04 #@! TF.FileFunction,Copper,L2,Bot*
G04 #@! TF.FilePolarity,Positive*
%FSLAX46Y46*%
G04 Gerber Fmt 4.6, Leading zero omitted, Abs format (unit mm)*
G04 Created by KiCad (PCBNEW 5.1.6-c6e7f7d~87~ubuntu16.04.1) date 2020-08-10 13:21:27*
%MOMM*%
%LPD*%
G01*
G04 APERTURE LIST*
G04 #@! TA.AperFunction,ComponentPad*
%ADD10C,2.000000*%
G04 #@! TD*
G04 #@! TA.AperFunction,SMDPad,CuDef*
%ADD11C,0.100000*%
G04 #@! TD*
G04 #@! TA.AperFunction,ComponentPad*
%ADD12C,2.286000*%
G04 #@! TD*
G04 #@! TA.AperFunction,ComponentPad*
%ADD13C,4.400000*%
G04 #@! TD*
G04 #@! TA.AperFunction,ComponentPad*
%ADD14C,1.752600*%
G04 #@! TD*
G04 #@! TA.AperFunction,ComponentPad*
%ADD15R,1.752600X1.752600*%
G04 #@! TD*
G04 #@! TA.AperFunction,ComponentPad*
%ADD16C,0.100000*%
G04 #@! TD*
G04 #@! TA.AperFunction,ComponentPad*
%ADD17C,1.600000*%
G04 #@! TD*
G04 #@! TA.AperFunction,Conductor*
%ADD18C,0.100000*%
G04 #@! TD*
G04 #@! TA.AperFunction,ComponentPad*
%ADD19C,6.400000*%
G04 #@! TD*
G04 #@! TA.AperFunction,ViaPad*
%ADD20C,0.600000*%
G04 #@! TD*
G04 #@! TA.AperFunction,Conductor*
%ADD21C,0.250000*%
G04 #@! TD*
G04 APERTURE END LIST*
D10*
X189205331Y-128503191D03*
G04 #@! TA.AperFunction,SMDPad,CuDef*
D11*
G36*
X191903618Y-112590449D02*
G01*
X193560169Y-114462838D01*
X191650332Y-116152519D01*
X189993781Y-114280130D01*
X191903618Y-112590449D01*
G37*
G04 #@! TD.AperFunction*
D12*
X191895915Y-127831809D03*
X194968729Y-121721824D03*
G04 #@! TA.AperFunction,SMDPad,CuDef*
D11*
G36*
X183213636Y-123670084D02*
G01*
X184870187Y-125542473D01*
X182960350Y-127232154D01*
X181303799Y-125359765D01*
X183213636Y-123670084D01*
G37*
G04 #@! TD.AperFunction*
D10*
X194341611Y-126762898D03*
X176784336Y-148404606D03*
G04 #@! TA.AperFunction,SMDPad,CuDef*
D11*
G36*
X172504799Y-132842418D02*
G01*
X174797449Y-133839291D01*
X173780639Y-136177794D01*
X171487989Y-135180921D01*
X172504799Y-132842418D01*
G37*
G04 #@! TD.AperFunction*
D12*
X178939096Y-146659037D03*
X179141820Y-139822883D03*
G04 #@! TA.AperFunction,SMDPad,CuDef*
D11*
G36*
X169311457Y-146556523D02*
G01*
X171604107Y-147553396D01*
X170587297Y-149891899D01*
X168294647Y-148895026D01*
X169311457Y-146556523D01*
G37*
G04 #@! TD.AperFunction*
D10*
X180703907Y-144656679D03*
X116114878Y-139234005D03*
G04 #@! TA.AperFunction,SMDPad,CuDef*
D11*
G36*
X130414979Y-146717537D02*
G01*
X128122329Y-147714410D01*
X127105519Y-145375907D01*
X129398169Y-144379034D01*
X130414979Y-146717537D01*
G37*
G04 #@! TD.AperFunction*
D12*
X115921964Y-142000372D03*
X120783353Y-146810881D03*
G04 #@! TA.AperFunction,SMDPad,CuDef*
D11*
G36*
X122562972Y-135029077D02*
G01*
X120270322Y-136025950D01*
X119253512Y-133687447D01*
X121546162Y-132690574D01*
X122562972Y-135029077D01*
G37*
G04 #@! TD.AperFunction*
D10*
X116182798Y-144656679D03*
X100191819Y-121876989D03*
G04 #@! TA.AperFunction,SMDPad,CuDef*
D11*
G36*
X116314789Y-122615889D02*
G01*
X114658238Y-124488278D01*
X112748401Y-122798597D01*
X114404952Y-120926208D01*
X116314789Y-122615889D01*
G37*
G04 #@! TD.AperFunction*
D12*
X101186097Y-124465698D03*
X107625020Y-126770988D03*
G04 #@! TA.AperFunction,SMDPad,CuDef*
D11*
G36*
X104258698Y-115340949D02*
G01*
X102602147Y-117213338D01*
X100692310Y-115523657D01*
X102348861Y-113651268D01*
X104258698Y-115340949D01*
G37*
G04 #@! TD.AperFunction*
D10*
X102545096Y-126762897D03*
D13*
X155943352Y-90022060D03*
X140943352Y-90022060D03*
D14*
X156291952Y-57332858D03*
X141051952Y-85272858D03*
X155834752Y-59872858D03*
X156291952Y-62412858D03*
X155834752Y-64952858D03*
X156291952Y-67492858D03*
X155834752Y-70032858D03*
X156291952Y-72572858D03*
X155834752Y-75112858D03*
X156291952Y-77652858D03*
X155834752Y-80192858D03*
X156291952Y-82732858D03*
X155834752Y-85272858D03*
X140594752Y-82732858D03*
X141051952Y-80192858D03*
X140594752Y-77652858D03*
X141051952Y-75112858D03*
X140594752Y-72572858D03*
X141051952Y-70032858D03*
X140594752Y-67492858D03*
X141051952Y-64952858D03*
X140594752Y-62412858D03*
X141051952Y-59872858D03*
D15*
X140594752Y-57332858D03*
G04 #@! TA.AperFunction,SMDPad,CuDef*
D11*
G36*
X22865464Y-45520258D02*
G01*
X21714880Y-45179440D01*
X22055698Y-44028856D01*
X23206282Y-44369674D01*
X22865464Y-45520258D01*
G37*
G04 #@! TD.AperFunction*
G04 #@! TA.AperFunction,SMDPad,CuDef*
G36*
X21970816Y-48540540D02*
G01*
X20820232Y-48199722D01*
X21161050Y-47049138D01*
X22311634Y-47389956D01*
X21970816Y-48540540D01*
G37*
G04 #@! TD.AperFunction*
G04 #@! TA.AperFunction,ComponentPad*
D16*
G36*
X21445441Y-51018363D02*
G01*
X19911329Y-50563939D01*
X20365753Y-49029827D01*
X21899865Y-49484251D01*
X21445441Y-51018363D01*
G37*
G04 #@! TD.AperFunction*
D17*
X23120917Y-42545301D03*
G04 #@! TA.AperFunction,Conductor*
D18*
G36*
X21131102Y-50143040D02*
G01*
X20651692Y-50001032D01*
X21361730Y-47603982D01*
X21841140Y-47745990D01*
X21131102Y-50143040D01*
G37*
G04 #@! TD.AperFunction*
G04 #@! TA.AperFunction,Conductor*
G36*
X22664784Y-44965414D02*
G01*
X22185374Y-44823406D01*
X22895412Y-42426356D01*
X23374822Y-42568364D01*
X22664784Y-44965414D01*
G37*
G04 #@! TD.AperFunction*
G04 #@! TA.AperFunction,SMDPad,CuDef*
D11*
G36*
X116038965Y-66340658D02*
G01*
X114888381Y-65999840D01*
X115229199Y-64849256D01*
X116379783Y-65190074D01*
X116038965Y-66340658D01*
G37*
G04 #@! TD.AperFunction*
G04 #@! TA.AperFunction,SMDPad,CuDef*
G36*
X115144317Y-69360940D02*
G01*
X113993733Y-69020122D01*
X114334551Y-67869538D01*
X115485135Y-68210356D01*
X115144317Y-69360940D01*
G37*
G04 #@! TD.AperFunction*
G04 #@! TA.AperFunction,ComponentPad*
D16*
G36*
X114618942Y-71838763D02*
G01*
X113084830Y-71384339D01*
X113539254Y-69850227D01*
X115073366Y-70304651D01*
X114618942Y-71838763D01*
G37*
G04 #@! TD.AperFunction*
D17*
X116294418Y-63365701D03*
G04 #@! TA.AperFunction,Conductor*
D18*
G36*
X114304603Y-70963440D02*
G01*
X113825193Y-70821432D01*
X114535231Y-68424382D01*
X115014641Y-68566390D01*
X114304603Y-70963440D01*
G37*
G04 #@! TD.AperFunction*
G04 #@! TA.AperFunction,Conductor*
G36*
X115838285Y-65785814D02*
G01*
X115358875Y-65643806D01*
X116068913Y-63246756D01*
X116548323Y-63388764D01*
X115838285Y-65785814D01*
G37*
G04 #@! TD.AperFunction*
D10*
X122349161Y-69508297D03*
G04 #@! TA.AperFunction,SMDPad,CuDef*
D11*
G36*
X119075088Y-58432298D02*
G01*
X118365050Y-60829347D01*
X115920060Y-60105108D01*
X116630098Y-57708059D01*
X119075088Y-58432298D01*
G37*
G04 #@! TD.AperFunction*
D12*
X126956556Y-67368762D03*
X120146652Y-68000666D03*
G04 #@! TA.AperFunction,SMDPad,CuDef*
D11*
G36*
X133076140Y-59930508D02*
G01*
X132366102Y-62327557D01*
X129921112Y-61603318D01*
X130631150Y-59206269D01*
X133076140Y-59930508D01*
G37*
G04 #@! TD.AperFunction*
D10*
X118151495Y-66074699D03*
D19*
X124822153Y-125876560D03*
X253004352Y-32576859D03*
X246631254Y-92921759D03*
X172064552Y-125876559D03*
X174069552Y-49178859D03*
X50255452Y-92921759D03*
X122817151Y-49178859D03*
X43882354Y-32576860D03*
D10*
X23764661Y-66953694D03*
G04 #@! TA.AperFunction,SMDPad,CuDef*
D11*
G36*
X20490588Y-55877695D02*
G01*
X19780550Y-58274744D01*
X17335560Y-57550505D01*
X18045598Y-55153456D01*
X20490588Y-55877695D01*
G37*
G04 #@! TD.AperFunction*
D12*
X28372056Y-64814159D03*
X21562152Y-65446063D03*
G04 #@! TA.AperFunction,SMDPad,CuDef*
D11*
G36*
X34491640Y-57375905D02*
G01*
X33781602Y-59772954D01*
X31336612Y-59048715D01*
X32046650Y-56651666D01*
X34491640Y-57375905D01*
G37*
G04 #@! TD.AperFunction*
D10*
X19566995Y-63520096D03*
X116938663Y-87773794D03*
G04 #@! TA.AperFunction,SMDPad,CuDef*
D11*
G36*
X113664590Y-76697795D02*
G01*
X112954552Y-79094844D01*
X110509562Y-78370605D01*
X111219600Y-75973556D01*
X113664590Y-76697795D01*
G37*
G04 #@! TD.AperFunction*
D12*
X121546058Y-85634259D03*
X114736154Y-86266163D03*
G04 #@! TA.AperFunction,SMDPad,CuDef*
D11*
G36*
X127665642Y-78196005D02*
G01*
X126955604Y-80593054D01*
X124510614Y-79868815D01*
X125220652Y-77471766D01*
X127665642Y-78196005D01*
G37*
G04 #@! TD.AperFunction*
D10*
X112740997Y-84340196D03*
G04 #@! TA.AperFunction,SMDPad,CuDef*
D11*
G36*
X41130765Y-50931260D02*
G01*
X39980181Y-50590442D01*
X40320999Y-49439858D01*
X41471583Y-49780676D01*
X41130765Y-50931260D01*
G37*
G04 #@! TD.AperFunction*
G04 #@! TA.AperFunction,SMDPad,CuDef*
G36*
X40236117Y-53951542D02*
G01*
X39085533Y-53610724D01*
X39426351Y-52460140D01*
X40576935Y-52800958D01*
X40236117Y-53951542D01*
G37*
G04 #@! TD.AperFunction*
G04 #@! TA.AperFunction,ComponentPad*
D16*
G36*
X39710742Y-56429365D02*
G01*
X38176630Y-55974941D01*
X38631054Y-54440829D01*
X40165166Y-54895253D01*
X39710742Y-56429365D01*
G37*
G04 #@! TD.AperFunction*
D17*
X41386218Y-47956303D03*
G04 #@! TA.AperFunction,Conductor*
D18*
G36*
X39396403Y-55554042D02*
G01*
X38916993Y-55412034D01*
X39627031Y-53014984D01*
X40106441Y-53156992D01*
X39396403Y-55554042D01*
G37*
G04 #@! TD.AperFunction*
G04 #@! TA.AperFunction,Conductor*
G36*
X40930085Y-50376416D02*
G01*
X40450675Y-50234408D01*
X41160713Y-47837358D01*
X41640123Y-47979366D01*
X40930085Y-50376416D01*
G37*
G04 #@! TD.AperFunction*
G04 #@! TA.AperFunction,SMDPad,CuDef*
D11*
G36*
X62094365Y-47232258D02*
G01*
X60943781Y-46891440D01*
X61284599Y-45740856D01*
X62435183Y-46081674D01*
X62094365Y-47232258D01*
G37*
G04 #@! TD.AperFunction*
G04 #@! TA.AperFunction,SMDPad,CuDef*
G36*
X61199717Y-50252540D02*
G01*
X60049133Y-49911722D01*
X60389951Y-48761138D01*
X61540535Y-49101956D01*
X61199717Y-50252540D01*
G37*
G04 #@! TD.AperFunction*
G04 #@! TA.AperFunction,ComponentPad*
D16*
G36*
X60674342Y-52730363D02*
G01*
X59140230Y-52275939D01*
X59594654Y-50741827D01*
X61128766Y-51196251D01*
X60674342Y-52730363D01*
G37*
G04 #@! TD.AperFunction*
D17*
X62349818Y-44257301D03*
G04 #@! TA.AperFunction,Conductor*
D18*
G36*
X60360003Y-51855040D02*
G01*
X59880593Y-51713032D01*
X60590631Y-49315982D01*
X61070041Y-49457990D01*
X60360003Y-51855040D01*
G37*
G04 #@! TD.AperFunction*
G04 #@! TA.AperFunction,Conductor*
G36*
X61893685Y-46677414D02*
G01*
X61414275Y-46535406D01*
X62124313Y-44138356D01*
X62603723Y-44280364D01*
X61893685Y-46677414D01*
G37*
G04 #@! TD.AperFunction*
G04 #@! TA.AperFunction,SMDPad,CuDef*
D11*
G36*
X81637965Y-48328261D02*
G01*
X80487381Y-47987443D01*
X80828199Y-46836859D01*
X81978783Y-47177677D01*
X81637965Y-48328261D01*
G37*
G04 #@! TD.AperFunction*
G04 #@! TA.AperFunction,SMDPad,CuDef*
G36*
X80743317Y-51348543D02*
G01*
X79592733Y-51007725D01*
X79933551Y-49857141D01*
X81084135Y-50197959D01*
X80743317Y-51348543D01*
G37*
G04 #@! TD.AperFunction*
G04 #@! TA.AperFunction,ComponentPad*
D16*
G36*
X80217942Y-53826366D02*
G01*
X78683830Y-53371942D01*
X79138254Y-51837830D01*
X80672366Y-52292254D01*
X80217942Y-53826366D01*
G37*
G04 #@! TD.AperFunction*
D17*
X81893418Y-45353304D03*
G04 #@! TA.AperFunction,Conductor*
D18*
G36*
X79903603Y-52951043D02*
G01*
X79424193Y-52809035D01*
X80134231Y-50411985D01*
X80613641Y-50553993D01*
X79903603Y-52951043D01*
G37*
G04 #@! TD.AperFunction*
G04 #@! TA.AperFunction,Conductor*
G36*
X81437285Y-47773417D02*
G01*
X80957875Y-47631409D01*
X81667913Y-45234359D01*
X82147323Y-45376367D01*
X81437285Y-47773417D01*
G37*
G04 #@! TD.AperFunction*
G04 #@! TA.AperFunction,SMDPad,CuDef*
D11*
G36*
X98341464Y-59012259D02*
G01*
X97190880Y-58671441D01*
X97531698Y-57520857D01*
X98682282Y-57861675D01*
X98341464Y-59012259D01*
G37*
G04 #@! TD.AperFunction*
G04 #@! TA.AperFunction,SMDPad,CuDef*
G36*
X97446816Y-62032541D02*
G01*
X96296232Y-61691723D01*
X96637050Y-60541139D01*
X97787634Y-60881957D01*
X97446816Y-62032541D01*
G37*
G04 #@! TD.AperFunction*
G04 #@! TA.AperFunction,ComponentPad*
D16*
G36*
X96921441Y-64510364D02*
G01*
X95387329Y-64055940D01*
X95841753Y-62521828D01*
X97375865Y-62976252D01*
X96921441Y-64510364D01*
G37*
G04 #@! TD.AperFunction*
D17*
X98596917Y-56037302D03*
G04 #@! TA.AperFunction,Conductor*
D18*
G36*
X96607102Y-63635041D02*
G01*
X96127692Y-63493033D01*
X96837730Y-61095983D01*
X97317140Y-61237991D01*
X96607102Y-63635041D01*
G37*
G04 #@! TD.AperFunction*
G04 #@! TA.AperFunction,Conductor*
G36*
X98140784Y-58457415D02*
G01*
X97661374Y-58315407D01*
X98371412Y-55918357D01*
X98850822Y-56060365D01*
X98140784Y-58457415D01*
G37*
G04 #@! TD.AperFunction*
G04 #@! TA.AperFunction,SMDPad,CuDef*
D11*
G36*
X167520148Y-70288473D02*
G01*
X166369564Y-70629291D01*
X166028746Y-69478707D01*
X167179330Y-69137889D01*
X167520148Y-70288473D01*
G37*
G04 #@! TD.AperFunction*
G04 #@! TA.AperFunction,SMDPad,CuDef*
G36*
X168414796Y-73308755D02*
G01*
X167264212Y-73649573D01*
X166923394Y-72498989D01*
X168073978Y-72158171D01*
X168414796Y-73308755D01*
G37*
G04 #@! TD.AperFunction*
G04 #@! TA.AperFunction,ComponentPad*
D16*
G36*
X169323699Y-75672972D02*
G01*
X167789587Y-76127396D01*
X167335163Y-74593284D01*
X168869275Y-74138860D01*
X169323699Y-75672972D01*
G37*
G04 #@! TD.AperFunction*
D17*
X166114111Y-67654334D03*
G04 #@! TA.AperFunction,Conductor*
D18*
G36*
X168583336Y-75110065D02*
G01*
X168103926Y-75252073D01*
X167393888Y-72855023D01*
X167873298Y-72713015D01*
X168583336Y-75110065D01*
G37*
G04 #@! TD.AperFunction*
G04 #@! TA.AperFunction,Conductor*
G36*
X167049654Y-69932439D02*
G01*
X166570244Y-70074447D01*
X165860206Y-67677397D01*
X166339616Y-67535389D01*
X167049654Y-69932439D01*
G37*
G04 #@! TD.AperFunction*
G04 #@! TA.AperFunction,SMDPad,CuDef*
D11*
G36*
X185217647Y-62960072D02*
G01*
X184067063Y-63300890D01*
X183726245Y-62150306D01*
X184876829Y-61809488D01*
X185217647Y-62960072D01*
G37*
G04 #@! TD.AperFunction*
G04 #@! TA.AperFunction,SMDPad,CuDef*
G36*
X186112295Y-65980354D02*
G01*
X184961711Y-66321172D01*
X184620893Y-65170588D01*
X185771477Y-64829770D01*
X186112295Y-65980354D01*
G37*
G04 #@! TD.AperFunction*
G04 #@! TA.AperFunction,ComponentPad*
D16*
G36*
X187021198Y-68344571D02*
G01*
X185487086Y-68798995D01*
X185032662Y-67264883D01*
X186566774Y-66810459D01*
X187021198Y-68344571D01*
G37*
G04 #@! TD.AperFunction*
D17*
X183811610Y-60325933D03*
G04 #@! TA.AperFunction,Conductor*
D18*
G36*
X186280835Y-67781664D02*
G01*
X185801425Y-67923672D01*
X185091387Y-65526622D01*
X185570797Y-65384614D01*
X186280835Y-67781664D01*
G37*
G04 #@! TD.AperFunction*
G04 #@! TA.AperFunction,Conductor*
G36*
X184747153Y-62604038D02*
G01*
X184267743Y-62746046D01*
X183557705Y-60348996D01*
X184037115Y-60206988D01*
X184747153Y-62604038D01*
G37*
G04 #@! TD.AperFunction*
G04 #@! TA.AperFunction,SMDPad,CuDef*
D11*
G36*
X201921146Y-52276072D02*
G01*
X200770562Y-52616890D01*
X200429744Y-51466306D01*
X201580328Y-51125488D01*
X201921146Y-52276072D01*
G37*
G04 #@! TD.AperFunction*
G04 #@! TA.AperFunction,SMDPad,CuDef*
G36*
X202815794Y-55296354D02*
G01*
X201665210Y-55637172D01*
X201324392Y-54486588D01*
X202474976Y-54145770D01*
X202815794Y-55296354D01*
G37*
G04 #@! TD.AperFunction*
G04 #@! TA.AperFunction,ComponentPad*
D16*
G36*
X203724697Y-57660571D02*
G01*
X202190585Y-58114995D01*
X201736161Y-56580883D01*
X203270273Y-56126459D01*
X203724697Y-57660571D01*
G37*
G04 #@! TD.AperFunction*
D17*
X200515109Y-49641933D03*
G04 #@! TA.AperFunction,Conductor*
D18*
G36*
X202984334Y-57097664D02*
G01*
X202504924Y-57239672D01*
X201794886Y-54842622D01*
X202274296Y-54700614D01*
X202984334Y-57097664D01*
G37*
G04 #@! TD.AperFunction*
G04 #@! TA.AperFunction,Conductor*
G36*
X201450652Y-51920038D02*
G01*
X200971242Y-52062046D01*
X200261204Y-49664996D01*
X200740614Y-49522988D01*
X201450652Y-51920038D01*
G37*
G04 #@! TD.AperFunction*
G04 #@! TA.AperFunction,SMDPad,CuDef*
D11*
G36*
X221464748Y-51180073D02*
G01*
X220314164Y-51520891D01*
X219973346Y-50370307D01*
X221123930Y-50029489D01*
X221464748Y-51180073D01*
G37*
G04 #@! TD.AperFunction*
G04 #@! TA.AperFunction,SMDPad,CuDef*
G36*
X222359396Y-54200355D02*
G01*
X221208812Y-54541173D01*
X220867994Y-53390589D01*
X222018578Y-53049771D01*
X222359396Y-54200355D01*
G37*
G04 #@! TD.AperFunction*
G04 #@! TA.AperFunction,ComponentPad*
D16*
G36*
X223268299Y-56564572D02*
G01*
X221734187Y-57018996D01*
X221279763Y-55484884D01*
X222813875Y-55030460D01*
X223268299Y-56564572D01*
G37*
G04 #@! TD.AperFunction*
D17*
X220058711Y-48545934D03*
G04 #@! TA.AperFunction,Conductor*
D18*
G36*
X222527936Y-56001665D02*
G01*
X222048526Y-56143673D01*
X221338488Y-53746623D01*
X221817898Y-53604615D01*
X222527936Y-56001665D01*
G37*
G04 #@! TD.AperFunction*
G04 #@! TA.AperFunction,Conductor*
G36*
X220994254Y-50824039D02*
G01*
X220514844Y-50966047D01*
X219804806Y-48568997D01*
X220284216Y-48426989D01*
X220994254Y-50824039D01*
G37*
G04 #@! TD.AperFunction*
G04 #@! TA.AperFunction,SMDPad,CuDef*
D11*
G36*
X242428345Y-54879073D02*
G01*
X241277761Y-55219891D01*
X240936943Y-54069307D01*
X242087527Y-53728489D01*
X242428345Y-54879073D01*
G37*
G04 #@! TD.AperFunction*
G04 #@! TA.AperFunction,SMDPad,CuDef*
G36*
X243322993Y-57899355D02*
G01*
X242172409Y-58240173D01*
X241831591Y-57089589D01*
X242982175Y-56748771D01*
X243322993Y-57899355D01*
G37*
G04 #@! TD.AperFunction*
G04 #@! TA.AperFunction,ComponentPad*
D16*
G36*
X244231896Y-60263572D02*
G01*
X242697784Y-60717996D01*
X242243360Y-59183884D01*
X243777472Y-58729460D01*
X244231896Y-60263572D01*
G37*
G04 #@! TD.AperFunction*
D17*
X241022308Y-52244934D03*
G04 #@! TA.AperFunction,Conductor*
D18*
G36*
X243491533Y-59700665D02*
G01*
X243012123Y-59842673D01*
X242302085Y-57445623D01*
X242781495Y-57303615D01*
X243491533Y-59700665D01*
G37*
G04 #@! TD.AperFunction*
G04 #@! TA.AperFunction,Conductor*
G36*
X241957851Y-54523039D02*
G01*
X241478441Y-54665047D01*
X240768403Y-52267997D01*
X241247813Y-52125989D01*
X241957851Y-54523039D01*
G37*
G04 #@! TD.AperFunction*
G04 #@! TA.AperFunction,SMDPad,CuDef*
D11*
G36*
X260693647Y-49468072D02*
G01*
X259543063Y-49808890D01*
X259202245Y-48658306D01*
X260352829Y-48317488D01*
X260693647Y-49468072D01*
G37*
G04 #@! TD.AperFunction*
G04 #@! TA.AperFunction,SMDPad,CuDef*
G36*
X261588295Y-52488354D02*
G01*
X260437711Y-52829172D01*
X260096893Y-51678588D01*
X261247477Y-51337770D01*
X261588295Y-52488354D01*
G37*
G04 #@! TD.AperFunction*
G04 #@! TA.AperFunction,ComponentPad*
D16*
G36*
X262497198Y-54852571D02*
G01*
X260963086Y-55306995D01*
X260508662Y-53772883D01*
X262042774Y-53318459D01*
X262497198Y-54852571D01*
G37*
G04 #@! TD.AperFunction*
D17*
X259287610Y-46833933D03*
G04 #@! TA.AperFunction,Conductor*
D18*
G36*
X261756835Y-54289664D02*
G01*
X261277425Y-54431672D01*
X260567387Y-52034622D01*
X261046797Y-51892614D01*
X261756835Y-54289664D01*
G37*
G04 #@! TD.AperFunction*
G04 #@! TA.AperFunction,Conductor*
G36*
X260223153Y-49112038D02*
G01*
X259743743Y-49254046D01*
X259033705Y-46856996D01*
X259513115Y-46714988D01*
X260223153Y-49112038D01*
G37*
G04 #@! TD.AperFunction*
G04 #@! TA.AperFunction,SMDPad,CuDef*
D11*
G36*
X17454463Y-63786058D02*
G01*
X16303879Y-63445240D01*
X16644697Y-62294656D01*
X17795281Y-62635474D01*
X17454463Y-63786058D01*
G37*
G04 #@! TD.AperFunction*
G04 #@! TA.AperFunction,SMDPad,CuDef*
G36*
X16559815Y-66806340D02*
G01*
X15409231Y-66465522D01*
X15750049Y-65314938D01*
X16900633Y-65655756D01*
X16559815Y-66806340D01*
G37*
G04 #@! TD.AperFunction*
G04 #@! TA.AperFunction,ComponentPad*
D16*
G36*
X16034440Y-69284163D02*
G01*
X14500328Y-68829739D01*
X14954752Y-67295627D01*
X16488864Y-67750051D01*
X16034440Y-69284163D01*
G37*
G04 #@! TD.AperFunction*
D17*
X17709916Y-60811101D03*
G04 #@! TA.AperFunction,Conductor*
D18*
G36*
X15720101Y-68408840D02*
G01*
X15240691Y-68266832D01*
X15950729Y-65869782D01*
X16430139Y-66011790D01*
X15720101Y-68408840D01*
G37*
G04 #@! TD.AperFunction*
G04 #@! TA.AperFunction,Conductor*
G36*
X17253783Y-63231214D02*
G01*
X16774373Y-63089206D01*
X17484411Y-60692156D01*
X17963821Y-60834164D01*
X17253783Y-63231214D01*
G37*
G04 #@! TD.AperFunction*
G04 #@! TA.AperFunction,SMDPad,CuDef*
D11*
G36*
X35720464Y-69196558D02*
G01*
X34569880Y-68855740D01*
X34910698Y-67705156D01*
X36061282Y-68045974D01*
X35720464Y-69196558D01*
G37*
G04 #@! TD.AperFunction*
G04 #@! TA.AperFunction,SMDPad,CuDef*
G36*
X34825816Y-72216840D02*
G01*
X33675232Y-71876022D01*
X34016050Y-70725438D01*
X35166634Y-71066256D01*
X34825816Y-72216840D01*
G37*
G04 #@! TD.AperFunction*
G04 #@! TA.AperFunction,ComponentPad*
D16*
G36*
X34300441Y-74694663D02*
G01*
X32766329Y-74240239D01*
X33220753Y-72706127D01*
X34754865Y-73160551D01*
X34300441Y-74694663D01*
G37*
G04 #@! TD.AperFunction*
D17*
X35975917Y-66221601D03*
G04 #@! TA.AperFunction,Conductor*
D18*
G36*
X33986102Y-73819340D02*
G01*
X33506692Y-73677332D01*
X34216730Y-71280282D01*
X34696140Y-71422290D01*
X33986102Y-73819340D01*
G37*
G04 #@! TD.AperFunction*
G04 #@! TA.AperFunction,Conductor*
G36*
X35519784Y-68641714D02*
G01*
X35040374Y-68499706D01*
X35750412Y-66102656D01*
X36229822Y-66244664D01*
X35519784Y-68641714D01*
G37*
G04 #@! TD.AperFunction*
G04 #@! TA.AperFunction,SMDPad,CuDef*
D11*
G36*
X56683963Y-65498258D02*
G01*
X55533379Y-65157440D01*
X55874197Y-64006856D01*
X57024781Y-64347674D01*
X56683963Y-65498258D01*
G37*
G04 #@! TD.AperFunction*
G04 #@! TA.AperFunction,SMDPad,CuDef*
G36*
X55789315Y-68518540D02*
G01*
X54638731Y-68177722D01*
X54979549Y-67027138D01*
X56130133Y-67367956D01*
X55789315Y-68518540D01*
G37*
G04 #@! TD.AperFunction*
G04 #@! TA.AperFunction,ComponentPad*
D16*
G36*
X55263940Y-70996363D02*
G01*
X53729828Y-70541939D01*
X54184252Y-69007827D01*
X55718364Y-69462251D01*
X55263940Y-70996363D01*
G37*
G04 #@! TD.AperFunction*
D17*
X56939416Y-62523301D03*
G04 #@! TA.AperFunction,Conductor*
D18*
G36*
X54949601Y-70121040D02*
G01*
X54470191Y-69979032D01*
X55180229Y-67581982D01*
X55659639Y-67723990D01*
X54949601Y-70121040D01*
G37*
G04 #@! TD.AperFunction*
G04 #@! TA.AperFunction,Conductor*
G36*
X56483283Y-64943414D02*
G01*
X56003873Y-64801406D01*
X56713911Y-62404356D01*
X57193321Y-62546364D01*
X56483283Y-64943414D01*
G37*
G04 #@! TD.AperFunction*
G04 #@! TA.AperFunction,SMDPad,CuDef*
D11*
G36*
X76227464Y-66594057D02*
G01*
X75076880Y-66253239D01*
X75417698Y-65102655D01*
X76568282Y-65443473D01*
X76227464Y-66594057D01*
G37*
G04 #@! TD.AperFunction*
G04 #@! TA.AperFunction,SMDPad,CuDef*
G36*
X75332816Y-69614339D02*
G01*
X74182232Y-69273521D01*
X74523050Y-68122937D01*
X75673634Y-68463755D01*
X75332816Y-69614339D01*
G37*
G04 #@! TD.AperFunction*
G04 #@! TA.AperFunction,ComponentPad*
D16*
G36*
X74807441Y-72092162D02*
G01*
X73273329Y-71637738D01*
X73727753Y-70103626D01*
X75261865Y-70558050D01*
X74807441Y-72092162D01*
G37*
G04 #@! TD.AperFunction*
D17*
X76482917Y-63619100D03*
G04 #@! TA.AperFunction,Conductor*
D18*
G36*
X74493102Y-71216839D02*
G01*
X74013692Y-71074831D01*
X74723730Y-68677781D01*
X75203140Y-68819789D01*
X74493102Y-71216839D01*
G37*
G04 #@! TD.AperFunction*
G04 #@! TA.AperFunction,Conductor*
G36*
X76026784Y-66039213D02*
G01*
X75547374Y-65897205D01*
X76257412Y-63500155D01*
X76736822Y-63642163D01*
X76026784Y-66039213D01*
G37*
G04 #@! TD.AperFunction*
G04 #@! TA.AperFunction,SMDPad,CuDef*
D11*
G36*
X92930965Y-77278059D02*
G01*
X91780381Y-76937241D01*
X92121199Y-75786657D01*
X93271783Y-76127475D01*
X92930965Y-77278059D01*
G37*
G04 #@! TD.AperFunction*
G04 #@! TA.AperFunction,SMDPad,CuDef*
G36*
X92036317Y-80298341D02*
G01*
X90885733Y-79957523D01*
X91226551Y-78806939D01*
X92377135Y-79147757D01*
X92036317Y-80298341D01*
G37*
G04 #@! TD.AperFunction*
G04 #@! TA.AperFunction,ComponentPad*
D16*
G36*
X91510942Y-82776164D02*
G01*
X89976830Y-82321740D01*
X90431254Y-80787628D01*
X91965366Y-81242052D01*
X91510942Y-82776164D01*
G37*
G04 #@! TD.AperFunction*
D17*
X93186418Y-74303102D03*
G04 #@! TA.AperFunction,Conductor*
D18*
G36*
X91196603Y-81900841D02*
G01*
X90717193Y-81758833D01*
X91427231Y-79361783D01*
X91906641Y-79503791D01*
X91196603Y-81900841D01*
G37*
G04 #@! TD.AperFunction*
G04 #@! TA.AperFunction,Conductor*
G36*
X92730285Y-76723215D02*
G01*
X92250875Y-76581207D01*
X92960913Y-74184157D01*
X93440323Y-74326165D01*
X92730285Y-76723215D01*
G37*
G04 #@! TD.AperFunction*
G04 #@! TA.AperFunction,SMDPad,CuDef*
D11*
G36*
X110628466Y-84606156D02*
G01*
X109477882Y-84265338D01*
X109818700Y-83114754D01*
X110969284Y-83455572D01*
X110628466Y-84606156D01*
G37*
G04 #@! TD.AperFunction*
G04 #@! TA.AperFunction,SMDPad,CuDef*
G36*
X109733818Y-87626438D02*
G01*
X108583234Y-87285620D01*
X108924052Y-86135036D01*
X110074636Y-86475854D01*
X109733818Y-87626438D01*
G37*
G04 #@! TD.AperFunction*
G04 #@! TA.AperFunction,ComponentPad*
D16*
G36*
X109208443Y-90104261D02*
G01*
X107674331Y-89649837D01*
X108128755Y-88115725D01*
X109662867Y-88570149D01*
X109208443Y-90104261D01*
G37*
G04 #@! TD.AperFunction*
D17*
X110883919Y-81631199D03*
G04 #@! TA.AperFunction,Conductor*
D18*
G36*
X108894104Y-89228938D02*
G01*
X108414694Y-89086930D01*
X109124732Y-86689880D01*
X109604142Y-86831888D01*
X108894104Y-89228938D01*
G37*
G04 #@! TD.AperFunction*
G04 #@! TA.AperFunction,Conductor*
G36*
X110427786Y-84051312D02*
G01*
X109948376Y-83909304D01*
X110658414Y-81512254D01*
X111137824Y-81654262D01*
X110427786Y-84051312D01*
G37*
G04 #@! TD.AperFunction*
G04 #@! TA.AperFunction,SMDPad,CuDef*
D11*
G36*
X172930646Y-88553974D02*
G01*
X171780062Y-88894792D01*
X171439244Y-87744208D01*
X172589828Y-87403390D01*
X172930646Y-88553974D01*
G37*
G04 #@! TD.AperFunction*
G04 #@! TA.AperFunction,SMDPad,CuDef*
G36*
X173825294Y-91574256D02*
G01*
X172674710Y-91915074D01*
X172333892Y-90764490D01*
X173484476Y-90423672D01*
X173825294Y-91574256D01*
G37*
G04 #@! TD.AperFunction*
G04 #@! TA.AperFunction,ComponentPad*
D16*
G36*
X174734197Y-93938473D02*
G01*
X173200085Y-94392897D01*
X172745661Y-92858785D01*
X174279773Y-92404361D01*
X174734197Y-93938473D01*
G37*
G04 #@! TD.AperFunction*
D17*
X171524609Y-85919835D03*
G04 #@! TA.AperFunction,Conductor*
D18*
G36*
X173993834Y-93375566D02*
G01*
X173514424Y-93517574D01*
X172804386Y-91120524D01*
X173283796Y-90978516D01*
X173993834Y-93375566D01*
G37*
G04 #@! TD.AperFunction*
G04 #@! TA.AperFunction,Conductor*
G36*
X172460152Y-88197940D02*
G01*
X171980742Y-88339948D01*
X171270704Y-85942898D01*
X171750114Y-85800890D01*
X172460152Y-88197940D01*
G37*
G04 #@! TD.AperFunction*
G04 #@! TA.AperFunction,SMDPad,CuDef*
D11*
G36*
X190628147Y-81225873D02*
G01*
X189477563Y-81566691D01*
X189136745Y-80416107D01*
X190287329Y-80075289D01*
X190628147Y-81225873D01*
G37*
G04 #@! TD.AperFunction*
G04 #@! TA.AperFunction,SMDPad,CuDef*
G36*
X191522795Y-84246155D02*
G01*
X190372211Y-84586973D01*
X190031393Y-83436389D01*
X191181977Y-83095571D01*
X191522795Y-84246155D01*
G37*
G04 #@! TD.AperFunction*
G04 #@! TA.AperFunction,ComponentPad*
D16*
G36*
X192431698Y-86610372D02*
G01*
X190897586Y-87064796D01*
X190443162Y-85530684D01*
X191977274Y-85076260D01*
X192431698Y-86610372D01*
G37*
G04 #@! TD.AperFunction*
D17*
X189222110Y-78591734D03*
G04 #@! TA.AperFunction,Conductor*
D18*
G36*
X191691335Y-86047465D02*
G01*
X191211925Y-86189473D01*
X190501887Y-83792423D01*
X190981297Y-83650415D01*
X191691335Y-86047465D01*
G37*
G04 #@! TD.AperFunction*
G04 #@! TA.AperFunction,Conductor*
G36*
X190157653Y-80869839D02*
G01*
X189678243Y-81011847D01*
X188968205Y-78614797D01*
X189447615Y-78472789D01*
X190157653Y-80869839D01*
G37*
G04 #@! TD.AperFunction*
G04 #@! TA.AperFunction,Conductor*
G36*
X206861151Y-70185839D02*
G01*
X206381741Y-70327847D01*
X205671703Y-67930797D01*
X206151113Y-67788789D01*
X206861151Y-70185839D01*
G37*
G04 #@! TD.AperFunction*
G04 #@! TA.AperFunction,Conductor*
G36*
X208394833Y-75363465D02*
G01*
X207915423Y-75505473D01*
X207205385Y-73108423D01*
X207684795Y-72966415D01*
X208394833Y-75363465D01*
G37*
G04 #@! TD.AperFunction*
D17*
X205925608Y-67907734D03*
G04 #@! TA.AperFunction,ComponentPad*
D16*
G36*
X209135196Y-75926372D02*
G01*
X207601084Y-76380796D01*
X207146660Y-74846684D01*
X208680772Y-74392260D01*
X209135196Y-75926372D01*
G37*
G04 #@! TD.AperFunction*
G04 #@! TA.AperFunction,SMDPad,CuDef*
D11*
G36*
X208226293Y-73562155D02*
G01*
X207075709Y-73902973D01*
X206734891Y-72752389D01*
X207885475Y-72411571D01*
X208226293Y-73562155D01*
G37*
G04 #@! TD.AperFunction*
G04 #@! TA.AperFunction,SMDPad,CuDef*
G36*
X207331645Y-70541873D02*
G01*
X206181061Y-70882691D01*
X205840243Y-69732107D01*
X206990827Y-69391289D01*
X207331645Y-70541873D01*
G37*
G04 #@! TD.AperFunction*
G04 #@! TA.AperFunction,SMDPad,CuDef*
G36*
X226875147Y-69446073D02*
G01*
X225724563Y-69786891D01*
X225383745Y-68636307D01*
X226534329Y-68295489D01*
X226875147Y-69446073D01*
G37*
G04 #@! TD.AperFunction*
G04 #@! TA.AperFunction,SMDPad,CuDef*
G36*
X227769795Y-72466355D02*
G01*
X226619211Y-72807173D01*
X226278393Y-71656589D01*
X227428977Y-71315771D01*
X227769795Y-72466355D01*
G37*
G04 #@! TD.AperFunction*
G04 #@! TA.AperFunction,ComponentPad*
D16*
G36*
X228678698Y-74830572D02*
G01*
X227144586Y-75284996D01*
X226690162Y-73750884D01*
X228224274Y-73296460D01*
X228678698Y-74830572D01*
G37*
G04 #@! TD.AperFunction*
D17*
X225469110Y-66811934D03*
G04 #@! TA.AperFunction,Conductor*
D18*
G36*
X227938335Y-74267665D02*
G01*
X227458925Y-74409673D01*
X226748887Y-72012623D01*
X227228297Y-71870615D01*
X227938335Y-74267665D01*
G37*
G04 #@! TD.AperFunction*
G04 #@! TA.AperFunction,Conductor*
G36*
X226404653Y-69090039D02*
G01*
X225925243Y-69232047D01*
X225215205Y-66834997D01*
X225694615Y-66692989D01*
X226404653Y-69090039D01*
G37*
G04 #@! TD.AperFunction*
G04 #@! TA.AperFunction,SMDPad,CuDef*
D11*
G36*
X247838647Y-73144374D02*
G01*
X246688063Y-73485192D01*
X246347245Y-72334608D01*
X247497829Y-71993790D01*
X247838647Y-73144374D01*
G37*
G04 #@! TD.AperFunction*
G04 #@! TA.AperFunction,SMDPad,CuDef*
G36*
X248733295Y-76164656D02*
G01*
X247582711Y-76505474D01*
X247241893Y-75354890D01*
X248392477Y-75014072D01*
X248733295Y-76164656D01*
G37*
G04 #@! TD.AperFunction*
G04 #@! TA.AperFunction,ComponentPad*
D16*
G36*
X249642198Y-78528873D02*
G01*
X248108086Y-78983297D01*
X247653662Y-77449185D01*
X249187774Y-76994761D01*
X249642198Y-78528873D01*
G37*
G04 #@! TD.AperFunction*
D17*
X246432610Y-70510235D03*
G04 #@! TA.AperFunction,Conductor*
D18*
G36*
X248901835Y-77965966D02*
G01*
X248422425Y-78107974D01*
X247712387Y-75710924D01*
X248191797Y-75568916D01*
X248901835Y-77965966D01*
G37*
G04 #@! TD.AperFunction*
G04 #@! TA.AperFunction,Conductor*
G36*
X247368153Y-72788340D02*
G01*
X246888743Y-72930348D01*
X246178705Y-70533298D01*
X246658115Y-70391290D01*
X247368153Y-72788340D01*
G37*
G04 #@! TD.AperFunction*
G04 #@! TA.AperFunction,SMDPad,CuDef*
D11*
G36*
X266104648Y-67733871D02*
G01*
X264954064Y-68074689D01*
X264613246Y-66924105D01*
X265763830Y-66583287D01*
X266104648Y-67733871D01*
G37*
G04 #@! TD.AperFunction*
G04 #@! TA.AperFunction,SMDPad,CuDef*
G36*
X266999296Y-70754153D02*
G01*
X265848712Y-71094971D01*
X265507894Y-69944387D01*
X266658478Y-69603569D01*
X266999296Y-70754153D01*
G37*
G04 #@! TD.AperFunction*
G04 #@! TA.AperFunction,ComponentPad*
D16*
G36*
X267908199Y-73118370D02*
G01*
X266374087Y-73572794D01*
X265919663Y-72038682D01*
X267453775Y-71584258D01*
X267908199Y-73118370D01*
G37*
G04 #@! TD.AperFunction*
D17*
X264698611Y-65099732D03*
G04 #@! TA.AperFunction,Conductor*
D18*
G36*
X267167836Y-72555463D02*
G01*
X266688426Y-72697471D01*
X265978388Y-70300421D01*
X266457798Y-70158413D01*
X267167836Y-72555463D01*
G37*
G04 #@! TD.AperFunction*
G04 #@! TA.AperFunction,Conductor*
G36*
X265634154Y-67377837D02*
G01*
X265154744Y-67519845D01*
X264444706Y-65122795D01*
X264924116Y-64980787D01*
X265634154Y-67377837D01*
G37*
G04 #@! TD.AperFunction*
G04 #@! TA.AperFunction,SMDPad,CuDef*
D11*
G36*
X17875073Y-88237929D02*
G01*
X17534255Y-89388513D01*
X16383671Y-89047695D01*
X16724489Y-87897111D01*
X17875073Y-88237929D01*
G37*
G04 #@! TD.AperFunction*
G04 #@! TA.AperFunction,SMDPad,CuDef*
G36*
X20895355Y-89132577D02*
G01*
X20554537Y-90283161D01*
X19403953Y-89942343D01*
X19744771Y-88791759D01*
X20895355Y-89132577D01*
G37*
G04 #@! TD.AperFunction*
G04 #@! TA.AperFunction,ComponentPad*
D16*
G36*
X23373178Y-89657952D02*
G01*
X22918754Y-91192064D01*
X21384642Y-90737640D01*
X21839066Y-89203528D01*
X23373178Y-89657952D01*
G37*
G04 #@! TD.AperFunction*
D17*
X14900116Y-87982476D03*
G04 #@! TA.AperFunction,Conductor*
D18*
G36*
X22497855Y-89972291D02*
G01*
X22355847Y-90451701D01*
X19958797Y-89741663D01*
X20100805Y-89262253D01*
X22497855Y-89972291D01*
G37*
G04 #@! TD.AperFunction*
G04 #@! TA.AperFunction,Conductor*
G36*
X17320229Y-88438609D02*
G01*
X17178221Y-88918019D01*
X14781171Y-88207981D01*
X14923179Y-87728571D01*
X17320229Y-88438609D01*
G37*
G04 #@! TD.AperFunction*
G04 #@! TA.AperFunction,SMDPad,CuDef*
D11*
G36*
X30309464Y-87462060D02*
G01*
X29158880Y-87121242D01*
X29499698Y-85970658D01*
X30650282Y-86311476D01*
X30309464Y-87462060D01*
G37*
G04 #@! TD.AperFunction*
G04 #@! TA.AperFunction,SMDPad,CuDef*
G36*
X29414816Y-90482342D02*
G01*
X28264232Y-90141524D01*
X28605050Y-88990940D01*
X29755634Y-89331758D01*
X29414816Y-90482342D01*
G37*
G04 #@! TD.AperFunction*
G04 #@! TA.AperFunction,ComponentPad*
D16*
G36*
X28889441Y-92960165D02*
G01*
X27355329Y-92505741D01*
X27809753Y-90971629D01*
X29343865Y-91426053D01*
X28889441Y-92960165D01*
G37*
G04 #@! TD.AperFunction*
D17*
X30564917Y-84487103D03*
G04 #@! TA.AperFunction,Conductor*
D18*
G36*
X28575102Y-92084842D02*
G01*
X28095692Y-91942834D01*
X28805730Y-89545784D01*
X29285140Y-89687792D01*
X28575102Y-92084842D01*
G37*
G04 #@! TD.AperFunction*
G04 #@! TA.AperFunction,Conductor*
G36*
X30108784Y-86907216D02*
G01*
X29629374Y-86765208D01*
X30339412Y-84368158D01*
X30818822Y-84510166D01*
X30108784Y-86907216D01*
G37*
G04 #@! TD.AperFunction*
G04 #@! TA.AperFunction,SMDPad,CuDef*
D11*
G36*
X51301865Y-83667875D02*
G01*
X50151281Y-83327057D01*
X50492099Y-82176473D01*
X51642683Y-82517291D01*
X51301865Y-83667875D01*
G37*
G04 #@! TD.AperFunction*
G04 #@! TA.AperFunction,SMDPad,CuDef*
G36*
X50407217Y-86688157D02*
G01*
X49256633Y-86347339D01*
X49597451Y-85196755D01*
X50748035Y-85537573D01*
X50407217Y-86688157D01*
G37*
G04 #@! TD.AperFunction*
G04 #@! TA.AperFunction,ComponentPad*
D16*
G36*
X49881842Y-89165980D02*
G01*
X48347730Y-88711556D01*
X48802154Y-87177444D01*
X50336266Y-87631868D01*
X49881842Y-89165980D01*
G37*
G04 #@! TD.AperFunction*
D17*
X51557318Y-80692918D03*
G04 #@! TA.AperFunction,Conductor*
D18*
G36*
X49567503Y-88290657D02*
G01*
X49088093Y-88148649D01*
X49798131Y-85751599D01*
X50277541Y-85893607D01*
X49567503Y-88290657D01*
G37*
G04 #@! TD.AperFunction*
G04 #@! TA.AperFunction,Conductor*
G36*
X51101185Y-83113031D02*
G01*
X50621775Y-82971023D01*
X51331813Y-80573973D01*
X51811223Y-80715981D01*
X51101185Y-83113031D01*
G37*
G04 #@! TD.AperFunction*
G04 #@! TA.AperFunction,SMDPad,CuDef*
D11*
G36*
X70816965Y-84859558D02*
G01*
X69666381Y-84518740D01*
X70007199Y-83368156D01*
X71157783Y-83708974D01*
X70816965Y-84859558D01*
G37*
G04 #@! TD.AperFunction*
G04 #@! TA.AperFunction,SMDPad,CuDef*
G36*
X69922317Y-87879840D02*
G01*
X68771733Y-87539022D01*
X69112551Y-86388438D01*
X70263135Y-86729256D01*
X69922317Y-87879840D01*
G37*
G04 #@! TD.AperFunction*
G04 #@! TA.AperFunction,ComponentPad*
D16*
G36*
X69396942Y-90357663D02*
G01*
X67862830Y-89903239D01*
X68317254Y-88369127D01*
X69851366Y-88823551D01*
X69396942Y-90357663D01*
G37*
G04 #@! TD.AperFunction*
D17*
X71072418Y-81884601D03*
G04 #@! TA.AperFunction,Conductor*
D18*
G36*
X69082603Y-89482340D02*
G01*
X68603193Y-89340332D01*
X69313231Y-86943282D01*
X69792641Y-87085290D01*
X69082603Y-89482340D01*
G37*
G04 #@! TD.AperFunction*
G04 #@! TA.AperFunction,Conductor*
G36*
X70616285Y-84304714D02*
G01*
X70136875Y-84162706D01*
X70846913Y-81765656D01*
X71326323Y-81907664D01*
X70616285Y-84304714D01*
G37*
G04 #@! TD.AperFunction*
G04 #@! TA.AperFunction,SMDPad,CuDef*
D11*
G36*
X87520464Y-95543558D02*
G01*
X86369880Y-95202740D01*
X86710698Y-94052156D01*
X87861282Y-94392974D01*
X87520464Y-95543558D01*
G37*
G04 #@! TD.AperFunction*
G04 #@! TA.AperFunction,SMDPad,CuDef*
G36*
X86625816Y-98563840D02*
G01*
X85475232Y-98223022D01*
X85816050Y-97072438D01*
X86966634Y-97413256D01*
X86625816Y-98563840D01*
G37*
G04 #@! TD.AperFunction*
G04 #@! TA.AperFunction,ComponentPad*
D16*
G36*
X86100441Y-101041663D02*
G01*
X84566329Y-100587239D01*
X85020753Y-99053127D01*
X86554865Y-99507551D01*
X86100441Y-101041663D01*
G37*
G04 #@! TD.AperFunction*
D17*
X87775917Y-92568601D03*
G04 #@! TA.AperFunction,Conductor*
D18*
G36*
X85786102Y-100166340D02*
G01*
X85306692Y-100024332D01*
X86016730Y-97627282D01*
X86496140Y-97769290D01*
X85786102Y-100166340D01*
G37*
G04 #@! TD.AperFunction*
G04 #@! TA.AperFunction,Conductor*
G36*
X87319784Y-94988714D02*
G01*
X86840374Y-94846706D01*
X87550412Y-92449656D01*
X88029822Y-92591664D01*
X87319784Y-94988714D01*
G37*
G04 #@! TD.AperFunction*
G04 #@! TA.AperFunction,SMDPad,CuDef*
D11*
G36*
X105217964Y-102871660D02*
G01*
X104067380Y-102530842D01*
X104408198Y-101380258D01*
X105558782Y-101721076D01*
X105217964Y-102871660D01*
G37*
G04 #@! TD.AperFunction*
G04 #@! TA.AperFunction,SMDPad,CuDef*
G36*
X104323316Y-105891942D02*
G01*
X103172732Y-105551124D01*
X103513550Y-104400540D01*
X104664134Y-104741358D01*
X104323316Y-105891942D01*
G37*
G04 #@! TD.AperFunction*
G04 #@! TA.AperFunction,ComponentPad*
D16*
G36*
X103797941Y-108369765D02*
G01*
X102263829Y-107915341D01*
X102718253Y-106381229D01*
X104252365Y-106835653D01*
X103797941Y-108369765D01*
G37*
G04 #@! TD.AperFunction*
D17*
X105473417Y-99896703D03*
G04 #@! TA.AperFunction,Conductor*
D18*
G36*
X103483602Y-107494442D02*
G01*
X103004192Y-107352434D01*
X103714230Y-104955384D01*
X104193640Y-105097392D01*
X103483602Y-107494442D01*
G37*
G04 #@! TD.AperFunction*
G04 #@! TA.AperFunction,Conductor*
G36*
X105017284Y-102316816D02*
G01*
X104537874Y-102174808D01*
X105247912Y-99777758D01*
X105727322Y-99919766D01*
X105017284Y-102316816D01*
G37*
G04 #@! TD.AperFunction*
G04 #@! TA.AperFunction,SMDPad,CuDef*
D11*
G36*
X178341146Y-106819473D02*
G01*
X177190562Y-107160291D01*
X176849744Y-106009707D01*
X178000328Y-105668889D01*
X178341146Y-106819473D01*
G37*
G04 #@! TD.AperFunction*
G04 #@! TA.AperFunction,SMDPad,CuDef*
G36*
X179235794Y-109839755D02*
G01*
X178085210Y-110180573D01*
X177744392Y-109029989D01*
X178894976Y-108689171D01*
X179235794Y-109839755D01*
G37*
G04 #@! TD.AperFunction*
G04 #@! TA.AperFunction,ComponentPad*
D16*
G36*
X180144697Y-112203972D02*
G01*
X178610585Y-112658396D01*
X178156161Y-111124284D01*
X179690273Y-110669860D01*
X180144697Y-112203972D01*
G37*
G04 #@! TD.AperFunction*
D17*
X176935109Y-104185334D03*
G04 #@! TA.AperFunction,Conductor*
D18*
G36*
X179404334Y-111641065D02*
G01*
X178924924Y-111783073D01*
X178214886Y-109386023D01*
X178694296Y-109244015D01*
X179404334Y-111641065D01*
G37*
G04 #@! TD.AperFunction*
G04 #@! TA.AperFunction,Conductor*
G36*
X177870652Y-106463439D02*
G01*
X177391242Y-106605447D01*
X176681204Y-104208397D01*
X177160614Y-104066389D01*
X177870652Y-106463439D01*
G37*
G04 #@! TD.AperFunction*
G04 #@! TA.AperFunction,SMDPad,CuDef*
D11*
G36*
X196038646Y-99491372D02*
G01*
X194888062Y-99832190D01*
X194547244Y-98681606D01*
X195697828Y-98340788D01*
X196038646Y-99491372D01*
G37*
G04 #@! TD.AperFunction*
G04 #@! TA.AperFunction,SMDPad,CuDef*
G36*
X196933294Y-102511654D02*
G01*
X195782710Y-102852472D01*
X195441892Y-101701888D01*
X196592476Y-101361070D01*
X196933294Y-102511654D01*
G37*
G04 #@! TD.AperFunction*
G04 #@! TA.AperFunction,ComponentPad*
D16*
G36*
X197842197Y-104875871D02*
G01*
X196308085Y-105330295D01*
X195853661Y-103796183D01*
X197387773Y-103341759D01*
X197842197Y-104875871D01*
G37*
G04 #@! TD.AperFunction*
D17*
X194632609Y-96857233D03*
G04 #@! TA.AperFunction,Conductor*
D18*
G36*
X197101834Y-104312964D02*
G01*
X196622424Y-104454972D01*
X195912386Y-102057922D01*
X196391796Y-101915914D01*
X197101834Y-104312964D01*
G37*
G04 #@! TD.AperFunction*
G04 #@! TA.AperFunction,Conductor*
G36*
X195568152Y-99135338D02*
G01*
X195088742Y-99277346D01*
X194378704Y-96880296D01*
X194858114Y-96738288D01*
X195568152Y-99135338D01*
G37*
G04 #@! TD.AperFunction*
G04 #@! TA.AperFunction,SMDPad,CuDef*
D11*
G36*
X212742147Y-88807371D02*
G01*
X211591563Y-89148189D01*
X211250745Y-87997605D01*
X212401329Y-87656787D01*
X212742147Y-88807371D01*
G37*
G04 #@! TD.AperFunction*
G04 #@! TA.AperFunction,SMDPad,CuDef*
G36*
X213636795Y-91827653D02*
G01*
X212486211Y-92168471D01*
X212145393Y-91017887D01*
X213295977Y-90677069D01*
X213636795Y-91827653D01*
G37*
G04 #@! TD.AperFunction*
G04 #@! TA.AperFunction,ComponentPad*
D16*
G36*
X214545698Y-94191870D02*
G01*
X213011586Y-94646294D01*
X212557162Y-93112182D01*
X214091274Y-92657758D01*
X214545698Y-94191870D01*
G37*
G04 #@! TD.AperFunction*
D17*
X211336110Y-86173232D03*
G04 #@! TA.AperFunction,Conductor*
D18*
G36*
X213805335Y-93628963D02*
G01*
X213325925Y-93770971D01*
X212615887Y-91373921D01*
X213095297Y-91231913D01*
X213805335Y-93628963D01*
G37*
G04 #@! TD.AperFunction*
G04 #@! TA.AperFunction,Conductor*
G36*
X212271653Y-88451337D02*
G01*
X211792243Y-88593345D01*
X211082205Y-86196295D01*
X211561615Y-86054287D01*
X212271653Y-88451337D01*
G37*
G04 #@! TD.AperFunction*
G04 #@! TA.AperFunction,SMDPad,CuDef*
D11*
G36*
X232285647Y-87711572D02*
G01*
X231135063Y-88052390D01*
X230794245Y-86901806D01*
X231944829Y-86560988D01*
X232285647Y-87711572D01*
G37*
G04 #@! TD.AperFunction*
G04 #@! TA.AperFunction,SMDPad,CuDef*
G36*
X233180295Y-90731854D02*
G01*
X232029711Y-91072672D01*
X231688893Y-89922088D01*
X232839477Y-89581270D01*
X233180295Y-90731854D01*
G37*
G04 #@! TD.AperFunction*
G04 #@! TA.AperFunction,ComponentPad*
D16*
G36*
X234089198Y-93096071D02*
G01*
X232555086Y-93550495D01*
X232100662Y-92016383D01*
X233634774Y-91561959D01*
X234089198Y-93096071D01*
G37*
G04 #@! TD.AperFunction*
D17*
X230879610Y-85077433D03*
G04 #@! TA.AperFunction,Conductor*
D18*
G36*
X233348835Y-92533164D02*
G01*
X232869425Y-92675172D01*
X232159387Y-90278122D01*
X232638797Y-90136114D01*
X233348835Y-92533164D01*
G37*
G04 #@! TD.AperFunction*
G04 #@! TA.AperFunction,Conductor*
G36*
X231815153Y-87355538D02*
G01*
X231335743Y-87497546D01*
X230625705Y-85100496D01*
X231105115Y-84958488D01*
X231815153Y-87355538D01*
G37*
G04 #@! TD.AperFunction*
G04 #@! TA.AperFunction,SMDPad,CuDef*
D11*
G36*
X253249648Y-91409873D02*
G01*
X252099064Y-91750691D01*
X251758246Y-90600107D01*
X252908830Y-90259289D01*
X253249648Y-91409873D01*
G37*
G04 #@! TD.AperFunction*
G04 #@! TA.AperFunction,SMDPad,CuDef*
G36*
X254144296Y-94430155D02*
G01*
X252993712Y-94770973D01*
X252652894Y-93620389D01*
X253803478Y-93279571D01*
X254144296Y-94430155D01*
G37*
G04 #@! TD.AperFunction*
G04 #@! TA.AperFunction,ComponentPad*
D16*
G36*
X255053199Y-96794372D02*
G01*
X253519087Y-97248796D01*
X253064663Y-95714684D01*
X254598775Y-95260260D01*
X255053199Y-96794372D01*
G37*
G04 #@! TD.AperFunction*
D17*
X251843611Y-88775734D03*
G04 #@! TA.AperFunction,Conductor*
D18*
G36*
X254312836Y-96231465D02*
G01*
X253833426Y-96373473D01*
X253123388Y-93976423D01*
X253602798Y-93834415D01*
X254312836Y-96231465D01*
G37*
G04 #@! TD.AperFunction*
G04 #@! TA.AperFunction,Conductor*
G36*
X252779154Y-91053839D02*
G01*
X252299744Y-91195847D01*
X251589706Y-88798797D01*
X252069116Y-88656789D01*
X252779154Y-91053839D01*
G37*
G04 #@! TD.AperFunction*
G04 #@! TA.AperFunction,SMDPad,CuDef*
D11*
G36*
X271514647Y-85999372D02*
G01*
X270364063Y-86340190D01*
X270023245Y-85189606D01*
X271173829Y-84848788D01*
X271514647Y-85999372D01*
G37*
G04 #@! TD.AperFunction*
G04 #@! TA.AperFunction,SMDPad,CuDef*
G36*
X272409295Y-89019654D02*
G01*
X271258711Y-89360472D01*
X270917893Y-88209888D01*
X272068477Y-87869070D01*
X272409295Y-89019654D01*
G37*
G04 #@! TD.AperFunction*
G04 #@! TA.AperFunction,ComponentPad*
D16*
G36*
X273318198Y-91383871D02*
G01*
X271784086Y-91838295D01*
X271329662Y-90304183D01*
X272863774Y-89849759D01*
X273318198Y-91383871D01*
G37*
G04 #@! TD.AperFunction*
D17*
X270108610Y-83365233D03*
G04 #@! TA.AperFunction,Conductor*
D18*
G36*
X272577835Y-90820964D02*
G01*
X272098425Y-90962972D01*
X271388387Y-88565922D01*
X271867797Y-88423914D01*
X272577835Y-90820964D01*
G37*
G04 #@! TD.AperFunction*
G04 #@! TA.AperFunction,Conductor*
G36*
X271044153Y-85643338D02*
G01*
X270564743Y-85785346D01*
X269854705Y-83388296D01*
X270334115Y-83246288D01*
X271044153Y-85643338D01*
G37*
G04 #@! TD.AperFunction*
G04 #@! TA.AperFunction,SMDPad,CuDef*
D11*
G36*
X76812466Y-112239959D02*
G01*
X75661882Y-111899141D01*
X76002700Y-110748557D01*
X77153284Y-111089375D01*
X76812466Y-112239959D01*
G37*
G04 #@! TD.AperFunction*
G04 #@! TA.AperFunction,SMDPad,CuDef*
G36*
X75917818Y-115260241D02*
G01*
X74767234Y-114919423D01*
X75108052Y-113768839D01*
X76258636Y-114109657D01*
X75917818Y-115260241D01*
G37*
G04 #@! TD.AperFunction*
G04 #@! TA.AperFunction,ComponentPad*
D16*
G36*
X75392443Y-117738064D02*
G01*
X73858331Y-117283640D01*
X74312755Y-115749528D01*
X75846867Y-116203952D01*
X75392443Y-117738064D01*
G37*
G04 #@! TD.AperFunction*
D17*
X77067919Y-109265002D03*
G04 #@! TA.AperFunction,Conductor*
D18*
G36*
X75078104Y-116862741D02*
G01*
X74598694Y-116720733D01*
X75308732Y-114323683D01*
X75788142Y-114465691D01*
X75078104Y-116862741D01*
G37*
G04 #@! TD.AperFunction*
G04 #@! TA.AperFunction,Conductor*
G36*
X76611786Y-111685115D02*
G01*
X76132376Y-111543107D01*
X76842414Y-109146057D01*
X77321824Y-109288065D01*
X76611786Y-111685115D01*
G37*
G04 #@! TD.AperFunction*
G04 #@! TA.AperFunction,SMDPad,CuDef*
D11*
G36*
X98164814Y-121225237D02*
G01*
X97266068Y-120430093D01*
X98061212Y-119531347D01*
X98959958Y-120326491D01*
X98164814Y-121225237D01*
G37*
G04 #@! TD.AperFunction*
G04 #@! TA.AperFunction,SMDPad,CuDef*
G36*
X96077560Y-123584447D02*
G01*
X95178814Y-122789303D01*
X95973958Y-121890557D01*
X96872704Y-122685701D01*
X96077560Y-123584447D01*
G37*
G04 #@! TD.AperFunction*
G04 #@! TA.AperFunction,ComponentPad*
D16*
G36*
X94554237Y-125608085D02*
G01*
X93355907Y-124547893D01*
X94416099Y-123349563D01*
X95614429Y-124409755D01*
X94554237Y-125608085D01*
G37*
G04 #@! TD.AperFunction*
D17*
X99653604Y-118636970D03*
G04 #@! TA.AperFunction,Conductor*
D18*
G36*
X94639276Y-124681927D02*
G01*
X94264798Y-124350617D01*
X95921348Y-122478227D01*
X96295826Y-122809537D01*
X94639276Y-124681927D01*
G37*
G04 #@! TD.AperFunction*
G04 #@! TA.AperFunction,Conductor*
G36*
X98217424Y-120637567D02*
G01*
X97842946Y-120306257D01*
X99499496Y-118433867D01*
X99873974Y-118765177D01*
X98217424Y-120637567D01*
G37*
G04 #@! TD.AperFunction*
G04 #@! TA.AperFunction,SMDPad,CuDef*
D11*
G36*
X114553232Y-137786668D02*
G01*
X114074734Y-136686196D01*
X115175206Y-136207698D01*
X115653704Y-137308170D01*
X114553232Y-137786668D01*
G37*
G04 #@! TD.AperFunction*
G04 #@! TA.AperFunction,SMDPad,CuDef*
G36*
X111664492Y-139042728D02*
G01*
X111185994Y-137942256D01*
X112286466Y-137463758D01*
X112764964Y-138564230D01*
X111664492Y-139042728D01*
G37*
G04 #@! TD.AperFunction*
G04 #@! TA.AperFunction,ComponentPad*
D16*
G36*
X109428666Y-140232981D02*
G01*
X108790668Y-138765685D01*
X110257964Y-138127687D01*
X110895962Y-139594983D01*
X109428666Y-140232981D01*
G37*
G04 #@! TD.AperFunction*
D17*
X116996383Y-136070092D03*
G04 #@! TA.AperFunction,Conductor*
D18*
G36*
X109897149Y-139429536D02*
G01*
X109697775Y-138971006D01*
X111990425Y-137974134D01*
X112189799Y-138432664D01*
X109897149Y-139429536D01*
G37*
G04 #@! TD.AperFunction*
G04 #@! TA.AperFunction,Conductor*
G36*
X114849273Y-137276292D02*
G01*
X114649899Y-136817762D01*
X116942549Y-135820890D01*
X117141923Y-136279420D01*
X114849273Y-137276292D01*
G37*
G04 #@! TD.AperFunction*
G04 #@! TA.AperFunction,SMDPad,CuDef*
D11*
G36*
X176790861Y-150533803D02*
G01*
X176312363Y-151634275D01*
X175211891Y-151155777D01*
X175690389Y-150055305D01*
X176790861Y-150533803D01*
G37*
G04 #@! TD.AperFunction*
G04 #@! TA.AperFunction,SMDPad,CuDef*
G36*
X179679601Y-151789863D02*
G01*
X179201103Y-152890335D01*
X178100631Y-152411837D01*
X178579129Y-151311365D01*
X179679601Y-151789863D01*
G37*
G04 #@! TD.AperFunction*
G04 #@! TA.AperFunction,ComponentPad*
D16*
G36*
X182074927Y-152613292D02*
G01*
X181436929Y-154080588D01*
X179969633Y-153442590D01*
X180607631Y-151975294D01*
X182074927Y-152613292D01*
G37*
G04 #@! TD.AperFunction*
D17*
X173869212Y-149917699D03*
G04 #@! TA.AperFunction,Conductor*
D18*
G36*
X181167820Y-152818613D02*
G01*
X180968446Y-153277143D01*
X178675796Y-152280271D01*
X178875170Y-151821741D01*
X181167820Y-152818613D01*
G37*
G04 #@! TD.AperFunction*
G04 #@! TA.AperFunction,Conductor*
G36*
X176215696Y-150665369D02*
G01*
X176016322Y-151123899D01*
X173723672Y-150127027D01*
X173923046Y-149668497D01*
X176215696Y-150665369D01*
G37*
G04 #@! TD.AperFunction*
G04 #@! TA.AperFunction,SMDPad,CuDef*
D11*
G36*
X188311406Y-130435657D02*
G01*
X187412660Y-131230801D01*
X186617516Y-130332055D01*
X187516262Y-129536911D01*
X188311406Y-130435657D01*
G37*
G04 #@! TD.AperFunction*
G04 #@! TA.AperFunction,SMDPad,CuDef*
G36*
X190398660Y-132794867D02*
G01*
X189499914Y-133590011D01*
X188704770Y-132691265D01*
X189603516Y-131896121D01*
X190398660Y-132794867D01*
G37*
G04 #@! TD.AperFunction*
G04 #@! TA.AperFunction,ComponentPad*
D16*
G36*
X192221567Y-134553457D02*
G01*
X191023237Y-135613649D01*
X189963045Y-134415319D01*
X191161375Y-133355127D01*
X192221567Y-134553457D01*
G37*
G04 #@! TD.AperFunction*
D17*
X185923870Y-128642534D03*
G04 #@! TA.AperFunction,Conductor*
D18*
G36*
X191312676Y-134356181D02*
G01*
X190938198Y-134687491D01*
X189281648Y-132815101D01*
X189656126Y-132483791D01*
X191312676Y-134356181D01*
G37*
G04 #@! TD.AperFunction*
G04 #@! TA.AperFunction,Conductor*
G36*
X187734528Y-130311821D02*
G01*
X187360050Y-130643131D01*
X185703500Y-128770741D01*
X186077978Y-128439431D01*
X187734528Y-130311821D01*
G37*
G04 #@! TD.AperFunction*
G04 #@! TA.AperFunction,SMDPad,CuDef*
D11*
G36*
X206746647Y-116187774D02*
G01*
X205596063Y-116528592D01*
X205255245Y-115378008D01*
X206405829Y-115037190D01*
X206746647Y-116187774D01*
G37*
G04 #@! TD.AperFunction*
G04 #@! TA.AperFunction,SMDPad,CuDef*
G36*
X207641295Y-119208056D02*
G01*
X206490711Y-119548874D01*
X206149893Y-118398290D01*
X207300477Y-118057472D01*
X207641295Y-119208056D01*
G37*
G04 #@! TD.AperFunction*
G04 #@! TA.AperFunction,ComponentPad*
D16*
G36*
X208550198Y-121572273D02*
G01*
X207016086Y-122026697D01*
X206561662Y-120492585D01*
X208095774Y-120038161D01*
X208550198Y-121572273D01*
G37*
G04 #@! TD.AperFunction*
D17*
X205340610Y-113553635D03*
G04 #@! TA.AperFunction,Conductor*
D18*
G36*
X207809835Y-121009366D02*
G01*
X207330425Y-121151374D01*
X206620387Y-118754324D01*
X207099797Y-118612316D01*
X207809835Y-121009366D01*
G37*
G04 #@! TD.AperFunction*
G04 #@! TA.AperFunction,Conductor*
G36*
X206276153Y-115831740D02*
G01*
X205796743Y-115973748D01*
X205086705Y-113576698D01*
X205566115Y-113434690D01*
X206276153Y-115831740D01*
G37*
G04 #@! TD.AperFunction*
D10*
X29175662Y-48687896D03*
G04 #@! TA.AperFunction,SMDPad,CuDef*
D11*
G36*
X25901589Y-37611897D02*
G01*
X25191551Y-40008946D01*
X22746561Y-39284707D01*
X23456599Y-36887658D01*
X25901589Y-37611897D01*
G37*
G04 #@! TD.AperFunction*
D12*
X33783057Y-46548361D03*
X26973153Y-47180265D03*
G04 #@! TA.AperFunction,SMDPad,CuDef*
D11*
G36*
X39902641Y-39110107D02*
G01*
X39192603Y-41507156D01*
X36747613Y-40782917D01*
X37457651Y-38385868D01*
X39902641Y-39110107D01*
G37*
G04 #@! TD.AperFunction*
D10*
X24977996Y-45254298D03*
X47440961Y-54098895D03*
G04 #@! TA.AperFunction,SMDPad,CuDef*
D11*
G36*
X44166888Y-43022896D02*
G01*
X43456850Y-45419945D01*
X41011860Y-44695706D01*
X41721898Y-42298657D01*
X44166888Y-43022896D01*
G37*
G04 #@! TD.AperFunction*
D12*
X52048356Y-51959360D03*
X45238452Y-52591264D03*
G04 #@! TA.AperFunction,SMDPad,CuDef*
D11*
G36*
X58167940Y-44521106D02*
G01*
X57457902Y-46918155D01*
X55012912Y-46193916D01*
X55722950Y-43796867D01*
X58167940Y-44521106D01*
G37*
G04 #@! TD.AperFunction*
D10*
X43243295Y-50665297D03*
X68404562Y-50399896D03*
G04 #@! TA.AperFunction,SMDPad,CuDef*
D11*
G36*
X65130489Y-39323897D02*
G01*
X64420451Y-41720946D01*
X61975461Y-40996707D01*
X62685499Y-38599658D01*
X65130489Y-39323897D01*
G37*
G04 #@! TD.AperFunction*
D12*
X73011957Y-48260361D03*
X66202053Y-48892265D03*
G04 #@! TA.AperFunction,SMDPad,CuDef*
D11*
G36*
X79131541Y-40822107D02*
G01*
X78421503Y-43219156D01*
X75976513Y-42494917D01*
X76686551Y-40097868D01*
X79131541Y-40822107D01*
G37*
G04 #@! TD.AperFunction*
D10*
X64206896Y-46966298D03*
X87948163Y-51495896D03*
G04 #@! TA.AperFunction,SMDPad,CuDef*
D11*
G36*
X84674090Y-40419897D02*
G01*
X83964052Y-42816946D01*
X81519062Y-42092707D01*
X82229100Y-39695658D01*
X84674090Y-40419897D01*
G37*
G04 #@! TD.AperFunction*
D12*
X92555558Y-49356361D03*
X85745654Y-49988265D03*
G04 #@! TA.AperFunction,SMDPad,CuDef*
D11*
G36*
X98675142Y-41918107D02*
G01*
X97965104Y-44315156D01*
X95520114Y-43590917D01*
X96230152Y-41193868D01*
X98675142Y-41918107D01*
G37*
G04 #@! TD.AperFunction*
D10*
X83750497Y-48062298D03*
X104651661Y-62179895D03*
G04 #@! TA.AperFunction,SMDPad,CuDef*
D11*
G36*
X101377588Y-51103896D02*
G01*
X100667550Y-53500945D01*
X98222560Y-52776706D01*
X98932598Y-50379657D01*
X101377588Y-51103896D01*
G37*
G04 #@! TD.AperFunction*
D12*
X109259056Y-60040360D03*
X102449152Y-60672264D03*
G04 #@! TA.AperFunction,SMDPad,CuDef*
D11*
G36*
X115378640Y-52602106D02*
G01*
X114668602Y-54999155D01*
X112223612Y-54274916D01*
X112933650Y-51877867D01*
X115378640Y-52602106D01*
G37*
G04 #@! TD.AperFunction*
D10*
X100453995Y-58746297D03*
X174537544Y-69508295D03*
G04 #@! TA.AperFunction,SMDPad,CuDef*
D11*
G36*
X165759253Y-62002369D02*
G01*
X166469291Y-64399418D01*
X164024301Y-65123657D01*
X163314263Y-62726608D01*
X165759253Y-62002369D01*
G37*
G04 #@! TD.AperFunction*
D12*
X177236355Y-65204563D03*
X171869249Y-69443462D03*
G04 #@! TA.AperFunction,SMDPad,CuDef*
D11*
G36*
X178317507Y-55633354D02*
G01*
X179027545Y-58030403D01*
X176582555Y-58754642D01*
X175872517Y-56357593D01*
X178317507Y-55633354D01*
G37*
G04 #@! TD.AperFunction*
D10*
X169147013Y-68914851D03*
X192235044Y-62179895D03*
G04 #@! TA.AperFunction,SMDPad,CuDef*
D11*
G36*
X183456753Y-54673969D02*
G01*
X184166791Y-57071018D01*
X181721801Y-57795257D01*
X181011763Y-55398208D01*
X183456753Y-54673969D01*
G37*
G04 #@! TD.AperFunction*
D12*
X194933855Y-57876163D03*
X189566749Y-62115062D03*
G04 #@! TA.AperFunction,SMDPad,CuDef*
D11*
G36*
X196015007Y-48304954D02*
G01*
X196725045Y-50702003D01*
X194280055Y-51426242D01*
X193570017Y-49029193D01*
X196015007Y-48304954D01*
G37*
G04 #@! TD.AperFunction*
D10*
X186844513Y-61586451D03*
X208938544Y-51495896D03*
G04 #@! TA.AperFunction,SMDPad,CuDef*
D11*
G36*
X200160253Y-43989970D02*
G01*
X200870291Y-46387019D01*
X198425301Y-47111258D01*
X197715263Y-44714209D01*
X200160253Y-43989970D01*
G37*
G04 #@! TD.AperFunction*
D12*
X211637355Y-47192164D03*
X206270249Y-51431063D03*
G04 #@! TA.AperFunction,SMDPad,CuDef*
D11*
G36*
X212718507Y-37620955D02*
G01*
X213428545Y-40018004D01*
X210983555Y-40742243D01*
X210273517Y-38345194D01*
X212718507Y-37620955D01*
G37*
G04 #@! TD.AperFunction*
D10*
X203548013Y-50902452D03*
X228482143Y-50399895D03*
G04 #@! TA.AperFunction,SMDPad,CuDef*
D11*
G36*
X219703852Y-42893969D02*
G01*
X220413890Y-45291018D01*
X217968900Y-46015257D01*
X217258862Y-43618208D01*
X219703852Y-42893969D01*
G37*
G04 #@! TD.AperFunction*
D12*
X231180954Y-46096163D03*
X225813848Y-50335062D03*
G04 #@! TA.AperFunction,SMDPad,CuDef*
D11*
G36*
X232262106Y-36524954D02*
G01*
X232972144Y-38922003D01*
X230527154Y-39646242D01*
X229817116Y-37249193D01*
X232262106Y-36524954D01*
G37*
G04 #@! TD.AperFunction*
D10*
X223091612Y-49806451D03*
X249445742Y-54098896D03*
G04 #@! TA.AperFunction,SMDPad,CuDef*
D11*
G36*
X240667451Y-46592970D02*
G01*
X241377489Y-48990019D01*
X238932499Y-49714258D01*
X238222461Y-47317209D01*
X240667451Y-46592970D01*
G37*
G04 #@! TD.AperFunction*
D12*
X252144553Y-49795164D03*
X246777447Y-54034063D03*
G04 #@! TA.AperFunction,SMDPad,CuDef*
D11*
G36*
X253225705Y-40223955D02*
G01*
X253935743Y-42621004D01*
X251490753Y-43345243D01*
X250780715Y-40948194D01*
X253225705Y-40223955D01*
G37*
G04 #@! TD.AperFunction*
D10*
X244055211Y-53505452D03*
X267711045Y-48687896D03*
G04 #@! TA.AperFunction,SMDPad,CuDef*
D11*
G36*
X258932754Y-41181970D02*
G01*
X259642792Y-43579019D01*
X257197802Y-44303258D01*
X256487764Y-41906209D01*
X258932754Y-41181970D01*
G37*
G04 #@! TD.AperFunction*
D12*
X270409856Y-44384164D03*
X265042750Y-48623063D03*
G04 #@! TA.AperFunction,SMDPad,CuDef*
D11*
G36*
X271491008Y-34812955D02*
G01*
X272201046Y-37210004D01*
X269756056Y-37934243D01*
X269046018Y-35537194D01*
X271491008Y-34812955D01*
G37*
G04 #@! TD.AperFunction*
D10*
X262320514Y-48094452D03*
X42030662Y-72364195D03*
G04 #@! TA.AperFunction,SMDPad,CuDef*
D11*
G36*
X38756589Y-61288196D02*
G01*
X38046551Y-63685245D01*
X35601561Y-62961006D01*
X36311599Y-60563957D01*
X38756589Y-61288196D01*
G37*
G04 #@! TD.AperFunction*
D12*
X46638057Y-70224660D03*
X39828153Y-70856564D03*
G04 #@! TA.AperFunction,SMDPad,CuDef*
D11*
G36*
X52757641Y-62786406D02*
G01*
X52047603Y-65183455D01*
X49602613Y-64459216D01*
X50312651Y-62062167D01*
X52757641Y-62786406D01*
G37*
G04 #@! TD.AperFunction*
D10*
X37832996Y-68930597D03*
X62994162Y-68665897D03*
G04 #@! TA.AperFunction,SMDPad,CuDef*
D11*
G36*
X59720089Y-57589898D02*
G01*
X59010051Y-59986947D01*
X56565061Y-59262708D01*
X57275099Y-56865659D01*
X59720089Y-57589898D01*
G37*
G04 #@! TD.AperFunction*
D12*
X67601557Y-66526362D03*
X60791653Y-67158266D03*
G04 #@! TA.AperFunction,SMDPad,CuDef*
D11*
G36*
X73721141Y-59088108D02*
G01*
X73011103Y-61485157D01*
X70566113Y-60760918D01*
X71276151Y-58363869D01*
X73721141Y-59088108D01*
G37*
G04 #@! TD.AperFunction*
D10*
X58796496Y-65232299D03*
X82537660Y-69761696D03*
G04 #@! TA.AperFunction,SMDPad,CuDef*
D11*
G36*
X79263587Y-58685697D02*
G01*
X78553549Y-61082746D01*
X76108559Y-60358507D01*
X76818597Y-57961458D01*
X79263587Y-58685697D01*
G37*
G04 #@! TD.AperFunction*
D12*
X87145055Y-67622161D03*
X80335151Y-68254065D03*
G04 #@! TA.AperFunction,SMDPad,CuDef*
D11*
G36*
X93264639Y-60183907D02*
G01*
X92554601Y-62580956D01*
X90109611Y-61856717D01*
X90819649Y-59459668D01*
X93264639Y-60183907D01*
G37*
G04 #@! TD.AperFunction*
D10*
X78339994Y-66328098D03*
X99241162Y-80445697D03*
G04 #@! TA.AperFunction,SMDPad,CuDef*
D11*
G36*
X95967089Y-69369698D02*
G01*
X95257051Y-71766747D01*
X92812061Y-71042508D01*
X93522099Y-68645459D01*
X95967089Y-69369698D01*
G37*
G04 #@! TD.AperFunction*
D12*
X103848557Y-78306162D03*
X97038653Y-78938066D03*
G04 #@! TA.AperFunction,SMDPad,CuDef*
D11*
G36*
X109968141Y-70867908D02*
G01*
X109258103Y-73264957D01*
X106813113Y-72540718D01*
X107523151Y-70143669D01*
X109968141Y-70867908D01*
G37*
G04 #@! TD.AperFunction*
D10*
X95043496Y-77012099D03*
X179948043Y-87773795D03*
G04 #@! TA.AperFunction,SMDPad,CuDef*
D11*
G36*
X171169752Y-80267869D02*
G01*
X171879790Y-82664918D01*
X169434800Y-83389157D01*
X168724762Y-80992108D01*
X171169752Y-80267869D01*
G37*
G04 #@! TD.AperFunction*
D12*
X182646854Y-83470063D03*
X177279748Y-87708962D03*
G04 #@! TA.AperFunction,SMDPad,CuDef*
D11*
G36*
X183728006Y-73898854D02*
G01*
X184438044Y-76295903D01*
X181993054Y-77020142D01*
X181283016Y-74623093D01*
X183728006Y-73898854D01*
G37*
G04 #@! TD.AperFunction*
D10*
X174557512Y-87180351D03*
X197645543Y-80445697D03*
G04 #@! TA.AperFunction,SMDPad,CuDef*
D11*
G36*
X188867252Y-72939771D02*
G01*
X189577290Y-75336820D01*
X187132300Y-76061059D01*
X186422262Y-73664010D01*
X188867252Y-72939771D01*
G37*
G04 #@! TD.AperFunction*
D12*
X200344354Y-76141965D03*
X194977248Y-80380864D03*
G04 #@! TA.AperFunction,SMDPad,CuDef*
D11*
G36*
X201425506Y-66570756D02*
G01*
X202135544Y-68967805D01*
X199690554Y-69692044D01*
X198980516Y-67294995D01*
X201425506Y-66570756D01*
G37*
G04 #@! TD.AperFunction*
D10*
X192255012Y-79852253D03*
X214349043Y-69761695D03*
G04 #@! TA.AperFunction,SMDPad,CuDef*
D11*
G36*
X205570752Y-62255769D02*
G01*
X206280790Y-64652818D01*
X203835800Y-65377057D01*
X203125762Y-62980008D01*
X205570752Y-62255769D01*
G37*
G04 #@! TD.AperFunction*
D12*
X217047854Y-65457963D03*
X211680748Y-69696862D03*
G04 #@! TA.AperFunction,SMDPad,CuDef*
D11*
G36*
X218129006Y-55886754D02*
G01*
X218839044Y-58283803D01*
X216394054Y-59008042D01*
X215684016Y-56610993D01*
X218129006Y-55886754D01*
G37*
G04 #@! TD.AperFunction*
D10*
X208958512Y-69168251D03*
X233892544Y-68665897D03*
G04 #@! TA.AperFunction,SMDPad,CuDef*
D11*
G36*
X225114253Y-61159971D02*
G01*
X225824291Y-63557020D01*
X223379301Y-64281259D01*
X222669263Y-61884210D01*
X225114253Y-61159971D01*
G37*
G04 #@! TD.AperFunction*
D12*
X236591355Y-64362165D03*
X231224249Y-68601064D03*
G04 #@! TA.AperFunction,SMDPad,CuDef*
D11*
G36*
X237672507Y-54790956D02*
G01*
X238382545Y-57188005D01*
X235937555Y-57912244D01*
X235227517Y-55515195D01*
X237672507Y-54790956D01*
G37*
G04 #@! TD.AperFunction*
D10*
X228502013Y-68072453D03*
X254856043Y-72364198D03*
G04 #@! TA.AperFunction,SMDPad,CuDef*
D11*
G36*
X246077752Y-64858272D02*
G01*
X246787790Y-67255321D01*
X244342800Y-67979560D01*
X243632762Y-65582511D01*
X246077752Y-64858272D01*
G37*
G04 #@! TD.AperFunction*
D12*
X257554854Y-68060466D03*
X252187748Y-72299365D03*
G04 #@! TA.AperFunction,SMDPad,CuDef*
D11*
G36*
X258636006Y-58489257D02*
G01*
X259346044Y-60886306D01*
X256901054Y-61610545D01*
X256191016Y-59213496D01*
X258636006Y-58489257D01*
G37*
G04 #@! TD.AperFunction*
D10*
X249465512Y-71770754D03*
X273122045Y-66953695D03*
G04 #@! TA.AperFunction,SMDPad,CuDef*
D11*
G36*
X264343754Y-59447769D02*
G01*
X265053792Y-61844818D01*
X262608802Y-62569057D01*
X261898764Y-60172008D01*
X264343754Y-59447769D01*
G37*
G04 #@! TD.AperFunction*
D12*
X275820856Y-62649963D03*
X270453750Y-66888862D03*
G04 #@! TA.AperFunction,SMDPad,CuDef*
D11*
G36*
X276902008Y-53078754D02*
G01*
X277612046Y-55475803D01*
X275167056Y-56200042D01*
X274457018Y-53802993D01*
X276902008Y-53078754D01*
G37*
G04 #@! TD.AperFunction*
D10*
X267731514Y-66360251D03*
X18354660Y-85219196D03*
G04 #@! TA.AperFunction,SMDPad,CuDef*
D11*
G36*
X15080587Y-74143197D02*
G01*
X14370549Y-76540246D01*
X11925559Y-75816007D01*
X12635597Y-73418958D01*
X15080587Y-74143197D01*
G37*
G04 #@! TD.AperFunction*
D12*
X22962055Y-83079661D03*
X16152151Y-83711565D03*
G04 #@! TA.AperFunction,SMDPad,CuDef*
D11*
G36*
X29081639Y-75641407D02*
G01*
X28371601Y-78038456D01*
X25926611Y-77314217D01*
X26636649Y-74917168D01*
X29081639Y-75641407D01*
G37*
G04 #@! TD.AperFunction*
D10*
X14156994Y-81785598D03*
X36619661Y-90629695D03*
G04 #@! TA.AperFunction,SMDPad,CuDef*
D11*
G36*
X33345588Y-79553696D02*
G01*
X32635550Y-81950745D01*
X30190560Y-81226506D01*
X30900598Y-78829457D01*
X33345588Y-79553696D01*
G37*
G04 #@! TD.AperFunction*
D12*
X41227056Y-88490160D03*
X34417152Y-89122064D03*
G04 #@! TA.AperFunction,SMDPad,CuDef*
D11*
G36*
X47346640Y-81051906D02*
G01*
X46636602Y-83448955D01*
X44191612Y-82724716D01*
X44901650Y-80327667D01*
X47346640Y-81051906D01*
G37*
G04 #@! TD.AperFunction*
D10*
X32421995Y-87196097D03*
X57583664Y-86931395D03*
G04 #@! TA.AperFunction,SMDPad,CuDef*
D11*
G36*
X54309591Y-75855396D02*
G01*
X53599553Y-78252445D01*
X51154563Y-77528206D01*
X51864601Y-75131157D01*
X54309591Y-75855396D01*
G37*
G04 #@! TD.AperFunction*
D12*
X62191059Y-84791860D03*
X55381155Y-85423764D03*
G04 #@! TA.AperFunction,SMDPad,CuDef*
D11*
G36*
X68310643Y-77353606D02*
G01*
X67600605Y-79750655D01*
X65155615Y-79026416D01*
X65865653Y-76629367D01*
X68310643Y-77353606D01*
G37*
G04 #@! TD.AperFunction*
D10*
X53385998Y-83497797D03*
X77127161Y-88027196D03*
G04 #@! TA.AperFunction,SMDPad,CuDef*
D11*
G36*
X73853088Y-76951197D02*
G01*
X73143050Y-79348246D01*
X70698060Y-78624007D01*
X71408098Y-76226958D01*
X73853088Y-76951197D01*
G37*
G04 #@! TD.AperFunction*
D12*
X81734556Y-85887661D03*
X74924652Y-86519565D03*
G04 #@! TA.AperFunction,SMDPad,CuDef*
D11*
G36*
X87854140Y-78449407D02*
G01*
X87144102Y-80846456D01*
X84699112Y-80122217D01*
X85409150Y-77725168D01*
X87854140Y-78449407D01*
G37*
G04 #@! TD.AperFunction*
D10*
X72929495Y-84593598D03*
X93830663Y-98711195D03*
G04 #@! TA.AperFunction,SMDPad,CuDef*
D11*
G36*
X90556590Y-87635196D02*
G01*
X89846552Y-90032245D01*
X87401562Y-89308006D01*
X88111600Y-86910957D01*
X90556590Y-87635196D01*
G37*
G04 #@! TD.AperFunction*
D12*
X98438058Y-96571660D03*
X91628154Y-97203564D03*
G04 #@! TA.AperFunction,SMDPad,CuDef*
D11*
G36*
X104557642Y-89133406D02*
G01*
X103847604Y-91530455D01*
X101402614Y-90806216D01*
X102112652Y-88409167D01*
X104557642Y-89133406D01*
G37*
G04 #@! TD.AperFunction*
D10*
X89632997Y-95277597D03*
X111528163Y-106039296D03*
G04 #@! TA.AperFunction,SMDPad,CuDef*
D11*
G36*
X108254090Y-94963297D02*
G01*
X107544052Y-97360346D01*
X105099062Y-96636107D01*
X105809100Y-94239058D01*
X108254090Y-94963297D01*
G37*
G04 #@! TD.AperFunction*
D12*
X116135558Y-103899761D03*
X109325654Y-104531665D03*
G04 #@! TA.AperFunction,SMDPad,CuDef*
D11*
G36*
X122255142Y-96461507D02*
G01*
X121545104Y-98858556D01*
X119100114Y-98134317D01*
X119810152Y-95737268D01*
X122255142Y-96461507D01*
G37*
G04 #@! TD.AperFunction*
D10*
X107330497Y-102605698D03*
X185358544Y-106039296D03*
G04 #@! TA.AperFunction,SMDPad,CuDef*
D11*
G36*
X176580253Y-98533370D02*
G01*
X177290291Y-100930419D01*
X174845301Y-101654658D01*
X174135263Y-99257609D01*
X176580253Y-98533370D01*
G37*
G04 #@! TD.AperFunction*
D12*
X188057355Y-101735564D03*
X182690249Y-105974463D03*
G04 #@! TA.AperFunction,SMDPad,CuDef*
D11*
G36*
X189138507Y-92164355D02*
G01*
X189848545Y-94561404D01*
X187403555Y-95285643D01*
X186693517Y-92888594D01*
X189138507Y-92164355D01*
G37*
G04 #@! TD.AperFunction*
D10*
X179968013Y-105445852D03*
X203056043Y-98711194D03*
G04 #@! TA.AperFunction,SMDPad,CuDef*
D11*
G36*
X194277752Y-91205268D02*
G01*
X194987790Y-93602317D01*
X192542800Y-94326556D01*
X191832762Y-91929507D01*
X194277752Y-91205268D01*
G37*
G04 #@! TD.AperFunction*
D12*
X205754854Y-94407462D03*
X200387748Y-98646361D03*
G04 #@! TA.AperFunction,SMDPad,CuDef*
D11*
G36*
X206836006Y-84836253D02*
G01*
X207546044Y-87233302D01*
X205101054Y-87957541D01*
X204391016Y-85560492D01*
X206836006Y-84836253D01*
G37*
G04 #@! TD.AperFunction*
D10*
X197665512Y-98117750D03*
X219759543Y-88027196D03*
G04 #@! TA.AperFunction,SMDPad,CuDef*
D11*
G36*
X210981252Y-80521270D02*
G01*
X211691290Y-82918319D01*
X209246300Y-83642558D01*
X208536262Y-81245509D01*
X210981252Y-80521270D01*
G37*
G04 #@! TD.AperFunction*
D12*
X222458354Y-83723464D03*
X217091248Y-87962363D03*
G04 #@! TA.AperFunction,SMDPad,CuDef*
D11*
G36*
X223539506Y-74152255D02*
G01*
X224249544Y-76549304D01*
X221804554Y-77273543D01*
X221094516Y-74876494D01*
X223539506Y-74152255D01*
G37*
G04 #@! TD.AperFunction*
D10*
X214369012Y-87433752D03*
X239303043Y-86931396D03*
G04 #@! TA.AperFunction,SMDPad,CuDef*
D11*
G36*
X230524752Y-79425470D02*
G01*
X231234790Y-81822519D01*
X228789800Y-82546758D01*
X228079762Y-80149709D01*
X230524752Y-79425470D01*
G37*
G04 #@! TD.AperFunction*
D12*
X242001854Y-82627664D03*
X236634748Y-86866563D03*
G04 #@! TA.AperFunction,SMDPad,CuDef*
D11*
G36*
X243083006Y-73056455D02*
G01*
X243793044Y-75453504D01*
X241348054Y-76177743D01*
X240638016Y-73780694D01*
X243083006Y-73056455D01*
G37*
G04 #@! TD.AperFunction*
D10*
X233912512Y-86337952D03*
X260267045Y-90629696D03*
G04 #@! TA.AperFunction,SMDPad,CuDef*
D11*
G36*
X251488754Y-83123770D02*
G01*
X252198792Y-85520819D01*
X249753802Y-86245058D01*
X249043764Y-83848009D01*
X251488754Y-83123770D01*
G37*
G04 #@! TD.AperFunction*
D12*
X262965856Y-86325964D03*
X257598750Y-90564863D03*
G04 #@! TA.AperFunction,SMDPad,CuDef*
D11*
G36*
X264047008Y-76754755D02*
G01*
X264757046Y-79151804D01*
X262312056Y-79876043D01*
X261602018Y-77478994D01*
X264047008Y-76754755D01*
G37*
G04 #@! TD.AperFunction*
D10*
X254876514Y-90036252D03*
X278532045Y-85219196D03*
G04 #@! TA.AperFunction,SMDPad,CuDef*
D11*
G36*
X269753754Y-77713270D02*
G01*
X270463792Y-80110319D01*
X268018802Y-80834558D01*
X267308764Y-78437509D01*
X269753754Y-77713270D01*
G37*
G04 #@! TD.AperFunction*
D12*
X281230856Y-80915464D03*
X275863750Y-85154363D03*
G04 #@! TA.AperFunction,SMDPad,CuDef*
D11*
G36*
X282312008Y-71344255D02*
G01*
X283022046Y-73741304D01*
X280577056Y-74465543D01*
X279867018Y-72068494D01*
X282312008Y-71344255D01*
G37*
G04 #@! TD.AperFunction*
D10*
X273141514Y-84625752D03*
X83122663Y-115407596D03*
G04 #@! TA.AperFunction,SMDPad,CuDef*
D11*
G36*
X79848590Y-104331597D02*
G01*
X79138552Y-106728646D01*
X76693562Y-106004407D01*
X77403600Y-103607358D01*
X79848590Y-104331597D01*
G37*
G04 #@! TD.AperFunction*
D12*
X87730058Y-113268061D03*
X80920154Y-113899965D03*
G04 #@! TA.AperFunction,SMDPad,CuDef*
D11*
G36*
X93849642Y-105829807D02*
G01*
X93139604Y-108226856D01*
X90694614Y-107502617D01*
X91404652Y-105105568D01*
X93849642Y-105829807D01*
G37*
G04 #@! TD.AperFunction*
D10*
X78924997Y-111973998D03*
X213764043Y-115407596D03*
G04 #@! TA.AperFunction,SMDPad,CuDef*
D11*
G36*
X204985752Y-107901670D02*
G01*
X205695790Y-110298719D01*
X203250800Y-111022958D01*
X202540762Y-108625909D01*
X204985752Y-107901670D01*
G37*
G04 #@! TD.AperFunction*
D12*
X216462854Y-111103864D03*
X211095748Y-115342763D03*
G04 #@! TA.AperFunction,SMDPad,CuDef*
D11*
G36*
X217544006Y-101532655D02*
G01*
X218254044Y-103929704D01*
X215809054Y-104653943D01*
X215099016Y-102256894D01*
X217544006Y-101532655D01*
G37*
G04 #@! TD.AperFunction*
D10*
X208373512Y-114814152D03*
D20*
X130447367Y-75692999D03*
X124988951Y-93944305D03*
X119564279Y-112205721D03*
X172988474Y-121024774D03*
X126682430Y-120902481D03*
D21*
X25841745Y-46845127D02*
X26973152Y-47180266D01*
X24977996Y-45254299D02*
X25841745Y-46845127D01*
X23581151Y-42681630D02*
X23120917Y-42545302D01*
X24977996Y-45254299D02*
X23581151Y-42681630D01*
X23114170Y-42532874D02*
X23120917Y-42545302D01*
X24324073Y-38448301D02*
X23114170Y-42532874D01*
X39170528Y-55434415D02*
X39170897Y-55435095D01*
X48326745Y-58147182D02*
X60134498Y-51736096D01*
X39170897Y-55435095D02*
X48326745Y-58147182D01*
X74085568Y-55868591D02*
X79678098Y-52832097D01*
X60134498Y-51736096D02*
X74085568Y-55868591D01*
X94899442Y-57340864D02*
X97041932Y-61286841D01*
X79678098Y-52832097D02*
X94899442Y-57340864D01*
X114335826Y-68834381D02*
X114739435Y-68615241D01*
X96381598Y-63516096D02*
X114335826Y-68834381D01*
X114079097Y-70844496D02*
X128529730Y-75124969D01*
X128529730Y-75124969D02*
X130447367Y-75692999D01*
X243237999Y-59723046D02*
X243237628Y-59723727D01*
X261502931Y-54312728D02*
X243237999Y-59723046D01*
X242371308Y-56799082D02*
X242577293Y-57494471D01*
X234354524Y-52446322D02*
X242371308Y-56799082D01*
X222274030Y-56024727D02*
X234354524Y-52446322D01*
X218910757Y-52327897D02*
X221613694Y-53795471D01*
X202730430Y-57120728D02*
X218910757Y-52327897D01*
X199019019Y-63956295D02*
X202730430Y-57120728D01*
X186026930Y-67804727D02*
X199019019Y-63956295D01*
X184677150Y-70290714D02*
X186026930Y-67804727D01*
X168329431Y-75133128D02*
X184677150Y-70290714D01*
X130447367Y-75692999D02*
X130447367Y-75692999D01*
X20905968Y-50024778D02*
X20905596Y-50024094D01*
X39170898Y-55435097D02*
X20905968Y-50024778D01*
X44107046Y-52256127D02*
X45238452Y-52591264D01*
X43243294Y-50665297D02*
X44107046Y-52256127D01*
X41846451Y-48092629D02*
X41386218Y-47956302D01*
X43243294Y-50665297D02*
X41846451Y-48092629D01*
X41379469Y-47943873D02*
X41386218Y-47956302D01*
X42589376Y-43859303D02*
X41379469Y-47943873D01*
X65070645Y-48557128D02*
X66202053Y-48892266D01*
X64206895Y-46966300D02*
X65070645Y-48557128D01*
X62810051Y-44393630D02*
X62349818Y-44257303D01*
X64206895Y-46966300D02*
X62810051Y-44393630D01*
X62343071Y-44244875D02*
X62349818Y-44257303D01*
X63552973Y-40160302D02*
X62343071Y-44244875D01*
X84614245Y-49653128D02*
X85745653Y-49988265D01*
X83750495Y-48062299D02*
X84614245Y-49653128D01*
X82353652Y-45489628D02*
X81893416Y-45353301D01*
X83750495Y-48062299D02*
X82353652Y-45489628D01*
X81886671Y-45340873D02*
X81893416Y-45353301D01*
X83096575Y-41256301D02*
X81886671Y-45340873D01*
X101317746Y-60337128D02*
X102449154Y-60672265D01*
X100453996Y-58746297D02*
X101317746Y-60337128D01*
X99057149Y-56173630D02*
X98596918Y-56037302D01*
X100453996Y-58746297D02*
X99057149Y-56173630D01*
X98590168Y-56024874D02*
X98596918Y-56037302D01*
X99800073Y-51940302D02*
X98590168Y-56024874D01*
X119015245Y-67665528D02*
X120146651Y-68000666D01*
X118151496Y-66074699D02*
X119015245Y-67665528D01*
X116754651Y-63502030D02*
X116294417Y-63365702D01*
X118151496Y-66074699D02*
X116754651Y-63502030D01*
X116287671Y-63353275D02*
X116294417Y-63365702D01*
X117497574Y-59268703D02*
X116287671Y-63353275D01*
X170737841Y-69778602D02*
X171869249Y-69443462D01*
X169147014Y-68914852D02*
X170737841Y-69778602D01*
X166574344Y-67518006D02*
X166114111Y-67654335D01*
X169147014Y-68914852D02*
X166574344Y-67518006D01*
X166101684Y-67647586D02*
X166114111Y-67654335D01*
X164891778Y-63563013D02*
X166101684Y-67647586D01*
X188435342Y-62450201D02*
X189566748Y-62115064D01*
X186844511Y-61586452D02*
X188435342Y-62450201D01*
X184271843Y-60189607D02*
X183811610Y-60325934D01*
X186844511Y-61586452D02*
X184271843Y-60189607D01*
X183799180Y-60319187D02*
X183811610Y-60325934D01*
X182589276Y-56234613D02*
X183799180Y-60319187D01*
X205138841Y-51766201D02*
X206270249Y-51431062D01*
X203548012Y-50902451D02*
X205138841Y-51766201D01*
X200975344Y-49505606D02*
X200515110Y-49641935D01*
X203548012Y-50902451D02*
X200975344Y-49505606D01*
X200502682Y-49635184D02*
X200515110Y-49641935D01*
X199292775Y-45550613D02*
X200502682Y-49635184D01*
X224682440Y-50670202D02*
X225813848Y-50335062D01*
X223091613Y-49806451D02*
X224682440Y-50670202D01*
X220518944Y-48409606D02*
X220058710Y-48545934D01*
X223091613Y-49806451D02*
X220518944Y-48409606D01*
X220046282Y-48539186D02*
X220058710Y-48545934D01*
X218836377Y-44454614D02*
X220046282Y-48539186D01*
X245646041Y-54369202D02*
X246777448Y-54034064D01*
X244055211Y-53505450D02*
X245646041Y-54369202D01*
X241482543Y-52108606D02*
X241022310Y-52244934D01*
X244055211Y-53505450D02*
X241482543Y-52108606D01*
X241009881Y-52238186D02*
X241022310Y-52244934D01*
X239799975Y-48153613D02*
X241009881Y-52238186D01*
X263911342Y-48958200D02*
X265042750Y-48623064D01*
X262320512Y-48094452D02*
X263911342Y-48958200D01*
X259747845Y-46697606D02*
X259287610Y-46833933D01*
X262320512Y-48094452D02*
X259747845Y-46697606D01*
X259275183Y-46827186D02*
X259287610Y-46833933D01*
X258065278Y-42742614D02*
X259275183Y-46827186D01*
X18170151Y-60947430D02*
X17709918Y-60811101D01*
X19566996Y-63520099D02*
X18170151Y-60947430D01*
X17703170Y-60798674D02*
X17709918Y-60811101D01*
X18913074Y-56714101D02*
X17703170Y-60798674D01*
X20430745Y-65110926D02*
X21562153Y-65446064D01*
X19566996Y-63520099D02*
X20430745Y-65110926D01*
X33760436Y-73700483D02*
X33760597Y-73700394D01*
X15494598Y-68289894D02*
X33760436Y-73700483D01*
X42917217Y-76412711D02*
X54724096Y-70002097D01*
X33760597Y-73700394D02*
X42917217Y-76412711D01*
X68674864Y-74134501D02*
X74267597Y-71097895D01*
X54724096Y-70002097D02*
X68674864Y-74134501D01*
X89488943Y-75606665D02*
X91631432Y-79552640D01*
X74267597Y-71097895D02*
X89488943Y-75606665D01*
X108924969Y-87100074D02*
X109328934Y-86880739D01*
X90971096Y-81781897D02*
X108924969Y-87100074D01*
X108668597Y-89109994D02*
X123071315Y-93376273D01*
X123071315Y-93376273D02*
X124988951Y-93944305D01*
X224320954Y-70593786D02*
X227024094Y-72061471D01*
X208140929Y-75386528D02*
X224320954Y-70593786D01*
X247781642Y-75064490D02*
X247987595Y-75759772D01*
X239765585Y-70712126D02*
X247781642Y-75064490D01*
X227684430Y-74290727D02*
X239765585Y-70712126D01*
X266913771Y-72578441D02*
X266913929Y-72578527D01*
X248647929Y-77989029D02*
X266913771Y-72578441D01*
X204429518Y-82222097D02*
X208140929Y-75386528D01*
X191437431Y-86070528D02*
X204429518Y-82222097D01*
X190087844Y-88556154D02*
X191437431Y-86070528D01*
X173739931Y-93398627D02*
X190087844Y-88556154D01*
X124988951Y-93944305D02*
X124988951Y-93944305D01*
X38696745Y-70521427D02*
X39828153Y-70856565D01*
X37832995Y-68930597D02*
X38696745Y-70521427D01*
X36436150Y-66357930D02*
X35975917Y-66221603D01*
X37832995Y-68930597D02*
X36436150Y-66357930D01*
X35969168Y-66209174D02*
X35975917Y-66221603D01*
X37179074Y-62124603D02*
X35969168Y-66209174D01*
X59660246Y-66823128D02*
X60791651Y-67158267D01*
X58796497Y-65232298D02*
X59660246Y-66823128D01*
X57399649Y-62659630D02*
X56939419Y-62523303D01*
X58796497Y-65232298D02*
X57399649Y-62659630D01*
X56932668Y-62510874D02*
X56939419Y-62523303D01*
X58142574Y-58426303D02*
X56932668Y-62510874D01*
X79203745Y-67918925D02*
X80335151Y-68254065D01*
X78339995Y-66328097D02*
X79203745Y-67918925D01*
X76943150Y-63755429D02*
X76482917Y-63619101D01*
X78339995Y-66328097D02*
X76943150Y-63755429D01*
X76476169Y-63606673D02*
X76482917Y-63619101D01*
X77686074Y-59522101D02*
X76476169Y-63606673D01*
X95907245Y-78602928D02*
X97038652Y-78938065D01*
X95043496Y-77012098D02*
X95907245Y-78602928D01*
X93646651Y-74439430D02*
X93186416Y-74303101D01*
X95043496Y-77012098D02*
X93646651Y-74439430D01*
X93179669Y-74290672D02*
X93186416Y-74303101D01*
X94389575Y-70206101D02*
X93179669Y-74290672D01*
X113604744Y-85931026D02*
X114736153Y-86266164D01*
X112740999Y-84340198D02*
X113604744Y-85931026D01*
X111344152Y-81767528D02*
X110883916Y-81631202D01*
X112740999Y-84340198D02*
X111344152Y-81767528D01*
X110877169Y-81618773D02*
X110883916Y-81631202D01*
X112087074Y-77534201D02*
X110877169Y-81618773D01*
X176148341Y-88044101D02*
X177279748Y-87708964D01*
X174557512Y-87180352D02*
X176148341Y-88044101D01*
X171984843Y-85783506D02*
X171524609Y-85919835D01*
X174557512Y-87180352D02*
X171984843Y-85783506D01*
X171512181Y-85913087D02*
X171524609Y-85919835D01*
X170302276Y-81828515D02*
X171512181Y-85913087D01*
X193845841Y-80716001D02*
X194977249Y-80380864D01*
X192255012Y-79852253D02*
X193845841Y-80716001D01*
X189682344Y-78455407D02*
X189222110Y-78591734D01*
X192255012Y-79852253D02*
X189682344Y-78455407D01*
X189209682Y-78584987D02*
X189222110Y-78591734D01*
X187999777Y-74500414D02*
X189209682Y-78584987D01*
X210549341Y-70032001D02*
X211680748Y-69696863D01*
X208958511Y-69168250D02*
X210549341Y-70032001D01*
X206385842Y-67771407D02*
X205925609Y-67907733D01*
X208958511Y-69168250D02*
X206385842Y-67771407D01*
X205913181Y-67900986D02*
X205925609Y-67907733D01*
X204703276Y-63816412D02*
X205913181Y-67900986D01*
X230092841Y-68936201D02*
X231224248Y-68601064D01*
X228502012Y-68072452D02*
X230092841Y-68936201D01*
X225929345Y-66675607D02*
X225469110Y-66811934D01*
X228502012Y-68072452D02*
X225929345Y-66675607D01*
X225456682Y-66805185D02*
X225469110Y-66811934D01*
X224246776Y-62720614D02*
X225456682Y-66805185D01*
X251056341Y-72634502D02*
X252187748Y-72299364D01*
X249465512Y-71770751D02*
X251056341Y-72634502D01*
X246892843Y-70373906D02*
X246432609Y-70510234D01*
X249465512Y-71770751D02*
X246892843Y-70373906D01*
X246420180Y-70503487D02*
X246432609Y-70510234D01*
X245210276Y-66418914D02*
X246420180Y-70503487D01*
X269322342Y-67224000D02*
X270453748Y-66888862D01*
X267731512Y-66360250D02*
X269322342Y-67224000D01*
X265158843Y-64963405D02*
X264698611Y-65099732D01*
X267731512Y-66360250D02*
X265158843Y-64963405D01*
X264686181Y-65092984D02*
X264698611Y-65099732D01*
X263476276Y-61008412D02*
X264686181Y-65092984D01*
X15020746Y-83376427D02*
X16152153Y-83711565D01*
X14156994Y-81785597D02*
X15020746Y-83376427D01*
X14891662Y-87966908D02*
X14900116Y-87982476D01*
X16152153Y-83711565D02*
X14891662Y-87966908D01*
X12429496Y-78603941D02*
X13503074Y-74979602D01*
X14156994Y-81785597D02*
X12429496Y-78603941D01*
X28349003Y-91966219D02*
X28349598Y-91965896D01*
X22378910Y-90197797D02*
X28349003Y-91966219D01*
X37410657Y-94649905D02*
X49342000Y-88171714D01*
X28349598Y-91965896D02*
X37410657Y-94649905D01*
X63388648Y-92332520D02*
X68857097Y-89363395D01*
X49342000Y-88171714D02*
X63388648Y-92332520D01*
X84078443Y-93872163D02*
X86220933Y-97818141D01*
X68857097Y-89363395D02*
X84078443Y-93872163D01*
X103514470Y-105365576D02*
X103918435Y-105146241D01*
X85560598Y-100047395D02*
X103514470Y-105365576D01*
X103258096Y-107375497D02*
X115188957Y-110909578D01*
X229731453Y-88859287D02*
X232434595Y-90326970D01*
X213551430Y-93652026D02*
X229731453Y-88859287D01*
X246490671Y-88588228D02*
X250803805Y-90930067D01*
X233094930Y-92556227D02*
X246490671Y-88588228D01*
X251399056Y-92939610D02*
X253398596Y-94025271D01*
X250803805Y-90930067D02*
X251399056Y-92939610D01*
X272323826Y-90844217D02*
X272323929Y-90844027D01*
X254058931Y-96254526D02*
X272323826Y-90844217D01*
X209840020Y-100487593D02*
X213551430Y-93652026D01*
X196847928Y-104336026D02*
X209840020Y-100487593D01*
X195498343Y-106821653D02*
X196847928Y-104336026D01*
X179150431Y-111664128D02*
X195498343Y-106821653D01*
X115190000Y-110910000D02*
X119564279Y-112205721D01*
X33285744Y-88786926D02*
X34417153Y-89122066D01*
X32421995Y-87196098D02*
X33285744Y-88786926D01*
X31025152Y-84623430D02*
X30564917Y-84487101D01*
X32421995Y-87196098D02*
X31025152Y-84623430D01*
X30558170Y-84474673D02*
X30564917Y-84487101D01*
X31768075Y-80390100D02*
X30558170Y-84474673D01*
X54249746Y-85088627D02*
X55381153Y-85423763D01*
X53385997Y-83497796D02*
X54249746Y-85088627D01*
X51921670Y-80800845D02*
X51557319Y-80692919D01*
X53385997Y-83497796D02*
X51921670Y-80800845D01*
X51550571Y-80680491D02*
X51557319Y-80692919D01*
X52732074Y-76691802D02*
X51550571Y-80680491D01*
X73793245Y-86184428D02*
X74924653Y-86519565D01*
X72929495Y-84593596D02*
X73793245Y-86184428D01*
X71532652Y-82020930D02*
X71072417Y-81884603D01*
X72929495Y-84593596D02*
X71532652Y-82020930D01*
X71065670Y-81872172D02*
X71072417Y-81884603D01*
X72275574Y-77787603D02*
X71065670Y-81872172D01*
X90496746Y-96868427D02*
X91628152Y-97203564D01*
X89632997Y-95277598D02*
X90496746Y-96868427D01*
X88236151Y-92704929D02*
X87775918Y-92568603D01*
X89632997Y-95277598D02*
X88236151Y-92704929D01*
X87769169Y-92556174D02*
X87775918Y-92568603D01*
X88979074Y-88471601D02*
X87769169Y-92556174D01*
X108194245Y-104196528D02*
X109325654Y-104531665D01*
X107330496Y-102605697D02*
X108194245Y-104196528D01*
X105933650Y-100033030D02*
X105473416Y-99896701D01*
X107330496Y-102605697D02*
X105933650Y-100033030D01*
X105466668Y-99884275D02*
X105473416Y-99896701D01*
X106676574Y-95799701D02*
X105466668Y-99884275D01*
X181558842Y-106309601D02*
X182690248Y-105974462D01*
X179968011Y-105445853D02*
X181558842Y-106309601D01*
X177395343Y-104049007D02*
X176935110Y-104185334D01*
X179968011Y-105445853D02*
X177395343Y-104049007D01*
X176922682Y-104178586D02*
X176935110Y-104185334D01*
X175712776Y-100094013D02*
X176922682Y-104178586D01*
X199256340Y-98981500D02*
X200387748Y-98646363D01*
X197665512Y-98117752D02*
X199256340Y-98981500D01*
X195092843Y-96720906D02*
X194632610Y-96857232D01*
X197665512Y-98117752D02*
X195092843Y-96720906D01*
X194620181Y-96850485D02*
X194632610Y-96857232D01*
X193410277Y-92765913D02*
X194620181Y-96850485D01*
X215959841Y-88297501D02*
X217091249Y-87962363D01*
X214369013Y-87433752D02*
X215959841Y-88297501D01*
X211796344Y-86036905D02*
X211336111Y-86173233D01*
X214369013Y-87433752D02*
X211796344Y-86036905D01*
X211323682Y-86166484D02*
X211336111Y-86173233D01*
X210113777Y-82081912D02*
X211323682Y-86166484D01*
X235503341Y-87201700D02*
X236634748Y-86866562D01*
X233912512Y-86337952D02*
X235503341Y-87201700D01*
X231339844Y-84941106D02*
X230879611Y-85077434D01*
X233912512Y-86337952D02*
X231339844Y-84941106D01*
X230867182Y-85070685D02*
X230879611Y-85077434D01*
X229657276Y-80986113D02*
X230867182Y-85070685D01*
X256467342Y-90900001D02*
X257598750Y-90564861D01*
X254876513Y-90036250D02*
X256467342Y-90900001D01*
X252303844Y-88639406D02*
X251843611Y-88775733D01*
X254876513Y-90036250D02*
X252303844Y-88639406D01*
X251831181Y-88768984D02*
X251843611Y-88775733D01*
X250621278Y-84684412D02*
X251831181Y-88768984D01*
X274732341Y-85489501D02*
X275863749Y-85154363D01*
X273141511Y-84625750D02*
X274732341Y-85489501D01*
X270568844Y-83228906D02*
X270108611Y-83365233D01*
X273141511Y-84625750D02*
X270568844Y-83228906D01*
X270096181Y-83358486D02*
X270108611Y-83365233D01*
X268886277Y-79273913D02*
X270096181Y-83358486D01*
X79788746Y-113564828D02*
X80920153Y-113899964D01*
X78924998Y-111973997D02*
X79788746Y-113564828D01*
X77528152Y-109401329D02*
X77067920Y-109265002D01*
X78924998Y-111973997D02*
X77528152Y-109401329D01*
X77061171Y-109252574D02*
X77067920Y-109265002D01*
X78271077Y-105168001D02*
X77061171Y-109252574D01*
X91155400Y-121572906D02*
X74852599Y-116743797D01*
X91197699Y-121570318D02*
X91155400Y-121572906D01*
X109056358Y-137370326D02*
X91197699Y-121570318D01*
X109843314Y-139180334D02*
X109056330Y-137370396D01*
X109056330Y-137370396D02*
X109056358Y-137370326D01*
X109843314Y-139180334D02*
X115050944Y-125959993D01*
X115050944Y-125959993D02*
X126682430Y-120902481D01*
X207555931Y-121032427D02*
X205625958Y-121604111D01*
X205624535Y-121627357D02*
X205625958Y-121604111D01*
X191092307Y-134484390D02*
X205624535Y-121627357D01*
X191092307Y-134484390D02*
X191068281Y-134457233D01*
X191068281Y-134457233D02*
X184518063Y-134056604D01*
X184518063Y-134056604D02*
X172988474Y-121024774D01*
X191092307Y-134484390D02*
X187819909Y-137379561D01*
X187822990Y-137387381D02*
X187819909Y-137379561D01*
X181022280Y-153027942D02*
X187822990Y-137387381D01*
X172988474Y-121024774D02*
X172988474Y-121024774D01*
X100302327Y-123683807D02*
X101186095Y-124465700D01*
X100191818Y-121876991D02*
X100302327Y-123683807D01*
X100013104Y-118955029D02*
X99653605Y-118636972D01*
X100191818Y-121876991D02*
X100013104Y-118955029D01*
X99652740Y-118622855D02*
X99653605Y-118636972D01*
X102475503Y-115432304D02*
X99652740Y-118622855D01*
X115451440Y-140918242D02*
X115921965Y-142000371D01*
X116114878Y-139234005D02*
X115451440Y-140918242D01*
X117187782Y-136510281D02*
X116996383Y-136070091D01*
X116114878Y-139234005D02*
X117187782Y-136510281D01*
X117001566Y-136056933D02*
X116996383Y-136070091D01*
X120908241Y-134358262D02*
X117001566Y-136056933D01*
X178468572Y-147741169D02*
X178939096Y-146659038D01*
X176784335Y-148404607D02*
X178468572Y-147741169D01*
X174060611Y-149477510D02*
X173869210Y-149917699D01*
X176784335Y-148404607D02*
X174060611Y-149477510D01*
X173856052Y-149922883D02*
X173869210Y-149917699D01*
X169949378Y-148224211D02*
X173856052Y-149922883D01*
X191012148Y-128613702D02*
X191895915Y-127831809D01*
X189205331Y-128503191D02*
X191012148Y-128613702D01*
X186283369Y-128324476D02*
X185923870Y-128642534D01*
X189205331Y-128503191D02*
X186283369Y-128324476D01*
X185909755Y-128641670D02*
X185923870Y-128642534D01*
X183086992Y-125451118D02*
X185909755Y-128641670D01*
X209964341Y-115677901D02*
X211095747Y-115342763D01*
X208373513Y-114814151D02*
X209964341Y-115677901D01*
X205800845Y-113417306D02*
X205340610Y-113553635D01*
X208373513Y-114814151D02*
X205800845Y-113417306D01*
X205328182Y-113546887D02*
X205340610Y-113553635D01*
X204118277Y-109462315D02*
X205328182Y-113546887D01*
X40654763Y-38681623D02*
X52664444Y-42239053D01*
X38325125Y-39946512D02*
X40654763Y-38681623D01*
X52664444Y-42239053D02*
X53486116Y-42482443D01*
X53486116Y-42482443D02*
X57578808Y-40260292D01*
X57578808Y-40260292D02*
X65915297Y-35733948D01*
X65915297Y-35733948D02*
X78508346Y-39464180D01*
X78508346Y-39464180D02*
X84100874Y-36427684D01*
X99455978Y-40976072D02*
X99455980Y-40976075D01*
X84100874Y-36427684D02*
X99455978Y-40976072D01*
X116111455Y-51645849D02*
X116111458Y-51645850D01*
X117461234Y-54131833D02*
X135448763Y-59459982D01*
X116111458Y-51645850D02*
X117461234Y-54131833D01*
X33783057Y-46548360D02*
X33853640Y-46310075D01*
X33783057Y-46548360D02*
X34045480Y-46626093D01*
X35242895Y-41620028D02*
X38325125Y-39946512D01*
X33783057Y-46548360D02*
X35242895Y-41620028D01*
X135551452Y-59490401D02*
X135448762Y-59459981D01*
X139718453Y-63657400D02*
X135551452Y-59490401D01*
X140594752Y-67492859D02*
X139718453Y-66616560D01*
X139718453Y-66616560D02*
X139718453Y-63657400D01*
X29831895Y-59885826D02*
X32914126Y-58212312D01*
X28372056Y-64814159D02*
X29831895Y-59885826D01*
X24421894Y-78151327D02*
X27504125Y-76477812D01*
X22962056Y-83079660D02*
X24421894Y-78151327D01*
X116111458Y-51645850D02*
X115976594Y-51397462D01*
X103032526Y-47563254D02*
X99455978Y-40976072D01*
X115976594Y-51397462D02*
X103032526Y-47563254D01*
X53508194Y-47031026D02*
X56590426Y-45357511D01*
X52048356Y-51959361D02*
X53508194Y-47031026D01*
X48097896Y-65296327D02*
X51180127Y-63622811D01*
X46638057Y-70224659D02*
X48097896Y-65296327D01*
X42686895Y-83561826D02*
X45769126Y-81888312D01*
X41227056Y-88490160D02*
X42686895Y-83561826D01*
X57999403Y-40600885D02*
X56590426Y-45357511D01*
X65971866Y-36272190D02*
X57999403Y-40600885D01*
X78564917Y-40002420D02*
X65971866Y-36272190D01*
X115770863Y-52066447D02*
X115770864Y-52066443D01*
X115636002Y-51818059D02*
X102691935Y-47983852D01*
X135210862Y-59910997D02*
X117120643Y-54552429D01*
X141051952Y-70032858D02*
X139218443Y-68199349D01*
X117120643Y-54552429D02*
X115770863Y-52066447D01*
X139218443Y-68199349D02*
X139218443Y-63918579D01*
X115770864Y-52066443D02*
X115636002Y-51818059D01*
X139218443Y-63918579D02*
X135210862Y-59910997D01*
X99115387Y-41396669D02*
X84157445Y-36965926D01*
X102691935Y-47983852D02*
X99115387Y-41396669D01*
X84157445Y-36965926D02*
X78564917Y-40002420D01*
X74471795Y-43332027D02*
X77554028Y-41658511D01*
X73011957Y-48260361D02*
X74471795Y-43332027D01*
X93657138Y-59648326D02*
X80066675Y-55622648D01*
X93203300Y-62764865D02*
X93960797Y-60207597D01*
X80066675Y-55622648D02*
X72143627Y-59924511D01*
X94473871Y-65104966D02*
X93203300Y-62764865D01*
X110534751Y-69862415D02*
X94473871Y-65104966D01*
X135484724Y-77682885D02*
X129894467Y-77682885D01*
X93960797Y-60207597D02*
X93657138Y-59648326D01*
X112098675Y-72411532D02*
X110749091Y-69925904D01*
X140594753Y-72572859D02*
X135484724Y-77682885D01*
X129894467Y-77682885D02*
X112098675Y-72411532D01*
X110749091Y-69925904D02*
X110534751Y-69862415D01*
X63650898Y-79863526D02*
X66733129Y-78190011D01*
X62191058Y-84791860D02*
X63650898Y-79863526D01*
X69061396Y-61598028D02*
X72143627Y-59924513D01*
X67601557Y-66526362D02*
X69061396Y-61598028D01*
X91687126Y-61020311D02*
X94133278Y-65525564D01*
X94133278Y-65525564D02*
X110408497Y-70346502D01*
X111758083Y-72832129D02*
X123888020Y-76425180D01*
X110408497Y-70346502D02*
X111758083Y-72832129D01*
X123888020Y-76425180D02*
X129752445Y-78162302D01*
X94015396Y-44428028D02*
X97097627Y-42754512D01*
X92555557Y-49356361D02*
X94015396Y-44428028D01*
X89189896Y-108339727D02*
X92272128Y-106666213D01*
X87730059Y-113268059D02*
X89189896Y-108339727D01*
X141051951Y-75112859D02*
X138761872Y-75112858D01*
X135691835Y-78182895D02*
X129752445Y-78182896D01*
X138761872Y-75112858D02*
X135691835Y-78182895D01*
X88604895Y-62693827D02*
X91687126Y-61020312D01*
X87145056Y-67622161D02*
X88604895Y-62693827D01*
X83194394Y-80959327D02*
X86276626Y-79285812D01*
X81734555Y-85887661D02*
X83194394Y-80959327D01*
X110718895Y-55112026D02*
X113801126Y-53438513D01*
X109259057Y-60040361D02*
X110718895Y-55112026D01*
X111030887Y-122921358D02*
X114531595Y-122707243D01*
X107625020Y-126770989D02*
X111030887Y-122921358D01*
X122524872Y-95759229D02*
X102980125Y-89969811D01*
X139398819Y-78848792D02*
X140594752Y-77652858D01*
X122524870Y-95759229D02*
X122974684Y-95515002D01*
X125117875Y-95419815D02*
X139398819Y-81138872D01*
X139398819Y-81138872D02*
X139398819Y-78848792D01*
X122974684Y-95515002D02*
X123069870Y-95419816D01*
X123069870Y-95419816D02*
X125117875Y-95419815D01*
X105308396Y-73377828D02*
X108390627Y-71704314D01*
X103848557Y-78306162D02*
X105308396Y-73377828D01*
X99897897Y-91643326D02*
X102980128Y-89969811D01*
X98438057Y-96571659D02*
X99897897Y-91643326D01*
X120677628Y-97297912D02*
X120717247Y-97309650D01*
X128416397Y-62440427D02*
X131498628Y-60766912D01*
X126956558Y-67368761D02*
X128416397Y-62440427D01*
X125497043Y-144761309D02*
X128760249Y-146046722D01*
X120783354Y-146810881D02*
X125497043Y-144761309D01*
X141051952Y-80192859D02*
X125324985Y-95919825D01*
X120717247Y-97309650D02*
X122753825Y-96203877D01*
X123276980Y-95919826D02*
X122753825Y-96203875D01*
X125324985Y-95919825D02*
X123276980Y-95919826D01*
X123005897Y-80705925D02*
X126088128Y-79032411D01*
X121546057Y-85634259D02*
X123005897Y-80705925D01*
X117595397Y-98971426D02*
X120677629Y-97297912D01*
X116135558Y-103899760D02*
X117595397Y-98971426D01*
X175776516Y-60276231D02*
X177450032Y-57194000D01*
X177236355Y-65204564D02*
X175776516Y-60276231D01*
X174428131Y-137773313D02*
X173142719Y-134510107D01*
X179141819Y-139822884D02*
X174428131Y-137773313D01*
X172034158Y-96392264D02*
X155834752Y-80192859D01*
X172315898Y-96392265D02*
X172034158Y-96392264D01*
X185817583Y-92392884D02*
X172315898Y-96392265D01*
X188271029Y-93724998D02*
X185817583Y-92392884D01*
X181187016Y-78541730D02*
X182860531Y-75459499D01*
X182646855Y-83470063D02*
X181187016Y-78541730D01*
X186597516Y-96807230D02*
X188271031Y-93724999D01*
X188057355Y-101735563D02*
X186597516Y-96807230D01*
X193474017Y-52947831D02*
X195147530Y-49865600D01*
X194933854Y-57876162D02*
X193474017Y-52947831D01*
X191562863Y-117872193D02*
X191776974Y-114371485D01*
X194968729Y-121721824D02*
X191562863Y-117872193D01*
X157360693Y-78721600D02*
X156291952Y-77652859D01*
X157360693Y-81011680D02*
X157360693Y-78721600D01*
X172203036Y-95854024D02*
X157360693Y-81011680D01*
X203390755Y-84997281D02*
X200874393Y-85742662D01*
X172372469Y-95854023D02*
X172203036Y-95854024D01*
X205968530Y-86396898D02*
X203390755Y-84997281D01*
X200874393Y-85742662D02*
X199794714Y-87731185D01*
X199794714Y-87731185D02*
X172372469Y-95854023D01*
X198884515Y-71213631D02*
X200558030Y-68131400D01*
X200344354Y-76141965D02*
X198884515Y-71213631D01*
X204295015Y-89479128D02*
X205968530Y-86396897D01*
X205754854Y-94407462D02*
X204295015Y-89479128D01*
X210177516Y-42263829D02*
X211851031Y-39181598D01*
X211637354Y-47192163D02*
X210177516Y-42263829D01*
X215003015Y-106175531D02*
X216676530Y-103093300D01*
X216462855Y-111103863D02*
X215003015Y-106175531D01*
X217261531Y-57447399D02*
X214745855Y-56081498D01*
X214745855Y-56081498D02*
X212229476Y-56826884D01*
X212229476Y-56826884D02*
X210474983Y-60058255D01*
X210474983Y-60058255D02*
X202804426Y-62330378D01*
X202804426Y-62330378D02*
X200847494Y-65934599D01*
X200847494Y-65934599D02*
X195573984Y-67496685D01*
X195573984Y-67496685D02*
X195478103Y-67525086D01*
X195478103Y-67525086D02*
X194128494Y-70010757D01*
X155834753Y-75112859D02*
X158124831Y-75112859D01*
X158124831Y-75112859D02*
X161150375Y-78138401D01*
X161150375Y-78138401D02*
X166693538Y-78138402D01*
X166693538Y-78138402D02*
X167291284Y-77961341D01*
X167292766Y-77959859D02*
X175150681Y-75632240D01*
X167291284Y-77961341D02*
X167292766Y-77959859D01*
X175150681Y-75632240D02*
X176693146Y-75175340D01*
X176693146Y-75175340D02*
X178555609Y-74623653D01*
X178555609Y-74623653D02*
X180136542Y-74155359D01*
X180136542Y-74155359D02*
X183890026Y-73043528D01*
X183890026Y-73043528D02*
X188895509Y-71560835D01*
X188895509Y-71560835D02*
X193616695Y-70162357D01*
X193616695Y-70162357D02*
X194128493Y-70010757D01*
X220998515Y-78795130D02*
X222672030Y-75712899D01*
X222458354Y-83723463D02*
X220998515Y-78795130D01*
X215588015Y-60529629D02*
X217261530Y-57447398D01*
X217047854Y-65457962D02*
X215588015Y-60529629D01*
X229721115Y-41167831D02*
X231394631Y-38085599D01*
X231180954Y-46096163D02*
X229721115Y-41167831D01*
X236805032Y-56351599D02*
X234289380Y-54985712D01*
X234289380Y-54985712D02*
X222999859Y-58329821D01*
X222999859Y-58329821D02*
X220514188Y-56980212D01*
X220514188Y-56980212D02*
X220141340Y-56777771D01*
X220141340Y-56777771D02*
X219942527Y-56106598D01*
X219942527Y-56106598D02*
X217456846Y-54756983D01*
X211888884Y-56406287D02*
X211888882Y-56406289D01*
X217456846Y-54756983D02*
X211888884Y-56406287D01*
X211888882Y-56406289D02*
X210134392Y-59637658D01*
X210134392Y-59637658D02*
X203525353Y-61595345D01*
X202463835Y-61909781D02*
X202463833Y-61909783D01*
X203525353Y-61595345D02*
X202463835Y-61909781D01*
X202463833Y-61909783D02*
X200506902Y-65514003D01*
X200506902Y-65514003D02*
X195527856Y-66988864D01*
X195137510Y-67104490D02*
X195137509Y-67104490D01*
X195527856Y-66988864D02*
X195137510Y-67104490D01*
X195137509Y-67104490D02*
X193787901Y-69590160D01*
X193787901Y-69590160D02*
X179795950Y-73734764D01*
X179795950Y-73734764D02*
X174810089Y-75211644D01*
X174810089Y-75211644D02*
X166947776Y-77540566D01*
X161357485Y-77638391D02*
X161289838Y-77570745D01*
X161289838Y-77570745D02*
X156291952Y-72572859D01*
X166950693Y-77540745D02*
X166621040Y-77638392D01*
X166621040Y-77638392D02*
X161357485Y-77638391D01*
X235131516Y-59433831D02*
X236805031Y-56351600D01*
X236591355Y-64362165D02*
X235131516Y-59433831D01*
X240542015Y-77699330D02*
X242215530Y-74617099D01*
X242001854Y-82627663D02*
X240542015Y-77699330D01*
X195259436Y-47773828D02*
X190081811Y-49307511D01*
X157920703Y-67946907D02*
X157920703Y-65059361D01*
X190081811Y-49307511D02*
X188732202Y-51793182D01*
X188732202Y-51793182D02*
X172432265Y-56621441D01*
X172432265Y-56621441D02*
X170745257Y-59728529D01*
X252358230Y-41784599D02*
X249904449Y-40452305D01*
X168054459Y-60527215D02*
X170150482Y-59906345D01*
X218274743Y-39913435D02*
X212681984Y-36876816D01*
X157920703Y-65059361D02*
X160095214Y-62884850D01*
X252144554Y-49795162D02*
X250684715Y-44866829D01*
X155834753Y-70032859D02*
X157920703Y-67946907D01*
X244368090Y-42092250D02*
X232561156Y-35681606D01*
X250684715Y-44866829D02*
X252358230Y-41784599D01*
X160095214Y-62884850D02*
X168054459Y-60527215D01*
X197283851Y-44045324D02*
X195259436Y-47773828D01*
X205146172Y-41716398D02*
X197283851Y-44045324D01*
X206833185Y-38609310D02*
X205146172Y-41716398D01*
X212681984Y-36876816D02*
X206833185Y-38609310D01*
X232561156Y-35681606D02*
X218274743Y-39913435D01*
X249904449Y-40452305D02*
X244368090Y-42092250D01*
X170150482Y-59906345D02*
X170741284Y-59731342D01*
X256095016Y-63132132D02*
X257768531Y-60049901D01*
X257554855Y-68060465D02*
X256095016Y-63132132D01*
X261506017Y-81397631D02*
X263179532Y-78315400D01*
X262965856Y-86325964D02*
X261506017Y-81397631D01*
X268950018Y-39455830D02*
X270623532Y-36373599D01*
X270409856Y-44384162D02*
X268950018Y-39455830D01*
X270623532Y-36373599D02*
X268170432Y-35041675D01*
X250582448Y-40251472D02*
X249961019Y-39914063D01*
X268170432Y-35041675D02*
X250582448Y-40251472D01*
X249961019Y-39914063D02*
X247684646Y-40588353D01*
X247684646Y-40588353D02*
X244424660Y-41554008D01*
X244424660Y-41554008D02*
X232617728Y-35143365D01*
X225988237Y-37107109D02*
X225988234Y-37107112D01*
X232617728Y-35143365D02*
X225988237Y-37107109D01*
X225988237Y-37107109D02*
X218331313Y-39375194D01*
X218331313Y-39375194D02*
X212982709Y-36471139D01*
X206492592Y-38188713D02*
X206492592Y-38188715D01*
X212982709Y-36471139D02*
X212738555Y-36338574D01*
X212738555Y-36338574D02*
X206492592Y-38188713D01*
X206492592Y-38188715D02*
X204805580Y-41295801D01*
X204805580Y-41295801D02*
X198484188Y-43168281D01*
X196943260Y-43624725D02*
X196943258Y-43624728D01*
X198484188Y-43168281D02*
X196943260Y-43624725D01*
X189741218Y-48886914D02*
X189741218Y-48886916D01*
X196943258Y-43624728D02*
X194918846Y-47353232D01*
X194918846Y-47353232D02*
X189741218Y-48886914D01*
X189741218Y-48886916D02*
X188391609Y-51372584D01*
X172091675Y-56200844D02*
X172091674Y-56200849D01*
X188391609Y-51372584D02*
X172091675Y-56200844D01*
X172091674Y-56200849D02*
X170404664Y-59307933D01*
X156291952Y-67492858D02*
X157420692Y-66364117D01*
X170400692Y-59310745D02*
X159831447Y-62441497D01*
X157420693Y-64852251D02*
X159831447Y-62441497D01*
X157420692Y-66364117D02*
X157420693Y-64852251D01*
X279771018Y-75987130D02*
X281444533Y-72904899D01*
X281230856Y-80915464D02*
X279771018Y-75987130D01*
X274361017Y-57721629D02*
X276034532Y-54639398D01*
X275820856Y-62649963D02*
X274361017Y-57721629D01*
M02*
